<?xml version="1.0" encoding="UTF-8" standalone="no"?>
<svg
   xmlns:dc="http://purl.org/dc/elements/1.1/"
   xmlns:cc="http://creativecommons.org/ns#"
   xmlns:rdf="http://www.w3.org/1999/02/22-rdf-syntax-ns#"
   xmlns:svg="http://www.w3.org/2000/svg"
   xmlns="http://www.w3.org/2000/svg"
   viewBox="0 0 446.18213 503.88132"
   height="503.88132"
   width="446.18213"
   version="1.1"
   id="svg2">
  <metadata
     id="metadata8">
    <rdf:RDF>
      <cc:Work
         rdf:about="">
        <dc:format>image/svg+xml</dc:format>
        <dc:type
           rdf:resource="http://purl.org/dc/dcmitype/StillImage" />
        <dc:title></dc:title>
      </cc:Work>
    </rdf:RDF>
  </metadata>
  <defs
     id="defs6" />
  <path
     id="path3338"
     d="m 223.08389,502.80342 c -6.29881,-1.47728 -15.82322,-6.62205 -21.57661,-11.65498 -16.21954,-14.18846 -21.44732,-36.28987 -12.84728,-54.3143 4.26661,-8.9422 11.02605,-17.34549 17.22301,-21.41155 2.51472,-1.65 4.58211,-3.34564 4.59421,-3.7681 0.0755,-2.63677 -25.4072,-99.37129 -26.33409,-99.96659 -0.62916,-0.40408 -3.25928,-0.74158 -5.84471,-0.75 -12.29434,-0.0401 -28.63132,-6.88374 -40.41398,-16.92975 l -7.11477,-6.06612 -28.88523,17.48445 -28.885235,17.48445 -0.571928,8.78176 c -0.480557,7.37877 -1.100812,9.77404 -3.882396,14.99282 -3.914395,7.34416 -10.701839,14.005 -18.162889,17.82412 -4.516293,2.31176 -6.670587,2.76193 -13.382787,2.79648 -11.058516,0.0569 -17.071724,-2.16673 -24.528777,-9.07065 C 8.4937576,354.55377 5.4560919,350.54916 3.2669091,346.1023 0.39955219,340.27787 -6.9780814e-4,338.48194 9.1186483e-7,331.44362 6.5860186e-4,324.81858 0.47109889,322.41867 2.7030313,317.65434 6.1077868,310.38648 14.819671,301.58086 21.739857,298.41269 c 11.171791,-5.11461 21.758786,-4.28067 33.191083,2.61447 l 6.503106,3.9222 22.78258,-13.83299 c 38.476564,-23.36198 35.494274,-21.24573 34.799204,-24.69378 -0.33262,-1.65 -0.86108,-8.67139 -1.17436,-15.60309 -0.45916,-10.15944 -0.23933,-13.74646 1.13376,-18.5 2.56817,-8.89086 7.94722,-18.37453 15.27055,-26.92317 l 6.58032,-7.68132 -3.16345,-6.41514 c -4.25946,-8.63775 -4.17634,-12.28077 0.37135,-16.27369 6.23486,-5.47428 13.39612,-3.12023 17.97074,5.90734 1.41667,2.79567 3.2711,5.34986 4.12094,5.67598 0.84984,0.32611 3.99609,0.0444 6.99166,-0.62593 6.96157,-1.55794 19.45147,-1.56273 25.88186,-0.01 2.75,0.66406 8.78894,2.95587 13.41987,5.0929 l 8.41986,3.88553 2.44552,-2.26474 c 9.45499,-8.75599 110.68364,-117.411394 110.56326,-118.674801 -0.0833,-0.874431 -1.39663,-4.514874 -2.91847,-8.089874 -5.62593,-13.216027 -4.21611,-29.880661 3.53447,-41.778864 12.16127,-18.6692144 33.71273,-28.0277694 52.10399,-22.6257565 13.87205,4.0745991 26.57666,14.8445415 33.06974,28.0338715 3.22601,6.552938 3.36176,7.293935 3.36176,18.349722 0,9.590171 -0.38439,12.533385 -2.29359,17.561565 -6.63296,17.468953 -24.27011,30.206925 -43.23458,31.225047 -7.46515,0.400773 -9.45951,0.119399 -16,-2.257357 -4.10951,-1.49336 -8.59683,-2.925478 -9.97183,-3.182485 -2.2122,-0.41349 -8.37609,5.786203 -53.54247,53.853492 -28.07336,29.87642 -53.23921,56.7012 -55.92411,59.6106 l -4.88162,5.28984 4.61499,9.21016 c 2.53825,5.0656 5.14267,11.98471 5.78761,15.37582 1.13409,5.96305 0.79693,23.38621 -0.60805,31.42206 -0.60358,3.45224 -0.43435,3.7115 4.48221,6.86645 6.73911,4.32448 9.07144,7.42958 9.07144,12.07711 0,3.05396 -0.66494,4.34537 -3.5348,6.86514 -4.57567,4.01749 -7.68118,3.96191 -15.67823,-0.28061 l -6.37914,-3.3842 -5.99303,5.14463 c -3.29617,2.82955 -8.33793,6.64935 -11.20392,8.48845 -3.73118,2.39429 -5.18681,3.95313 -5.12612,5.48957 0.0466,1.18016 5.55912,23.74236 12.25,50.13822 l 12.16524,47.99246 8.11133,1.67314 c 18.63205,3.84327 32.77503,15.7173 39.13847,32.85951 6.25622,16.85336 2.41312,33.35186 -11.10741,47.68433 -12.46881,13.2176 -28.65022,18.79248 -44.0577,15.17892 z m 20.30552,-22.34209 c 6.21741,-2.19363 10.72132,-6.11818 13.56091,-11.81649 3.41247,-6.84793 3.65376,-19.80842 0.49045,-26.34295 -6.24548,-12.90143 -22.78943,-17.80223 -38.00293,-11.25756 -8.27116,3.55816 -12.58011,10.3386 -13.62283,21.43652 -0.85666,9.11771 1.60712,16.46222 7.49309,22.33681 2.58011,2.57511 6.2661,5.18124 8.1911,5.79139 5.12018,1.6229 17.10088,1.54205 21.89021,-0.14772 z M 43.465187,345.17104 c 10.930102,-5.51379 9.595588,-24.90267 -1.952155,-28.36245 -5.15415,-1.54422 -13.815761,0.20981 -16.818247,3.40581 -4.396777,4.68016 -4.726095,17.21626 -0.574609,21.8735 4.281128,4.80268 13.138096,6.21427 19.345011,3.08314 z M 190.26836,288.41495 c 13.2782,-3.13061 21.71318,-9.95805 27.56632,-22.31275 3.0058,-6.34458 3.16452,-7.28149 3.16452,-18.67961 0,-10.82214 -0.25384,-12.53985 -2.58616,-17.5 -3.30814,-7.03544 -11.37168,-15.84684 -17.57448,-19.20443 -11.28641,-6.10936 -27.57537,-6.31053 -39.67429,-0.48998 -8.94534,4.30344 -15.04999,10.30031 -19.03034,18.69441 -2.67371,5.63854 -3.1334,7.84659 -3.46857,16.66047 -0.29389,7.72842 0.0268,11.43855 1.33993,15.5 6.91291,21.3819 27.65657,32.66183 50.26307,27.33189 z M 383.22177,72.814839 c 4.84196,-2.343952 8.77847,-6.619307 11.41009,-12.392254 2.31335,-5.074754 2.4555,-16.417573 0.28556,-22.785996 -2.02715,-5.949358 -8.18287,-12.105073 -14.13222,-14.132223 -5.45665,-1.859266 -15.93996,-2.065347 -21.42756,-0.421223 -5.06757,1.518282 -11.39042,7.006781 -14.05102,12.196888 -2.57904,5.031015 -3.58394,16.759657 -1.87865,21.926734 2.61306,7.917655 10.80076,15.877565 18.30682,17.797519 5.08128,1.299723 16.7316,0.112599 21.48698,-2.189445 z m 18.00069,341.747341 c -6.58017,-1.85141 -15.19964,-8.03187 -19.919,-14.28262 -5.49278,-7.27514 -7.80426,-13.89402 -7.80426,-22.34737 l 0,-6.96895 -3.9722,-2.02647 c -2.1847,-1.11455 -5.5597,-3.42031 -7.5,-5.12391 -2.97886,-2.61548 -3.5278,-3.74692 -3.5278,-7.27136 0,-5.09697 2.13959,-8.36146 6.74003,-10.28365 3.33497,-1.39344 3.78816,-1.30647 10.97309,2.10564 4.12196,1.9575 7.94243,3.5591 8.48994,3.5591 0.54752,0 3.53831,-1.5616 6.64621,-3.47023 7.9171,-4.86205 16.23002,-6.84042 23.21298,-5.52441 12.01244,2.26387 23.36059,11.24514 28.7353,22.742 3.97492,8.5026 3.83776,18.35705 -0.37936,27.2555 -7.74911,16.35122 -26.28807,25.97163 -41.69493,21.63673 z m 19.27534,-24.13825 c 6.41833,-6.14915 5.93545,-17.72611 -1.00121,-24.0037 -1.78386,-1.61437 -3.61358,-1.99764 -9.53671,-1.99764 -6.68673,0 -7.58885,0.24861 -10.289,2.83552 -5.28444,5.06282 -6.49007,15.33724 -2.52223,21.49449 2.32444,3.60703 7.03146,5.24099 14.0832,4.88875 5.28895,-0.2642 6.69194,-0.75136 9.26595,-3.21742 z M 317.4992,338.80711 c -15.55152,-8.47527 -36.6014,-21.33771 -39.25,-23.98354 -4.19131,-4.18694 -3.87751,-9.70383 0.7848,-13.79739 4.12544,-3.62219 6.325,-3.80248 12.4652,-1.02172 9.21164,4.17175 38.5135,21.54398 42.19006,25.01329 5.18569,4.89336 5.3186,9.59618 0.40994,14.50484 -4.48343,4.48343 -7.28166,4.36283 -16.6,-0.71548 z M 122.91764,157.95374 c -3.07238,-1.24291 -6.66201,-5.91576 -12.50937,-16.28425 -8.22081,-14.57705 -13.909065,-26.84637 -13.909065,-30.00124 0,-4.39585 4.824755,-8.74566 9.700565,-8.74566 5.34558,0 7.43885,1.79416 13.14512,11.2668 10.44259,17.33513 16.15431,29.43519 16.15431,34.22229 0,4.1256 -0.3439,4.74748 -4.15004,7.50464 -4.40299,3.18951 -5.14213,3.36812 -8.43152,2.03742 z M 81.711871,86.448078 C 80.094439,85.087099 77.498898,81.543724 75.944003,78.573912 L 73.116919,73.174254 66.333144,72.543769 C 62.602068,72.197002 57.047521,70.977222 53.989707,69.833147 46.301056,66.956454 37.440486,58.580028 33.396162,50.364839 30.415375,44.310002 30.279595,43.52336 30.69335,34.706161 31.221877,23.443138 33.18391,19.07788 41.419205,10.842585 c 8.77676,-8.7767601 12.567124,-10.37649566 24.58,-10.37407083 9.044794,0.001826 10.520969,0.27389339 15.453991,2.84826063 6.728895,3.5115689 14.988677,11.8174062 18.162009,18.2632762 2.009605,4.082059 2.381665,6.33442 2.369185,14.342534 -0.0132,8.466027 -0.32419,10.098616 -2.857454,15 -1.563462,3.025 -3.935657,6.666698 -5.271546,8.092661 l -2.428888,2.592662 3.536352,7.379127 c 1.944993,4.058519 3.536351,8.201669 3.536351,9.206998 0,3.140376 -2.908178,7.629709 -5.967267,9.211625 -4.193249,2.168413 -7.447284,1.88043 -10.820067,-0.95758 z M 74.499205,49.171031 c 9.654922,-4.823174 9.328206,-22.706406 -0.489778,-26.808622 -7.123149,-2.976241 -16.754729,-1.048679 -20.074173,4.017433 -4.341519,6.625996 -3.338958,16.664782 2.145171,21.479911 3.022225,2.653549 4.252089,3.062624 9.203576,3.061278 3.437062,-9.35e-4 7.110342,-0.698504 9.215204,-1.75 z"
     style="fill:#f39f18;fill-opacity:1" />
</svg>
