<?xml version="1.0" encoding="UTF-8" standalone="no"?>
<svg
   xmlns:dc="http://purl.org/dc/elements/1.1/"
   xmlns:cc="http://creativecommons.org/ns#"
   xmlns:rdf="http://www.w3.org/1999/02/22-rdf-syntax-ns#"
   xmlns:svg="http://www.w3.org/2000/svg"
   xmlns="http://www.w3.org/2000/svg"
   id="svg2"
   version="1.1"
   width="196.51625"
   height="153.509"
   viewBox="0 0 196.51625 153.509">
  <metadata
     id="metadata8">
    <rdf:RDF>
      <cc:Work
         rdf:about="">
        <dc:format>image/svg+xml</dc:format>
        <dc:type
           rdf:resource="http://purl.org/dc/dcmitype/StillImage" />
        <dc:title></dc:title>
      </cc:Work>
    </rdf:RDF>
  </metadata>
  <defs
     id="defs6" />
  <path
     style="fill:#f39f18;fill-opacity:1"
     d="m 91.173876,152.71127 c -4.417133,-1.28513 -9.476685,-7.03679 -11.532813,-13.11043 l -1.796153,-5.30568 -23.616241,-12.799 -23.616241,-12.799 -3.206752,2.2873 c -2.560357,1.82624 -4.532667,2.2873 -9.784594,2.2873 -5.713169,0 -7.076178,-0.3801 -10.3688375,-2.89153 -10.5780419,-8.06827 -9.4038484,-23.091874 2.3426543,-29.973857 4.3972992,-2.576267 12.0374992,-2.461433 16.6330352,0.25 1.971921,1.163462 4.00151,2.115385 4.510199,2.115385 0.508689,0 11.468173,-5.679835 24.354409,-12.621856 23.028441,-12.405788 23.440745,-12.683965 24.085194,-16.25 1.532522,-8.480161 9.228723,-15.128144 17.513469,-15.128144 14.317135,0 22.757155,15.119355 15.142585,27.126277 -5.91053,9.319935 -17.194994,10.879789 -27.16472,3.754983 -1.211893,-0.866072 -6.467443,1.578579 -25.286841,11.762329 -19.432018,10.515257 -23.704768,13.206551 -23.470146,14.783251 0.206029,1.38456 6.986462,5.558112 24.066966,14.813942 l 23.780125,12.88631 2.974629,-2.50298 c 5.525617,-4.64951 15.150327,-4.41267 21.430537,0.52735 3.62144,2.84863 6.53458,9.02235 6.53458,13.84854 0,12.09628 -11.56043,20.42052 -23.525044,16.93951 z m 0.59615,-39.69106 c -9.257684,-4.72064 -12.74984,-16.001812 -7.648219,-24.707073 5.657287,-9.653432 17.608123,-11.567106 27.609453,-4.421072 1.21478,0.867975 6.45659,-1.557907 25.29422,-11.706036 20.03455,-10.792934 23.71572,-13.119915 23.46766,-14.834622 -0.22085,-1.526596 -6.19826,-5.223579 -23.97126,-14.826057 L 112.84483,29.733012 109.1713,32.225941 C 100.01199,38.441612 88.688023,35.5512 83.671024,25.71707 76.823741,12.295286 89.637107,-3.5594105 103.88228,0.70854748 109.77871,2.4751605 114.50967,7.3234895 116.60199,13.7438 l 1.78329,5.472043 23.56206,12.7738 23.56207,12.773801 4.34475,-2.483797 c 10.6321,-6.078127 24.19433,0.177635 26.4498,12.200325 1.26205,6.727298 -3.24804,15.504452 -9.6745,18.827703 -4.15963,2.151029 -12.74657,1.873623 -16.70471,-0.539655 -1.80079,-1.097944 -3.73021,-1.996262 -4.28759,-1.996262 -0.55738,0 -11.48162,5.637861 -24.27607,12.528581 l -23.26265,12.528579 -1.22133,4.566422 c -0.67173,2.51154 -2.35986,6.05911 -3.75139,7.8835 -4.59389,6.0229 -14.520414,8.22678 -21.355694,4.74137 z"
     id="path3338" />
</svg>
