<?xml version="1.0" encoding="UTF-8" standalone="no"?>
<svg
   xmlns:dc="http://purl.org/dc/elements/1.1/"
   xmlns:cc="http://creativecommons.org/ns#"
   xmlns:rdf="http://www.w3.org/1999/02/22-rdf-syntax-ns#"
   xmlns:svg="http://www.w3.org/2000/svg"
   xmlns="http://www.w3.org/2000/svg"
   viewBox="0 0 412.18411 408.75427"
   height="408.75427"
   width="412.18411"
   version="1.1"
   id="svg2">
  <metadata
     id="metadata8">
    <rdf:RDF>
      <cc:Work
         rdf:about="">
        <dc:format>image/svg+xml</dc:format>
        <dc:type
           rdf:resource="http://purl.org/dc/dcmitype/StillImage" />
        <dc:title></dc:title>
      </cc:Work>
    </rdf:RDF>
  </metadata>
  <defs
     id="defs6" />
  <path
     id="path3338"
     d="M 395.52668,405.39173 C 371.7929,399.9231 345.2687,391.2542 332.25398,384.71231 l -5.77271,-2.90166 -11.22729,2.26612 c -15.91466,3.21221 -47.47586,3.22565 -61.91006,0.0264 -26.67893,-5.91329 -48.53258,-17.21501 -65.19475,-33.71576 -31.60874,-31.30252 -39.77546,-73.40683 -21.57053,-111.20896 15.42278,-32.02507 49.60482,-55.67391 92.44804,-63.96017 13.68596,-2.64698 38.74468,-2.45408 53.02363,0.40819 55.58143,11.14148 94.25622,48.05153 99.60122,95.05637 2.40925,21.18737 -3.44046,44.28333 -15.82186,62.4682 -3.79939,5.58021 -5.30299,8.7387 -5.30299,11.13949 0,10.5895 7.27618,34.77233 16.07464,53.42506 2.70895,5.74297 4.92536,10.60039 4.92536,10.79427 0,0.54776 -0.58407,0.43393 -16,-3.11813 z M 242.31652,296.96877 c 4.58273,-2.33893 6.68722,-4.61059 8.67202,-9.36089 2.0791,-4.97599 1.93583,-8.29255 -0.58301,-13.49578 -4.48678,-9.26845 -16.25215,-12.57732 -24.74263,-6.95858 -4.30763,2.85065 -8.14918,9.60869 -8.11426,14.27456 0.027,3.60536 3.03456,10.36637 5.58681,12.55912 5.89114,5.06134 12.95478,6.15934 19.18107,2.98157 z m 50.89506,0.82997 c 9.12423,-3.44737 13.90846,-14.91433 9.69451,-23.23604 -3.51906,-6.94945 -8.16111,-9.93111 -15.46143,-9.93111 -12.62507,0 -21.32757,13.80288 -15.63861,24.80412 3.87766,7.49857 13.61968,11.30473 21.40553,8.36303 z m 52.8937,-0.83271 c 7.37598,-3.35001 11.31731,-11.16109 9.56559,-18.95745 -1.89705,-8.44313 -8.25885,-13.37699 -17.24852,-13.37699 -14.35947,0 -22.09307,17.10273 -12.61494,27.89772 5.5963,6.37384 12.64193,7.91387 20.29787,4.43672 z M 4.4264677,334.06167 C 18.782054,305.50983 29.181022,273.39828 31.109916,251.66438 l 0.683199,-7.69799 -4.986973,-6.80201 C 2.6728297,204.24758 -5.7898293,162.73299 3.7141547,123.88386 18.890852,61.846555 77.721049,14.006048 153.12435,2.3840104 c 76.49542,-11.790366 157.8124,21.0414386 195.18188,78.8048646 13.54746,20.940835 22.19599,48.722575 22.21455,71.360055 l 0.006,7.18658 -9.25,-4.37494 c -5.0875,-2.40622 -13.3,-5.7292 -18.25,-7.3844 l -9,-3.00945 -1.58282,-7.30218 C 321.33192,86.400795 274.50942,47.798676 212.01623,38.37976 199.15352,36.441105 172.223,36.444738 158.55672,38.386973 96.997009,47.13576 48.706261,86.673465 38.296685,136.84902 c -2.515845,12.12671 -2.027167,32.40464 1.062927,44.10673 4.087964,15.481 13.352867,31.47821 26.194887,45.22932 l 7.05502,7.55445 -1.59549,9.31142 c -2.07867,12.13132 -5.93824,27.97099 -9.66182,39.65209 -1.63764,5.13737 -2.74707,9.57112 -2.4654,9.85279 1.44375,1.44375 32.50204,-10.97116 50.115261,-20.03254 6.58647,-3.38851 12.26594,-6.29158 12.62105,-6.45127 0.35511,-0.15969 0.86898,7.26531 1.14193,16.5 0.27295,9.23469 0.80688,17.51991 1.18653,18.41159 2.5314,5.94559 -59.178591,27.95911 -106.169562,37.87339 -7.8345633,1.65295 -14.9270853,3.00537 -15.7611603,3.00537 -1.14974396,0 -0.567962,-1.88655 2.40561,-7.80069 z"
     style="fill:#f39f18;fill-opacity:1" />
</svg>
