<?xml version="1.0" encoding="UTF-8" standalone="no"?>
<svg
   xmlns:dc="http://purl.org/dc/elements/1.1/"
   xmlns:cc="http://creativecommons.org/ns#"
   xmlns:rdf="http://www.w3.org/1999/02/22-rdf-syntax-ns#"
   xmlns:svg="http://www.w3.org/2000/svg"
   xmlns="http://www.w3.org/2000/svg"
   viewBox="0 0 512.09625 435.59598"
   height="435.59598"
   width="512.09625"
   version="1.1"
   id="svg2">
  <metadata
     id="metadata8">
    <rdf:RDF>
      <cc:Work
         rdf:about="">
        <dc:format>image/svg+xml</dc:format>
        <dc:type
           rdf:resource="http://purl.org/dc/dcmitype/StillImage" />
        <dc:title></dc:title>
      </cc:Work>
    </rdf:RDF>
  </metadata>
  <defs
     id="defs6" />
  <path
     id="path3338"
     d="m 473.99997,434.36701 c -3.84262,-1.32309 -10.67355,-7.78185 -46.76026,-44.21267 l -42.26026,-42.66323 19.76026,-19.85118 19.76026,-19.85118 29.86746,30.33176 c 35.25716,35.80523 51.8765,53.77273 54.32212,58.72872 1.21924,2.47075 1.78303,5.95996 1.79405,11.10303 0.0138,6.45435 -0.39576,8.24349 -2.93773,12.83272 -3.25788,5.8817 -6.71883,9.19453 -12.90002,12.34794 -5.31823,2.71316 -14.71838,3.27505 -20.64588,1.23409 z m -233,-75.41004 C 217.88285,357.27878 188.92356,348.03713 166.80619,335.27984 130.97718,314.61369 100.92101,277.66045 87.105582,237.29014 75.557698,203.54585 75.288609,158.03056 86.439945,124.70045 114.13285,41.929398 194.97068,-9.6043895 279.69875,1.4987457 331.83252,8.3305813 377.6517,36.144121 405.98108,78.155692 c 6.40724,9.501743 12.06818,19.276964 14.41185,24.886148 l 1.49798,3.58517 -9.19547,6.97071 c -5.05751,3.8339 -10.85002,8.21036 -12.87224,9.72546 l -3.67677,2.75475 -5.64483,-11.03557 C 382.66459,99.721117 374.29097,88.241296 361.98845,75.952263 340.29337,54.280959 315.57017,40.978287 285.66102,34.88319 c -13.07661,-2.664844 -41.65864,-2.87842 -54.55427,-0.407651 -25.02627,4.79497 -49.07162,16.306737 -69.37984,33.215767 -24.53322,20.426842 -43.54578,53.553234 -49.22165,85.760954 -2.18896,12.42131 -2.17259,43.31782 0.0287,54.10849 9.20232,45.10992 39.07824,84.55927 78.96603,104.26987 13.40049,6.62186 22.24104,9.64279 37.3493,12.7627 16.86174,3.48202 40.13815,3.68331 56.09825,0.48514 56.71522,-11.3649 101.16176,-52.78728 115.48378,-107.6262 1.43641,-5.5 3.06996,-11.68722 3.63011,-13.74937 0.86642,-3.18962 2.76666,-5.06471 12.72851,-12.56 6.44053,-4.84584 13.84755,-10.26775 16.46005,-12.04867 l 4.75,-3.23804 0,3.57648 c 0,7.39493 -3.14012,33.32169 -4.9681,41.0196 -4.55636,19.18766 -14.18674,41.87892 -24.40353,57.5 l -5.55932,8.5 7.95985,8.01523 7.95985,8.01524 -19.48743,19.46821 -19.48743,19.46821 -7.92236,-7.87589 -7.92235,-7.8759 -9.83459,6.03924 c -23.02181,14.13727 -48.23639,23.48639 -70.51517,26.14578 -11.74677,1.40219 -31.64804,1.91558 -42.81942,1.10459 z M 0,296.20226 2.9491296e-5,281.45226 3.25,278.869 c 33.573758,-26.68632 59.13017,-45.93654 59.927026,-45.13968 0.528891,0.52889 2.688348,5.63291 4.798793,11.34228 l 3.837173,10.38066 -2.65651,2.16481 C 56.387034,268.02299 1.3338248,310.94242 0.74997051,310.94673 0.33747051,310.94977 -1.62184e-5,304.31476 0,296.20226 Z m 213.34415,-24.24632 c -3.43747,-1.38651 -6.86833,-7.19841 -28.33735,-48.00368 -11.14088,-21.175 -20.39114,-38.65359 -20.55613,-38.84131 -0.87392,-0.99431 -5.24452,1.82852 -17.4507,11.27088 -7.425,5.74377 -13.87666,10.07269 -14.33701,9.61981 -0.93658,-0.92135 -3.64495,-17.7823 -3.65592,-22.75984 -0.007,-2.96953 1.24702,-4.18652 16.70435,-16.21698 9.19127,-7.15358 17.96627,-13.28213 19.5,-13.61899 1.53372,-0.33687 4.17169,-0.3087 5.86217,0.0626 4.02032,0.88301 5.79237,3.72386 25.87653,41.48384 15.9671,30.01954 17.57792,32.80529 18.45949,31.92372 0.24362,-0.24362 8.82335,-26.98862 19.06607,-59.43333 27.38454,-86.742954 28.34228,-89.566578 31.48149,-92.814536 3.48958,-3.610465 9.8591,-4.681478 13.53145,-2.275265 2.84172,1.861968 12.76685,21.183256 35.92964,69.944401 21.04326,44.29921 24.43471,50.85826 25.8613,50.01566 3.35888,-1.9839 53.67762,-39.98257 107.6711,-81.30885 33.24786,-25.447711 61.03536,-46.492938 61.75,-46.76717 1.829,-0.701855 1.87563,26.610135 0.0493,28.901283 -1.77588,2.227902 -95.2366,74.123767 -153.61265,118.168507 -26.11813,19.70614 -25.0565,20.11654 -43.11647,-16.66744 -7.07142,-14.40284 -18.18456,-37.37682 -24.69588,-51.0533 -6.51132,-13.67648 -12.28566,-24.86526 -12.83188,-24.86396 -1.21802,0.003 -2.76195,4.59532 -21.59361,64.23028 -17.90671,56.70589 -25.71015,80.58102 -27.49251,84.11516 -1.38095,2.73819 -6.89545,5.92988 -10.05813,5.82145 -1.01688,-0.0349 -2.81899,-0.45468 -4.00469,-0.93293 z"
     style="fill:#f39f18;fill-opacity:1" />
</svg>
