<?xml version="1.0" encoding="UTF-8" standalone="no"?>
<svg
   xmlns:dc="http://purl.org/dc/elements/1.1/"
   xmlns:cc="http://creativecommons.org/ns#"
   xmlns:rdf="http://www.w3.org/1999/02/22-rdf-syntax-ns#"
   xmlns:svg="http://www.w3.org/2000/svg"
   xmlns="http://www.w3.org/2000/svg"
   viewBox="0 0 265.99994 157.64075"
   height="157.64075"
   width="265.99994"
   version="1.1"
   id="svg2">
  <metadata
     id="metadata8">
    <rdf:RDF>
      <cc:Work
         rdf:about="">
        <dc:format>image/svg+xml</dc:format>
        <dc:type
           rdf:resource="http://purl.org/dc/dcmitype/StillImage" />
        <dc:title></dc:title>
      </cc:Work>
    </rdf:RDF>
  </metadata>
  <defs
     id="defs6" />
  <path
     id="path3338"
     d="m 109.5,156.99575 c -9.895271,-1.34579 -18.285246,-3.6266 -22.168215,-6.0264 C 84.399978,149.15739 84,148.39893 84,144.65147 c 0,-5.58579 4.604711,-14.76415 10.486976,-20.90323 5.511351,-5.75196 14.967914,-12.00099 21.387714,-14.13331 l 4.74841,-1.57717 -4.18451,-4.3672 c -8.73881,-9.120331 -12.48173,-22.929858 -9.03086,-33.319441 6.69628,-20.160616 33.12316,-25.326536 46.94649,-9.177087 9.88067,11.543336 8.2388,29.939642 -3.79281,42.496528 l -4.18451,4.3672 4.74841,1.57717 c 16.2074,5.38323 32.54546,23.69001 31.68939,35.50792 -0.2918,4.02827 -0.64214,4.51227 -4.8147,6.65164 -7.69038,3.94303 -17.754,5.38269 -40.5,5.79377 -11.55,0.20874 -24.15,-0.0489 -28,-0.57251 z M 0,104.72506 0,98.376799 10.67655,91.475053 C 25.383865,81.96766 25.540333,81.940312 16.5,90.457184 l -8,7.536778 47.089485,0.03967 47.089485,0.03968 1.36651,2.750003 c 1.93769,3.89948 1.95379,3.8646 -3.33021,7.21562 l -4.784727,3.03438 -47.965271,0 -47.965272,0 0,-6.34825 z m 166,3.23947 c -4.9821,-3.26964 -4.97619,-3.2558 -3.04548,-7.14122 l 1.36651,-2.750003 47.08949,-0.03967 47.08948,-0.03967 -8,-7.570418 c -8.23418,-7.792027 -7.84792,-7.698173 6.78968,1.649758 l 8.61225,5.5 0.049,6.750003 0.049,6.75 -47.75,-0.0778 -47.75,-0.0778 -4.5,-2.95325 z M 63,80.42547 C 53.842652,79.050135 48.053849,77.631265 44.774597,75.958315 41.679183,74.379153 41,73.49455 41,71.042085 41,62.635052 51.332901,50.324882 62.45759,45.478442 l 6.382108,-2.780347 -3.844747,-4.367864 C 57.761012,30.112042 56.157606,20.163198 60.622909,11.202502 64.19402,4.0362164 69.206633,0.78228652 77.487293,0.25501392 85.032128,-0.22540501 89.378794,1.5364247 94.422699,7.1194242 102.31398,15.854134 101.35923,28.760947 92.036366,39.379107 l -2.951355,3.361408 5.349897,2.217408 c 2.942444,1.219575 7.076042,3.709539 9.185762,5.533253 l 3.83587,3.315845 -2.77588,4.005593 C 100.94969,63.196411 98,71.228579 98,76.00444 l 0,3.909679 -6.254038,0.669751 c -3.43972,0.368363 -7.60222,0.51668 -9.25,0.329594 L 79.5,80.573307 84.411755,75.296673 89.32351,70.020038 85.014488,59.493939 c -3.241427,-7.918174 -4.024777,-10.810343 -3.161755,-11.673365 1.88379,-1.88379 1.368071,-2.242549 -3.368842,-2.343532 -4.235757,-0.0903 -4.417675,0.01195 -2.935369,1.649881 1.453147,1.60571 1.220354,2.618784 -2.894474,12.596265 l -4.474715,10.850119 5.126173,5.25 5.126174,5.25 -6.46584,-0.136182 C 68.409628,80.862225 64.375,80.63198 63,80.42547 Z m 109.25,-0.0099 C 169.21485,79.977591 169,79.687052 169,76.020675 c 0,-4.790514 -2.94533,-12.817979 -6.68066,-18.208061 l -2.77588,-4.005593 3.83587,-3.315845 c 2.10972,-1.823714 6.24332,-4.313678 9.18576,-5.533253 l 5.3499,-2.217408 -2.95136,-3.361408 C 167.96068,31.403186 165.43117,21.469764 168.4141,13.659065 170.57182,8.0091539 177.61065,1.4245763 182.46641,0.51363102 193.17705,-1.4956966 202.019,2.4569504 206.37709,11.202502 c 4.4653,8.960696 2.8619,18.90954 -4.37204,27.127729 l -3.84475,4.367864 6.38211,2.780347 C 215.6638,50.323442 226,62.634968 226,71.036728 c 0,3.49648 -3.15076,5.537671 -12,7.77408 -5.4759,1.383887 -35.32832,2.531311 -41.75,1.604725 z"
     style="fill:#f39f18;fill-opacity:1" />
</svg>
