<?xml version="1.0" encoding="UTF-8" standalone="no"?>
<svg
   xmlns:dc="http://purl.org/dc/elements/1.1/"
   xmlns:cc="http://creativecommons.org/ns#"
   xmlns:rdf="http://www.w3.org/1999/02/22-rdf-syntax-ns#"
   xmlns:svg="http://www.w3.org/2000/svg"
   xmlns="http://www.w3.org/2000/svg"
   id="svg2"
   version="1.1"
   width="230.51448"
   height="254.79012"
   viewBox="0 0 230.51448 254.79012">
  <metadata
     id="metadata8">
    <rdf:RDF>
      <cc:Work
         rdf:about="">
        <dc:format>image/svg+xml</dc:format>
        <dc:type
           rdf:resource="http://purl.org/dc/dcmitype/StillImage" />
        <dc:title></dc:title>
      </cc:Work>
    </rdf:RDF>
  </metadata>
  <defs
     id="defs6" />
  <path
     style="fill:#f39f18;fill-opacity:1"
     d="M 16.972229,253.87532 C 9.6007789,251.63303 5.2351589,247.8073 2.0627329,240.80966 0.05750887,236.3866 0.02225087,234.74716 6.6487183e-4,144.92568 -0.01595513,75.77902 0.27614187,52.540113 1.2010259,49.425683 2.8082609,44.01352 10.18256,36.639221 15.594723,35.031986 c 2.330657,-0.692129 9.813006,-1.222323 17.25,-1.222323 l 13.13398,0 0,5.5 0,5.5 -13.04966,0 c -14.144976,0 -17.307148,0.843227 -20.30184,5.413705 -1.500853,2.290591 -1.6485,10.673889 -1.6485,93.600772 0,99.98804 -0.28811,95.23381 5.967267,98.46859 2.55076,1.31905 13.408221,1.51644 83.23307,1.51319 78.45511,-0.004 80.37478,-0.0495 83.57005,-1.9977 1.79872,-1.09668 3.75998,-3.06849 4.35837,-4.38181 0.86008,-1.88768 2.13703,-2.527 6.09634,-3.05222 2.75461,-0.36541 5.25294,-0.41982 5.55186,-0.12091 1.14268,1.14269 -2.00672,8.74847 -5.06479,12.23142 -1.75869,2.00303 -5.45089,4.69118 -8.20489,5.97365 l -5.00728,2.33177 -81,-0.0762 c -44.549997,-0.0419 -82.12791,-0.41926 -83.506471,-0.8386 z M 173.9787,220.93477 c -37.08335,-11.91612 -40.63983,-63.828 -5.49944,-80.27217 26.54541,-12.42209 56.46,3.22177 61.48939,32.15595 3.02554,17.406 -6.81241,37.23483 -22.43771,45.22419 -9.67455,4.94669 -23.46021,6.13494 -33.55224,2.89203 z m 14.27061,-16.794 c 8.01673,-11.59016 14.93673,-20.40763 21.56281,-27.47534 5.06572,-5.40334 7.16658,-8.40134 7.16658,-10.22694 0,-3.26714 -3.99884,-6.09692 -7.40695,-5.24154 -2.76325,0.69353 -14.13346,12.64337 -22.22952,23.36271 -3.01165,3.9875 -5.62066,7.25 -5.79779,7.25 -0.17713,0 -3.53534,-4.275 -7.4627,-9.5 -6.15404,-8.1874 -7.54269,-9.5 -10.05042,-9.5 -3.55262,0 -6.05262,2.30975 -6.05262,5.59202 0,2.18165 13.25223,21.51629 19.29987,28.15798 3.48613,3.82856 7.21873,3.00557 10.97074,-2.41889 z M 41.732999,198.55966 c -1.363461,-3.70763 -0.841775,-3.75 46.168524,-3.75 l 45.756147,0 1.13908,2.5 1.13907,2.5 -46.871567,0 c -36.585428,0 -46.972451,-0.27432 -47.331254,-1.25 z m 0,-38 c -1.365698,-3.71371 -0.903065,-3.75 47.807594,-3.75 l 47.395227,0 -1.13907,2.5 -1.13908,2.5 -46.232497,0 c -36.074163,0 -46.333495,-0.27465 -46.692174,-1.25 z m 152.495701,-35.48221 -4.25,-0.38279 0,-34.474613 c 0,-37.431215 -0.20892,-39.069764 -5.51368,-43.242484 -2.5262,-1.987113 -3.91229,-2.1679 -16.62118,-2.1679 l -13.86514,0 0,-5.5 0,-5.5 13.25,0.0056 c 15.68675,0.0066 19.53118,0.901017 24.97708,5.81097 7.74474,6.982557 7.72616,6.865234 7.75096,48.933453 0.0121,20.487494 -0.31554,37.171374 -0.72804,37.075284 -0.4125,-0.0961 -2.6625,-0.34696 -5,-0.5575 z M 42.457579,123.41787 c -1.61719,-1.18252 -1.702697,-1.6336 -0.568684,-3 1.19795,-1.44344 7.216574,-1.60821 58.743635,-1.60821 50.32248,0 57.48059,0.18673 57.98943,1.51273 0.31927,0.83201 0.025,2.18201 -0.65383,3 -1.79015,2.157 -112.566033,2.24857 -115.510551,0.0955 z M 41.978703,85.309663 c -0.993186,-1.196716 -0.993186,-1.803284 0,-3 1.08005,-1.301381 8.828237,-1.5 58.515457,-1.5 51.96789,0 57.32836,0.15062 57.8948,1.626748 1.67114,4.354904 1.42608,4.373252 -58.410257,4.373252 -49.229036,0 -56.920191,-0.198909 -58,-1.5 z M 59.633691,47.980922 c -1.379494,-1.524323 -1.654988,-4.237665 -1.654988,-16.3 0,-9.92209 0.377231,-14.84849 1.2,-15.671259 0.771987,-0.771987 4.784612,-1.205139 11.25,-1.214408 l 10.05,-0.01441 2.6931,-4.8842071 c 5.35155,-9.70556359 18.449377,-12.8981874 27.727037,-6.7585242 2.18312,1.4447197 5.16194,4.6618393 6.61961,7.1491543 l 2.65029,4.522395 9.70498,0 c 6.21498,0 10.13651,0.431531 10.90498,1.2 0.82852,0.828517 1.2,5.925515 1.2,16.464816 0,14.068421 -0.1516,15.34595 -1.93426,16.3 -1.23703,0.66204 -15.77985,1.035184 -40.345007,1.035184 -35.941723,0 -38.517137,-0.117551 -40.065742,-1.828741 z M 106.52415,26.355118 c 5.50577,-5.505766 1.4637,-15.545455 -6.25874,-15.545455 -2.469387,0 -4.265657,0.825099 -6.363627,2.923077 -3.72649,3.726484 -3.84084,7.832776 -0.33419,12.000198 3.40661,4.048524 9.249637,4.329108 12.956557,0.62218 z"
     id="path3338" />
</svg>
