<?xml version="1.0" encoding="UTF-8" standalone="no"?>
<svg
   xmlns:dc="http://purl.org/dc/elements/1.1/"
   xmlns:cc="http://creativecommons.org/ns#"
   xmlns:rdf="http://www.w3.org/1999/02/22-rdf-syntax-ns#"
   xmlns:svg="http://www.w3.org/2000/svg"
   xmlns="http://www.w3.org/2000/svg"
   id="svg2"
   version="1.1"
   width="431.82489"
   height="415.58435"
   viewBox="0 0 431.82489 415.58435">
  <metadata
     id="metadata8">
    <rdf:RDF>
      <cc:Work
         rdf:about="">
        <dc:format>image/svg+xml</dc:format>
        <dc:type
           rdf:resource="http://purl.org/dc/dcmitype/StillImage" />
        <dc:title></dc:title>
      </cc:Work>
    </rdf:RDF>
  </metadata>
  <defs
     id="defs6" />
  <path
     style="fill:#f39f18;fill-opacity:1"
     d="m 199.82644,414.0472 c -5.66576,-2.92253 -7.60372,-8.28339 -11.48005,-31.75654 -1.88887,-11.43809 -3.68723,-21.04946 -3.99637,-21.35859 -0.30913,-0.30913 -10.95204,0.88585 -23.65092,2.65552 l -23.08886,3.21757 -4.39358,-2.57481 c -7.53759,-4.41732 -10.409,-13.43201 -6.74074,-21.16229 3.00901,-6.34102 6.68325,-7.61189 34.35052,-11.88134 9.625,-1.48527 17.8688,-3.03429 18.31955,-3.44225 0.45076,-0.40797 -0.33674,-9.17287 -1.75,-19.47756 -1.41325,-10.30469 -2.56955,-21.59839 -2.56955,-25.09711 0,-5.93336 0.2348,-6.59612 3.49028,-9.85159 8.90614,-8.90615 22.00136,-6.38625 25.87385,4.97887 0.84853,2.49029 2.9821,13.50911 4.74127,24.48627 l 3.1985,19.95847 2.72947,0 c 1.50121,0 12.06734,-1.35089 23.48029,-3.00198 l 20.75082,-3.00197 4.07906,2.25197 c 5.74494,3.17168 8.65646,7.86889 8.65646,13.9656 0,7.81282 -3.67689,13.07105 -10.43487,14.92264 -2.23582,0.61259 -12.84013,2.52967 -23.56513,4.26018 l -19.5,3.14639 -0.25404,3.97858 c -0.13973,2.18823 1.03516,12.75359 2.61086,23.47859 2.82958,19.25961 2.84207,19.54551 1.01327,23.19207 -4.12236,8.2198 -14.32554,12.00495 -21.87009,8.11331 z M 54.326443,315.26023 C 28.82259,308.37436 10.073469,290.88131 2.8601305,267.24182 c -1.1747866,-3.85 -2.3996456,-11.28421 -2.7219089,-16.52047 -2.4978471,-40.586 29.1656664,-74.06088 70.0972334,-74.10727 9.680467,-0.011 14.545499,0.81727 23.997538,4.08546 3.248603,1.12325 6.496897,2.04228 7.218447,2.04228 0.72154,0 4.51474,-4.1625 8.42933,-9.25 25.89905,-33.65906 53.70547,-57.30101 84.44567,-71.79853 24.54251,-11.574603 60.32692,-21.403128 91.17705,-25.042637 9.2165,-1.087307 13.56946,-2.202612 12.29399,-3.149941 -2.28334,-1.695906 -17.68541,-15.306788 -22.2969,-19.703885 -7.04666,-6.719044 -8.67414,-9.600471 -8.67414,-15.357463 0,-8.34903 7.00317,-14.697543 16.21314,-14.697543 4.51066,0 5.34879,0.486516 17.01561,9.877242 16.07093,12.935638 40.36285,33.81392 49.64203,42.666054 6.93928,6.619917 7.4122,7.346322 7.86747,12.084397 0.33943,3.532538 -0.0136,6.004038 -1.17961,8.258909 -2.36184,4.567297 -42.00674,50.709667 -53.58179,62.363397 -9.62484,9.69027 -9.71416,9.74998 -14.58051,9.74626 -8.07359,-0.006 -14.43663,-5.44954 -15.99249,-13.68108 -0.99896,-5.28515 1.14057,-9.26103 11.73935,-21.81518 18.40244,-21.79751 19.8568,-23.59576 19.8568,-24.55192 0,-1.50868 -9.45683,-1.08792 -23.18848,1.03171 -44.2792,6.83497 -81.48987,21.55244 -105.81152,41.85031 -14.95651,12.48209 -31.27144,30.00219 -42.33082,45.45773 l -5.57267,7.78784 2.79304,4.73701 c 4.37511,7.4202 7.81551,16.98785 9.16275,25.48133 1.44372,9.1017 0.73936,23.92964 -1.47136,30.97443 -9.65637,30.77148 -36.84339,50.88293 -68.4909,50.66575 -5.27452,-0.0362 -11.840037,-0.6733 -14.590037,-1.41578 z m 31.826226,-34.35825 c 7.428511,-3.65704 15.125871,-11.37769 18.817051,-18.87398 2.02211,-4.10663 2.35672,-6.27698 2.35672,-15.28618 0,-9.51813 -0.26636,-11.04244 -2.84839,-16.30077 -3.63451,-7.40171 -10.956682,-14.72389 -18.354158,-18.35416 -5.253293,-2.57803 -6.782993,-2.84507 -16.297449,-2.84507 -9.594245,0 -11.016473,0.25358 -16.487237,2.93962 -7.633105,3.74771 -14.355008,10.47336 -18.072113,18.08219 -2.630806,5.3852 -2.921497,6.97011 -2.930574,15.97819 -0.0088,8.75103 0.3222,10.70881 2.650331,15.67515 4.693623,10.01237 13.729439,18.03949 24.125632,21.43241 2.600976,0.84886 7.335284,1.25771 12.368492,1.06813 6.780524,-0.25539 9.252648,-0.84774 14.671695,-3.51553 z M 339.0673,304.74722 c -1.79253,-1.09292 -4.18591,-3.45373 -5.31863,-5.24626 -2.63608,-4.17159 -2.17454,-10.63948 2.44466,-34.25914 1.82855,-9.35 2.9491,-17.42244 2.49012,-17.93875 -0.45898,-0.51631 -10.06077,-2.83993 -21.33733,-5.16361 -11.27655,-2.32368 -22.19411,-5.05124 -24.26125,-6.06125 -7.64396,-3.73488 -10.10792,-14.12164 -5.24635,-22.11585 4.68234,-7.6995 9.60254,-8.05239 37.9722,-2.72349 10.58108,1.98753 19.37529,3.47627 19.54269,3.30832 0.16741,-0.16795 2.15403,-9.53037 4.41472,-20.80537 2.32124,-11.57699 5.07837,-22.45141 6.33433,-24.98323 5.15542,-10.39259 18.97492,-11.28669 26.11945,-1.68989 3.0224,4.05981 2.7032,12.40453 -1.31945,34.49297 -1.8931,10.3951 -2.95559,18.66363 -2.45617,19.11457 0.48408,0.4371 7.40515,2.03691 15.38015,3.55515 18.49148,3.5203 28.76261,6.12487 31.67263,8.03158 3.04461,1.99491 6.32776,8.5806 6.32582,12.68901 -0.003,6.84096 -5.31037,13.2747 -12.12125,14.69435 -3.49354,0.72819 -18.16254,-1.1981 -36.8279,-4.83614 -11.88272,-2.31604 -11.39995,-2.5346 -13.10196,5.93163 -4.67354,23.24744 -8.08563,37.56212 -9.44965,39.64387 -4.08755,6.23839 -14.63054,8.40163 -21.25683,4.36153 z M 41.1544,137.85072 c -4.516167,-2.10144 -6.850361,-4.95683 -8.362674,-10.22995 -1.2268,-4.2776 0.09637,-8.93969 8.423322,-29.678846 3.467048,-8.635057 6.547088,-16.679208 6.844533,-17.875891 C 48.549445,78.095209 47.24922,77.308235 34.257167,71.711981 9.2201093,60.927408 5.6523678,58.875486 3.0118761,53.741821 -0.87113541,46.192439 1.0179325,38.67443 8.1326249,33.362545 13.038229,29.699982 18.506376,30.693916 39.43357,39.052055 c 10.39108,4.150107 19.764192,7.690575 20.829137,7.867707 1.586544,0.26389 2.791462,-1.574414 6.671147,-10.177941 C 79.852832,8.0928988 81.159324,5.5897029 84.538177,3.0125263 c 7.212882,-5.5015328 18.155193,-3.20111681 22.495693,4.7292951 3.13522,5.7282876 2.02241,11.2715576 -6.54027,32.5792296 -4.216935,10.493576 -7.667157,19.546553 -7.667157,20.117725 0,0.571172 7.759297,4.360519 17.242897,8.42077 25.36433,10.859339 30.14172,14.629328 30.14172,23.785798 0,5.762626 -3.10261,11.087086 -7.99827,13.726046 -5.10547,2.75205 -11.92048,1.35231 -31.38635,-6.446439 -9.624997,-3.856137 -18.427548,-7.278212 -19.561221,-7.604615 -2.388759,-0.687763 -2.345827,-0.765202 -12.153387,21.921484 -3.566514,8.25 -7.383199,16.47341 -8.481523,18.27424 -3.792035,6.2175 -12.470151,8.59453 -19.475909,5.33466 z"
     id="path3338" />
</svg>
