<?xml version="1.0" encoding="UTF-8" standalone="no"?>
<svg
   xmlns:dc="http://purl.org/dc/elements/1.1/"
   xmlns:cc="http://creativecommons.org/ns#"
   xmlns:rdf="http://www.w3.org/1999/02/22-rdf-syntax-ns#"
   xmlns:svg="http://www.w3.org/2000/svg"
   xmlns="http://www.w3.org/2000/svg"
   id="svg2"
   version="1.1"
   width="512"
   height="387.25241"
   viewBox="0 0 512 387.25241">
  <metadata
     id="metadata8">
    <rdf:RDF>
      <cc:Work
         rdf:about="">
        <dc:format>image/svg+xml</dc:format>
        <dc:type
           rdf:resource="http://purl.org/dc/dcmitype/StillImage" />
        <dc:title></dc:title>
      </cc:Work>
    </rdf:RDF>
  </metadata>
  <defs
     id="defs6" />
  <path
     style="fill:#f39f18;fill-opacity:1"
     d="m 212,386.95933 c -37.69728,-4.24788 -61.1533,-11.05455 -79.01571,-22.92945 -16.85198,-11.20318 -21.96263,-23.06015 -15.08136,-34.98956 1.58629,-2.75 4.05137,-6.08559 5.47796,-7.41242 l 2.5938,-2.41243 10.76265,5.07108 c 18.02419,8.49251 39.55996,14.26454 64.76266,17.35773 12.77622,1.56806 47.86977,1.56811 61.5,9e-5 24.58244,-2.82796 48.37744,-9.22447 65.82608,-17.69518 10.12761,-4.9166 9.87504,-4.92664 14.87423,0.59113 21.07979,23.26641 -13.72279,51.41511 -74.89672,60.5773 -9.72501,1.45654 -48.93881,2.72795 -56.80359,1.84171 z m -3.67133,-63.51212 c -40.18096,-3.58407 -75.54799,-17.29653 -88.2504,-34.21632 -7.99887,-10.6546 -7.35649,-19.46218 2.13925,-29.33106 l 3.98394,-4.14048 10.14927,4.80095 c 26.83812,12.69537 58.10303,18.88878 95.6554,18.94883 37.74744,0.0604 69.39559,-6.1555 96.70635,-18.99363 l 10.21248,-4.80064 3.49421,3.86767 c 10.54261,11.6694 10.06068,22.46861 -1.51102,33.85921 -22.55003,22.19715 -78.40332,34.8379 -132.57948,30.00547 z M 378,309.87122 c -2.475,-0.17583 -8.84871,-0.81808 -14.1638,-1.42723 l -9.6638,-1.10754 4.9193,-6.10479 c 6.36826,-7.90294 9.15769,-15.15973 9.29887,-24.19134 0.0602,-3.85 -0.20862,-8.125 -0.59735,-9.5 l -0.70678,-2.5 22.28236,0.34399 c 41.52883,0.64111 75.54364,-5.7398 102.34139,-19.19844 l 9.1688,-4.60485 3.68003,4.22965 c 7.44044,8.55169 9.1918,16.4815 5.37938,24.35689 -2.45959,5.08084 -12.44793,14.59422 -20.09533,19.13977 C 464.92046,304.12111 418.13807,312.7227 378,309.87122 Z M 85.5,284.40817 C 50.353066,279.99394 21.732059,268.67897 7.6901302,253.64699 -2.4568126,242.78462 -2.531256,233.27229 7.4409796,221.81067 l 3.6800274,-4.22965 8.689497,4.36362 C 40.776674,232.47325 68.297257,239.22642 98,241.13125 c 5.775,0.37035 11.03881,1.09934 11.69736,1.61997 0.87859,0.6946 -0.0311,2.45485 -3.41701,6.61182 C 98.533668,258.87387 96.5,264.369 96.5,275.79032 c 0,11.10649 1.217897,10.15234 -11,8.61785 z m 127.3694,-23.88202 c -37.72646,-2.76468 -70.57431,-13.65834 -87.10045,-28.88599 -9.38838,-8.65072 -12.70933,-15.89383 -10.70318,-23.34408 5.18035,-19.23838 36.50757,-35.13959 83.43423,-42.34993 13.50231,-2.07465 46.0234,-2.33229 62,-0.49119 34.71063,3.99997 63.8126,14.38998 78.81795,28.13966 14.28258,13.08739 14.33779,24.75342 0.17855,37.72779 -6.83965,6.2673 -21.22472,14.32594 -32.9965,18.48493 -24.35279,8.60389 -62.65532,12.98875 -93.6306,10.71881 z M 381,246.94644 c -13.75517,-1.17416 -27,-2.70568 -27,-3.12205 0,-0.26244 1.79527,-2.51671 3.98949,-5.00947 8.98725,-10.21006 12.71223,-24.08651 9.46906,-35.2746 -0.37872,-1.30649 3.0145,-1.50208 26.30332,-1.51609 20.52493,-0.0123 29.41041,-0.42761 38.23813,-1.78709 24.07566,-3.70767 47.93121,-10.78023 61.89161,-18.34926 l 6.3916,-3.46539 3.37446,3.27065 c 4.36383,4.22959 8.34233,12.2641 8.34233,16.84718 0,9.66977 -10.41823,21.25561 -26.72467,29.71981 -16.36375,8.49396 -34.34843,13.7386 -57.27533,16.70246 -11.7861,1.52364 -38.95619,2.67048 -47,1.98385 z M 83,220.91537 C 60.775103,217.91132 42.741881,212.57421 26.724668,204.26013 10.418232,195.79593 0,184.21009 0,174.54032 0,169.95724 3.9785034,161.92273 8.3423266,157.69314 l 3.3744594,-3.27065 6.391607,3.46539 c 19.372003,10.50309 51.202576,18.22043 83.230447,20.17927 l 11.83885,0.72407 -4.46296,4.62455 c -9.000014,9.32589 -13.399088,20.85127 -12.33375,32.31389 0.566278,6.09294 0.447829,6.79982 -1.123998,6.70781 C 94.290642,222.3809 88.775,221.69595 83,220.91537 Z M 365.04374,182.33372 C 355.33778,181.25604 352.4418,180.09915 345.5,174.5263 334.76936,165.91179 312.23272,156.26629 291.85505,151.56669 l -9.64496,-2.22437 -2.60504,-4.78633 c -4.6393,-8.52392 -3.18289,-16.4638 4.67826,-25.50429 l 3.46829,-3.98861 10.8742,5.19492 c 12.09455,5.77793 18.68766,8.11784 33.23576,11.7955 51.92694,13.12675 119.79637,7.77041 160.43368,-12.66164 l 7.96406,-4.00425 3.88749,3.79604 c 15.56595,15.19974 7.71631,32.319 -21.64679,47.20943 -14.91745,7.56484 -37.63621,13.58696 -60.71059,16.09271 -11.57479,1.25696 -44.85871,1.16776 -56.74567,-0.15208 z M 88.5,158.43394 C 66.063742,155.7379 43.165053,149.49669 28.784553,142.15805 0.18396327,127.56262 -7.5442486,110.21887 7.8532075,95.18366 l 3.8874915,-3.79604 7.964058,4.00425 C 36.032602,103.60135 58.105434,109.7968 83,113.1577 c 15.415398,2.08117 49.86066,2.36354 65.5,0.53696 24.69169,-2.88385 49.74343,-9.74073 67.0832,-18.36128 l 8.63527,-4.29306 3.48326,4 c 7.53966,8.65817 9.24223,16.85286 5.2254,25.15053 -5.91179,12.21213 -27.63957,25.10941 -53.59179,31.81127 -21.48951,5.54941 -31.10724,6.72517 -57.83534,7.07031 -13.75,0.17756 -28.6,-0.10976 -33,-0.63849 z m 286,-38.54302 c -1.65,-0.19235 -7.275,-0.83479 -12.5,-1.42764 -46.60727,-5.28827 -85,-26.13816 -85,-46.16084 0,-6.44625 1.93232,-10.70637 7.60894,-16.77513 C 297.28808,41.97229 324.03429,31.078489 357,26.042262 371.76835,23.786076 401.83387,22.994253 417.58033,24.446782 470.72054,29.34869 512,50.22269 512,72.19248 c 0,5.7808 -3.53162,11.72693 -11.1597,18.78936 -19.87746,18.40348 -62.37243,29.8853 -108.8403,29.40781 -7.975,-0.082 -15.85,-0.30637 -17.5,-0.49873 z M 93,95.52143 C 47.332769,90.75334 11.206906,75.05925 1.9682175,55.97467 -8.8618945,33.60264 26.965983,9.8999523 84.5,1.3740243 c 13.747537,-2.03723795 55.05498,-1.75217995 69.28998,0.478163 24.14481,3.783014 45.66726,10.5820067 59.55193,18.8125947 8.33955,4.943537 18.0832,14.255391 20.18832,19.293648 9.38307,22.45684 -25.43649,46.10252 -79.72664,54.14173 C 141.5314,95.91741 104.97636,96.77187 93,95.52143 Z"
     id="path3338" />
</svg>
