<?xml version="1.0" encoding="UTF-8" standalone="no"?>
<svg
   xmlns:dc="http://purl.org/dc/elements/1.1/"
   xmlns:cc="http://creativecommons.org/ns#"
   xmlns:rdf="http://www.w3.org/1999/02/22-rdf-syntax-ns#"
   xmlns:svg="http://www.w3.org/2000/svg"
   xmlns="http://www.w3.org/2000/svg"
   id="svg2"
   version="1.1"
   width="192"
   height="256"
   viewBox="0 0 192 256">
  <metadata
     id="metadata8">
    <rdf:RDF>
      <cc:Work
         rdf:about="">
        <dc:format>image/svg+xml</dc:format>
        <dc:type
           rdf:resource="http://purl.org/dc/dcmitype/StillImage" />
        <dc:title></dc:title>
      </cc:Work>
    </rdf:RDF>
  </metadata>
  <defs
     id="defs6" />
  <path
     style="fill:#f39f18;fill-opacity:1"
     d="M 0,128 0,0 64.25586,0 128.51172,0 160.25586,31.75577 192,63.511541 192,159.75577 192,256 96,256 0,256 0,128 Z m 182,26.5 0,-91.5 -26.5,0 -26.5,0 0,-26.5 0,-26.5 -59.5,0 -59.5,0 0,118 0,118 86,0 86,0 0,-91.5 z M 28,218 l 0,-5 38,0 38,0 0,5 0,5 -38,0 -38,0 0,-5 z m 0,-36 0,-5 19,0 19,0 0,5 0,5 -19,0 -19,0 0,-5 z m 0,-17.5 0,-4.5 67,0 67,0 0,4.5 0,4.5 -67,0 -67,0 0,-4.5 z m 0,-19 0,-4.5 67,0 67,0 0,4.5 0,4.5 -67,0 -67,0 0,-4.5 z m 0,-19 0,-4.5 67,0 67,0 0,4.5 0,4.5 -67,0 -67,0 0,-4.5 z m 0,-19.50709 0,-5.00709 66.75,0.25709 66.75,0.25709 0.30479,4.75 0.30479,4.75 -67.05479,0 L 28,112 28,106.99291 Z M 28,87.992912 28,82.985825 94.75,83.242912 161.5,83.5 161.80479,88.25 162.10958,93 95.05479,93 28,93 28,87.992912 Z M 28,57.5 28,53 61.5,53 95,53 95,57.5 95,62 61.5,62 28,62 28,57.5 Z m 0,-20 0,-4.5 33.5,0 33.5,0 0,4.5 0,4.5 -33.5,0 -33.5,0 0,-4.5 z M 168,53.262511 C 168,52.281933 139.74266,24 138.76293,24 138.34332,24 138,30.75 138,39 l 0,15 15,0 c 8.25,0 15,-0.33187 15,-0.737489 z"
     id="path3338" />
</svg>
