<?xml version="1.0" encoding="UTF-8" standalone="no"?>
<svg
   xmlns:dc="http://purl.org/dc/elements/1.1/"
   xmlns:cc="http://creativecommons.org/ns#"
   xmlns:rdf="http://www.w3.org/1999/02/22-rdf-syntax-ns#"
   xmlns:svg="http://www.w3.org/2000/svg"
   xmlns="http://www.w3.org/2000/svg"
   viewBox="0 0 221.07385 244.89629"
   height="244.89629"
   width="221.07385"
   version="1.1"
   id="svg2">
  <metadata
     id="metadata8">
    <rdf:RDF>
      <cc:Work
         rdf:about="">
        <dc:format>image/svg+xml</dc:format>
        <dc:type
           rdf:resource="http://purl.org/dc/dcmitype/StillImage" />
        <dc:title></dc:title>
      </cc:Work>
    </rdf:RDF>
  </metadata>
  <defs
     id="defs6" />
  <path
     id="path3338"
     d="m 106.17297,242.39855 c -2.86851,-3.64672 -3.52782,-8.42942 -2.47847,-17.97909 0.49828,-4.53462 0.55933,-8.03054 0.13568,-7.7687 -2.27816,1.40798 -4.077827,7.58843 -4.532704,15.5663 -0.312344,5.47804 -0.918945,8.78153 -1.612076,8.7792 -0.611212,-0.002 -2.585011,-0.90226 -4.38622,-2.00046 -6.301821,-3.84222 -6.959122,-11.52367 -1.828379,-21.3671 2.38613,-4.57783 2.886753,-6.19815 1.682686,-5.4462 -3.950446,2.46709 -8.94434,12.42034 -9.035488,18.00848 -0.06316,3.87224 -1.518225,4.25293 -6.216612,1.62644 -5.280817,-2.95207 -7.00738,-5.53693 -4.610259,-6.90206 2.688252,-1.53093 6.010206,-9.90725 5.419532,-13.66536 -0.454064,-2.88894 -0.249958,-3.25 1.837222,-3.25 1.291419,0 5.088128,-0.85281 8.43713,-1.89514 6.750942,-2.10113 7.911749,-1.54123 2.663931,1.2849 -4.121948,2.21982 -9.199365,7.31905 -8.241504,8.27691 0.378141,0.37814 1.920335,-0.45891 3.427098,-1.86012 5.168054,-4.806 7.968659,-6.07995 11.78994,-5.36308 l 3.559203,0.66771 -3.179887,3.62168 c -3.462884,3.94401 -5.929687,9.03389 -5.929687,12.23502 0,3.61158 1.796653,2.16042 3.436036,-2.7753 2.292494,-6.90206 6.321408,-11.27026 9.732618,-10.55224 2.57798,0.54263 2.69037,0.85556 3.30817,9.21069 0.93037,12.5824 1.0636,12.68739 1.90533,1.50162 0.74866,-9.94909 0.81589,-10.15836 3.44072,-10.71069 3.38351,-0.71198 7.30049,3.47877 9.83231,10.51952 1.80798,5.02781 3.34482,6.31726 3.34482,2.8064 0,-3.02007 -2.33619,-8.04006 -5.47289,-11.76011 -1.52679,-1.81073 -2.60748,-3.43728 -2.40154,-3.61455 2.82426,-2.43113 4.84854,-2.42307 8.51743,0.0339 2.12135,1.42062 4.86773,3.51245 6.10306,4.64853 1.23533,1.13607 2.55252,1.75912 2.92709,1.38455 0.95245,-0.95245 -4.13865,-6.05739 -8.24799,-8.27042 -5.24782,-2.82613 -4.08701,-3.38603 2.66393,-1.2849 3.34901,1.04233 7.14571,1.89514 8.43713,1.89514 2.08718,0 2.29129,0.36106 1.83723,3.25 -0.59068,3.75811 2.73128,12.13443 5.41953,13.66536 2.35265,1.33981 0.70054,3.91226 -4.37886,6.81819 -5.46791,3.12819 -6.40244,2.91204 -6.41389,-1.48355 -0.012,-4.61701 -3.79959,-12.89677 -7.42982,-16.24189 l -2.70428,-2.49189 3.07115,6.49189 c 4.70347,9.94236 3.95245,17.26559 -2.15235,20.98769 -1.80121,1.0982 -3.77501,1.99841 -4.38622,2.00046 -0.69313,0.002 -1.29974,-3.30116 -1.61208,-8.7792 -0.45388,-7.96035 -2.2537,-14.15641 -4.51952,-15.55886 -0.41641,-0.25774 -0.52003,2.97623 -0.23027,7.18659 0.74906,10.88408 -0.20516,17.07143 -2.97919,19.31771 -3.12774,2.53269 -5.53786,2.30106 -7.94879,-0.76395 z M 64.074106,212.5 c 0,-0.825 0.45,-1.5 1,-1.5 0.55,0 1,0.675 1,1.5 0,0.825 -0.45,1.5 -1,1.5 -0.55,0 -1,-0.675 -1,-1.5 z m 107.389534,0.0727 c -0.81833,-2.13255 -0.0537,-5.86206 1.29277,-6.30517 1.64534,-0.54148 3.55951,3.39519 2.80571,5.77021 -0.72362,2.27995 -3.29983,2.61621 -4.09848,0.53496 z m -5.29129,-0.95435 c -0.86228,-1.03899 -0.66103,-1.9207 0.85343,-3.73899 l 1.98179,-2.37939 0.0333,3.19098 c 0.038,3.64231 -1.21442,4.92043 -2.86849,2.9274 z m 11.85929,-0.69773 c -0.76605,-1.43138 -0.81131,-2.46687 -0.1373,-3.14088 1.36157,-1.36154 3.17977,-0.092 3.17977,2.22026 0,2.81809 -1.74448,3.34597 -3.04247,0.92065 z m -116.957534,0.26084 c 0,-1.20855 1.8972,-2.61759 2.590697,-1.9241 0.251699,0.2517 -0.22824,1.02686 -1.066531,1.72258 -0.950384,0.78875 -1.524166,0.86462 -1.524166,0.20152 z m -7,-3.18146 c 0,-1.1 0.45,-2 1,-2 0.55,0 1,0.9 1,2 0,1.1 -0.45,2 -1,2 -0.55,0 -1,-0.9 -1,-2 z m 3.758624,-0.72482 C 57.571059,205.74883 56.996263,203.6 56.555406,202.5 c -0.707507,-1.76533 -0.48943,-1.71554 1.858571,0.42431 2.978905,2.71484 3.314892,4.2874 1.277324,5.97843 -1.110597,0.92171 -1.47646,0.60132 -1.858571,-1.62756 z m 46.53974,0.50201 C 103.48789,206.79974 102.42211,206 102.00407,206 c -0.41803,0 -1.86148,-0.98106 -3.207661,-2.18013 l -2.447599,-2.18014 2.966098,-2.49581 c 2.563432,-2.15698 3.242362,-2.32327 5.001052,-1.22495 1.62958,1.01768 2.49862,1.0227 4.36246,0.0252 1.87277,-1.00227 2.6339,-0.99136 3.89569,0.0558 1.28185,1.06384 2.00779,1.0662 3.97591,0.0129 2.133,-1.14154 2.74103,-1.00813 5.32856,1.16913 l 2.92083,2.45771 -2.4476,2.18014 C 121.00563,205.01894 119.64037,206 119.3179,206 c -0.32247,0 -1.4279,0.76163 -2.45651,1.69251 -2.6146,2.36618 -10.37657,2.4188 -12.48892,0.0847 z m -57.298364,-0.0547 c 0,-1.68907 2.859322,-5.72251 4.056704,-5.72251 1.064503,0 1.252599,3.0304 0.336307,5.41821 -0.722898,1.88384 -4.393011,2.13806 -4.393011,0.3043 z M 161.4791,205.86198 c -2.81334,-3.15747 -7.15802,-4.66558 -15.66072,-5.43608 l -7.59265,-0.68802 -0.64814,-5.11894 c -0.35648,-2.81542 -0.88318,-5.94506 -1.17044,-6.95477 -0.44755,-1.5731 -0.23195,-1.68043 1.50659,-0.75 3.21327,1.71969 4.16037,1.29799 4.16037,-1.85243 0,-2.58436 0.33124,-2.91559 2.75,-2.75 2.4974,0.17097 2.79738,-0.17916 3.26582,-3.81174 0.48554,-3.76513 0.58829,-3.87175 1.75,-1.81574 0.6788,1.20134 1.23418,3.05315 1.23418,4.11514 0,1.06199 0.93362,3.11779 2.07471,4.56846 2.26877,2.88426 1.877,3.30602 -3.56616,3.83914 -1.83202,0.17944 -3.11294,0.93419 -3.3049,1.94733 -0.32868,1.73472 3.01737,3.20947 9.79635,4.31766 3.25266,0.53173 3.67449,0.28591 5.96905,-3.47843 2.66163,-4.36654 6.49213,-7.4446 8.0592,-6.4761 0.53446,0.33031 0.97175,2.82402 0.97175,5.54156 0,4.53437 -0.19545,4.94098 -2.375,4.94098 -4.38206,0 -8.625,1.2387 -8.625,2.51801 0,1.98455 2.4351,2.47448 12.83179,2.58167 5.31751,0.0548 10.659,0.39232 11.86997,0.75 2.16181,0.63852 2.16848,0.69423 0.36764,3.07009 l -1.83411,2.41976 -3.82693,-1.81599 c -4.89521,-2.32293 -9.02026,-2.18659 -12.53832,0.41442 -3.41028,2.52133 -3.14758,2.52499 -5.46505,-0.076 z M 42.480348,201.8483 c -0.391486,-0.63344 0.117965,-1.75844 1.132112,-2.5 2.187963,-1.59988 2.506402,-1.62229 4.461646,-0.31398 1.29833,0.86874 1.239021,1.2028 -0.44113,2.48468 -2.327981,1.77615 -4.185073,1.89483 -5.152628,0.3293 z m 15.093758,-2.48393 c -2.517603,-2.26576 -3.05199,-2.43173 -3.323324,-1.03214 -0.685679,3.53686 -3.176676,0.85975 -3.176676,-3.41402 0,-2.35053 2.2372,-2.46412 5.566568,-0.28264 2.914602,1.90972 9.931918,1.43647 15.94325,-1.07523 3.148025,-1.31532 3.539305,-1.79622 2.490099,-3.06044 C 74.38938,189.67496 72.309317,189 70.451661,189 c -3.687756,0 -4.225751,-1.29449 -1.845752,-4.44113 0.807509,-1.06762 1.468197,-2.7847 1.468197,-3.81574 0,-1.03104 0.55538,-2.85753 1.234178,-4.05887 1.161711,-2.05601 1.264466,-1.94939 1.75,1.81574 0.468441,3.63258 0.768426,3.98271 3.265822,3.81174 2.418764,-0.16559 2.75,0.16564 2.75,2.75 0,3.19871 2.444503,4.03882 4.912395,1.68826 1.066715,-1.016 1.211295,-0.8756 0.772334,0.75 -0.297033,1.1 -0.831382,4.30102 -1.187442,7.11338 l -0.647381,5.11337 -6.674953,0.62093 c -3.671224,0.34151 -8.699953,0.86745 -11.174953,1.16876 -3.900673,0.47488 -4.899552,0.18825 -7.5,-2.15207 z M 161.57411,199 c -0.33992,-0.55 0.11008,-1 1,-1 0.88992,0 1.33992,0.45 1,1 -0.33992,0.55 -0.78992,1 -1,1 -0.21008,0 -0.66008,-0.45 -1,-1 z m 5,0 c -0.33992,-0.55 0.11008,-1 1,-1 0.88992,0 1.33992,0.45 1,1 -0.33992,0.55 -0.78992,1 -1,1 -0.21008,0 -0.66008,-0.45 -1,-1 z m 6,0 c -0.33992,-0.55 0.11008,-1 1,-1 0.88992,0 1.33992,0.45 1,1 -0.33992,0.55 -0.78992,1 -1,1 -0.21008,0 -0.66008,-0.45 -1,-1 z m 6,0 c -0.33992,-0.55 -0.14148,-1 0.44098,-1 0.58246,0 1.05902,0.45 1.05902,1 0,0.55 -0.19844,1 -0.44098,1 -0.24254,0 -0.7191,-0.45 -1.05902,-1 z m 5,0 c -0.33992,-0.55 0.11008,-1 1,-1 0.88992,0 1.33992,0.45 1,1 -0.33992,0.55 -0.78992,1 -1,1 -0.21008,0 -0.66008,-0.45 -1,-1 z m -78.76269,-3.69127 c -1.37163,-1.37162 -2.11118,-1.45942 -4.21581,-0.50048 -2.423646,1.10429 -2.520528,1.03604 -1.92091,-1.35303 0.615702,-2.45315 0.528703,-2.49953 -3.484563,-1.85778 l -4.116031,0.65818 0,-3.57812 c 0,-2.3668 0.592435,-3.91071 1.75,-4.56056 3.317372,-1.86235 -1.240293,-2.4168 -6.703067,-0.81543 l -5.046933,1.47946 0,-3.01548 c 0,-2.81721 -0.197261,-2.97604 -3,-2.41549 -2.913202,0.58264 -3,0.48981 -3,-3.20833 0,-4.73132 -0.689404,-5.47263 -3.353868,-3.60636 C 70.570109,173.34089 68.75078,174 67.677286,174 c -1.924518,0 -1.923988,-0.0315 0.03789,-2.25 1.094333,-1.2375 2.782776,-3.52509 3.752095,-5.08353 0.96932,-1.55843 3.414898,-3.51575 5.434618,-4.34958 2.01972,-0.83383 4.459719,-2.21599 5.422219,-3.07146 1.642432,-1.4598 1.751466,-1.22318 1.773857,3.84958 0.02979,6.75014 1.41986,12.93657 3.153825,14.03597 0.727275,0.46111 3.572318,0.84779 6.322318,0.85928 6.224482,0.026 11.631712,1.48358 14.669982,3.95444 2.09109,1.70058 2.50268,1.73954 4.01382,0.38001 2.70997,-2.43808 8.89818,-4.23242 14.8162,-4.29613 3.025,-0.0326 6.1129,-0.44752 6.86201,-0.92214 1.61625,-1.02401 3.0337,-7.67118 3.09444,-14.51143 0.0408,-4.59603 0.15378,-4.80701 1.79355,-3.34958 0.9625,0.85547 3.35361,2.2172 5.31357,3.02606 4.32933,1.78669 12.09161,11.72851 9.15727,11.72851 -0.9767,0 -2.71684,-0.65911 -3.86697,-1.46469 -2.66447,-1.86627 -3.35387,-1.12496 -3.35387,3.60636 0,3.69814 -0.0868,3.79097 -3,3.20833 -2.80581,-0.56116 -3,-0.40367 -3,2.43306 l 0,3.03306 -4.88076,-1.5608 c -5.23574,-1.67432 -10.26318,-1.04372 -6.86924,0.86162 1.15756,0.64985 1.75,2.19376 1.75,4.56056 l 0,3.57812 -4.11603,-0.65818 c -4.01327,-0.64175 -4.10027,-0.59537 -3.48456,1.85778 0.59734,2.38 0.49574,2.45413 -1.87991,1.37171 -2.0514,-0.93468 -2.8487,-0.83898 -4.35312,0.5225 -1.7258,1.56182 -1.95705,1.53935 -3.6731,-0.35685 l -1.83134,-2.02362 -2.13061,2.0016 c -1.9869,1.8666 -2.24279,1.88941 -3.79402,0.33817 z m 71.26269,-4.24971 c 0,-2.71754 0.43178,-5.20784 0.9595,-5.53399 1.40694,-0.86954 9.0405,6.38475 9.0405,8.59133 0,1.5937 -0.76963,1.88364 -5,1.88364 l -5,0 0,-4.94098 z M 37.227619,188.25 c -11.506045,-11.36562 -14.10642,-17.76565 -3.4398,-8.46602 8.861231,7.72562 13.585774,12.92242 12.842075,14.12575 -1.205357,1.95031 -2.46712,1.19079 -9.402275,-5.65973 z M 172.57411,193 c -0.33992,-0.55 0.11008,-1 1,-1 0.88992,0 1.33992,0.45 1,1 -0.33992,0.55 -0.78992,1 -1,1 -0.21008,0 -0.66008,-0.45 -1,-1 z m 0,-5 c -0.33992,-0.55 0.11008,-1 1,-1 0.88992,0 1.33992,0.45 1,1 -0.33992,0.55 -0.78992,1 -1,1 -0.21008,0 -0.66008,-0.45 -1,-1 z m -0.5,-6.13976 c 0,-0.62686 -0.77892,-1.70931 -1.73092,-2.40544 -1.60731,-1.17529 -1.54703,-1.44958 0.84406,-3.84067 l 2.575,-2.57499 2.33024,2.48043 2.33025,2.48043 -2.34863,2.5 c -2.52452,2.68722 -4,3.18898 -4,1.36024 z m -64.3603,-3.30401 c -1.02317,-0.79091 -5.35823,-1.74315 -9.633471,-2.11609 -4.275239,-0.37293 -8.388103,-1.05756 -9.139697,-1.52139 -1.083138,-0.66844 -1.428519,-6.03575 -1.665418,-25.88104 L 86.976341,124 l 23.548889,0 23.54888,0 0,23.4349 c 0,12.8892 -0.43886,24.5892 -0.97525,26 -0.88835,2.33655 -1.48977,2.56901 -6.75,2.60899 -3.17611,0.0241 -7.57475,0.72872 -9.77475,1.56573 -6.32892,2.40789 -6.89209,2.46806 -8.8603,0.94661 z M 107.07411,171.5 c 0.99844,-1.20305 0.97319,-1.82937 -0.12756,-3.16372 -1.25091,-1.51639 -1.16261,-1.55189 0.99711,-0.40083 1.30326,0.69458 2.59324,2.11826 2.86663,3.16372 0.52265,1.99859 3.72567,2.52803 6.1191,1.01143 0.77429,-0.49062 2.77285,-0.42371 4.66198,0.15608 5.17479,1.58819 6.49362,0.6083 5.31714,-3.9506 -0.54163,-2.09885 -0.98045,-4.58314 -0.97516,-5.52065 0.005,-0.97348 -2.1261,-3.01869 -4.96989,-4.7685 -4.64327,-2.85703 -4.89797,-2.91074 -3.77185,-0.79543 0.66422,1.24768 2.11504,3.50047 3.22405,5.0062 1.10901,1.50574 1.7718,2.98228 1.47287,3.28121 -0.29893,0.29893 -1.35598,-0.69649 -2.349,-2.21203 -4.07249,-6.21541 -7.46542,-7.88629 -7.46542,-3.67643 0,0.83182 -0.70714,2.21955 -1.57143,3.08384 -1.42857,1.42857 -1.71742,1.42543 -3.17734,-0.0345 -1.3088,-1.3088 -1.39326,-2.07266 -0.45652,-4.12859 1.43874,-3.15768 6.1957,-5.15524 12.13655,-5.09643 4.22762,0.0418 4.59237,0.25055 4.88516,2.79522 0.17403,1.5125 0.79541,2.75 1.38084,2.75 1.66404,0 0.10595,-7.30512 -1.86556,-8.74672 -1.85484,-1.35629 -1.42697,-1.61081 1.08651,-0.64629 0.86999,0.33384 1.58179,1.45884 1.58179,2.5 0,1.04115 0.45,1.89301 1,1.89301 1.64711,0 1.13579,-2.55765 -1.07258,-5.36514 -2.39125,-3.03998 -3.58812,-3.25189 -6.00632,-1.06346 -1.58497,1.43438 -2.11503,1.38565 -6.07874,-0.55882 -2.3883,-1.17163 -3.21736,-1.84243 -1.84236,-1.49067 7.35807,1.88236 7.3718,1.8821 6.55028,-0.12403 -1.64277,-4.01162 -1.88526,-5.72294 -0.7078,-4.99523 0.63663,0.39346 1.15752,1.36383 1.15752,2.15637 0,0.79254 0.39541,1.44098 0.87868,1.44098 1.30266,0 3.43878,-5.73032 2.77802,-7.45224 -0.91781,-2.39176 -5.54917,-3.04249 -8.64374,-1.21448 -3.19481,1.88721 -4.01296,1.37753 -4.01296,-2.49995 0,-3.19562 -0.75557,-3.48545 -3.55887,-1.36513 -2.39891,1.81444 -4.43068,1.94245 -4.47293,0.2818 -0.0175,-0.6875 -0.75303,-2.15 -1.63454,-3.25 -1.2013,-1.49907 -1.458487,-1.57947 -1.026832,-0.32101 0.316744,0.92344 0.877602,3.39844 1.246342,5.5 0.60556,3.45121 0.5321,3.64091 -0.759094,1.96004 -1.362591,-1.77382 -1.557078,-1.7094 -4.152908,1.37557 -2.751348,3.26979 -2.911446,5.28452 -0.244012,3.07075 1.187989,-0.98594 1.357272,-0.8623 0.950271,0.69407 -0.334058,1.27744 0.352785,2.44936 2.11054,3.60108 3.185593,2.08728 2.354043,3.95676 -1.39383,3.13359 -4.08105,-0.89635 -5.466555,1.27774 -4.084694,6.40958 0.603703,2.24199 1.514464,4.07634 2.023913,4.07634 1.502984,0 3.044772,-3.71099 2.323115,-5.5916 -0.476913,-1.24282 -0.306422,-1.51404 0.599705,-0.95402 0.834263,0.5156 1.043433,1.8505 0.613305,3.91404 -0.359014,1.72237 -0.902883,4.93158 -1.208598,7.13158 -0.305715,2.2 -0.951326,4.4914 -1.43469,5.09201 C 94.919726,168.8974 95.821985,170 97.940773,170 c 1.045572,0 1.207792,-0.32554 0.509957,-1.02338 -1.498376,-1.49837 -0.464806,-6.58684 1.74394,-8.58572 1.81321,-1.64094 1.97858,-1.63757 3.22399,0.0656 1.12881,1.54374 0.98647,2.12155 -1.01591,4.12393 -1.28075,1.28075 -2.32864,3.1591 -2.32864,4.1741 0,3.86871 4.57771,5.66413 7,2.74545 z m -4.5,-2.5 c -0.33992,-0.55 -0.14148,-1 0.44098,-1 0.58246,0 1.05902,0.45 1.05902,1 0,0.55 -0.19844,1 -0.44098,1 -0.24254,0 -0.7191,-0.45 -1.05902,-1 z m -79.833337,4.33333 c -1.284705,-1.2847 -0.670218,-3.27192 0.833333,-2.69496 0.825,0.31659 1.5,1.20246 1.5,1.96862 0,1.47024 -1.212118,1.84756 -2.333333,0.72634 z M 12.574106,170 c -0.339919,-0.55 -1.851476,-1 -3.3590171,-1 -2.9968385,0 -5.140983,-1.59529 -5.140983,-3.825 0,-1.04585 0.7878865,-1.26742 2.9612265,-0.83275 3.7491816,0.74983 5.0005856,-1.02607 1.626877,-2.30875 -2.9977705,-1.13975 -4.6066305,-5.77456 -2.4734506,-7.12552 2.2781519,-1.44278 3.8545232,-1.04428 6.2977672,1.59202 3.065574,3.30781 3.58758,3.16231 3.58758,-1 0,-1.925 0.438444,-3.5 0.97432,-3.5 1.174018,0 4.02568,5.27758 4.02568,7.45034 0,0.85231 0.45,1.54966 1,1.54966 0.55,0 1,0.45 1,1 0,0.55 -0.648442,1 -1.440983,1 -0.792541,0 -1.725989,0.46115 -2.07433,1.02478 -0.34834,0.56362 -0.09365,0.90112 0.565983,0.75 2.155527,-0.49385 2.12237,2.05218 -0.05508,4.22963 -1.694597,1.6946 -2.422043,1.88655 -3.5625,0.94006 -1.019873,-0.84642 -1.43309,-0.86571 -1.43309,-0.0669 0,1.39219 -1.664853,1.47374 -2.5,0.12244 z m 4.323907,-6.33589 c 0.393221,-2.02757 -2.531705,-3.35631 -4.048743,-1.83927 -0.787201,0.7872 -0.726777,1.52854 0.217303,2.66608 1.561588,1.8816 3.382379,1.48868 3.83144,-0.82681 z M 14.074106,163 c 0,-0.55 0.45,-1 1,-1 0.55,0 1,0.45 1,1 0,0.55 -0.45,1 -1,1 -0.55,0 -1,-0.45 -1,-1 z m -3,-3.94098 c 0,-1.17986 -1.9503545,-2.442 -2.6666668,-1.72569 C 7.691127,158.04965 8.9532625,160 10.133123,160 c 0.517541,0 0.940983,-0.42344 0.940983,-0.94098 z m 38.071053,0.84362 c -2.428716,-0.97049 -2.428479,-0.97106 2.5,-5.9884 4.783107,-4.86936 4.938309,-4.94232 5.245369,-2.46603 0.368234,2.96963 0.937755,3.1127 3.961072,0.99509 1.741627,-1.21989 2.222506,-1.26803 2.222506,-0.22251 0,2.3916 -3.188489,5.96002 -6.598574,7.38484 -3.824746,1.59808 -4.051383,1.60727 -7.330373,0.29701 z m 16.964131,-0.8369 C 64.790376,156.60133 64.769487,153 66.074106,153 c 0.55,0 1,0.675 1,1.5 0,1.99261 0.989581,1.89651 2.557996,-0.24843 1.915613,-2.61975 2.523488,-1.12703 1.241742,3.04928 -1.24584,4.05932 -3.157617,4.76748 -4.764554,1.76489 z m 84.16508,-1.76489 c -1.28174,-4.17631 -0.67387,-5.66903 1.24174,-3.04928 1.56842,2.14494 2.558,2.24104 2.558,0.24843 0,-0.825 0.45,-1.5 1,-1.5 1.30462,0 1.28373,3.60133 -0.0352,6.06574 -1.60694,3.00259 -3.51872,2.29443 -4.76456,-1.76489 z m 14.18786,2.71908 c -2.50672,-1.01283 -6.38812,-5.69831 -6.38812,-7.71149 0,-1.18868 0.36447,-1.16656 2.22251,0.13486 2.94287,2.06127 3.77749,1.96332 3.77749,-0.4433 0,-2.96268 1.35196,-2.45971 5.38364,2.00288 4.22171,4.67293 4.41017,5.55112 1.36636,6.36683 -2.83396,0.75948 -3.73977,0.70967 -6.36188,-0.34978 z M 33.539388,155.04848 c -2.144222,-0.86914 -5.02519,-3.8297 -4.357783,-4.47818 C 29.678634,150.08737 45.313507,142 45.750103,142 c 1.106173,0 0.04939,4.16815 -1.175997,4.63837 -0.825,0.31659 -1.5,0.97746 -1.5,1.46862 0,1.43654 3.36139,1.02861 5.842161,-0.70899 1.257946,-0.8811 2.559848,-1.32932 2.893116,-0.99606 1.031192,1.0312 -4.027494,5.766 -8.235277,7.70802 -4.320845,1.9942 -6.847329,2.23049 -10.034718,0.93852 z m 49.142115,-0.85541 c -1.193015,-3.53613 -6.608291,-5.73701 -10.649569,-4.32821 -2.472642,0.86196 -3.600431,0.84672 -4.697187,-0.0635 -0.793809,-0.6588 -2.864693,-1.10625 -4.601965,-0.99433 -2.557369,0.16475 -3.475821,-0.35616 -4.824646,-2.73639 -1.310657,-2.31287 -2.475255,-3.00714 -5.460506,-3.25526 -3.104599,-0.25803 -3.899875,-0.76993 -4.373878,-2.81537 -0.491061,-2.11905 -1.232699,-2.54743 -4.867037,-2.81129 l -4.287696,-0.31128 0.665069,-3.93651 c 0.727992,-4.30895 0.702525,-4.33247 -5.881771,-5.43117 l -3.871789,-0.64607 2.621789,-2.73656 c 1.441984,-1.50512 2.621789,-3.25339 2.621789,-3.88505 0,-0.63167 -2.080665,-2.06887 -4.6237,-3.19377 -4.009683,-1.77368 -4.450743,-2.25369 -3.321292,-3.61459 0.716324,-0.86312 2.851551,-2.36406 4.744948,-3.33543 l 3.442541,-1.76613 -4.450971,-2.60845 c -5.903157,-3.45948 -7.671514,-5.55432 -5.727224,-6.784613 0.789634,-0.499659 3.09664,-0.915362 5.126681,-0.923784 4.834513,-0.02006 5.430922,-1.272981 2.705271,-5.683178 -1.663742,-2.691991 -2.361884,-5.662192 -2.698774,-11.481763 -0.249948,-4.317704 -0.05913,-7.844802 0.424035,-7.837993 0.483167,0.0068 1.853421,1.469308 3.045009,3.25 1.191589,1.780691 3.378193,4.893124 4.859121,6.916517 2.673603,3.652946 5.750443,14.796684 4.583478,16.600498 -0.335018,0.517846 -2.124809,1.718386 -3.977314,2.667876 l -3.368191,1.72633 3.555746,3.6632 3.555747,3.6632 -3.06775,3.41149 -3.067749,3.41149 3.747849,1.92276 c 3.735708,1.91653 3.745736,1.93868 3.095751,6.83851 L 43.00522,132 l 4.534443,0 4.534443,0 0,4.59384 0,4.59384 4.75,-0.63489 c 4.546513,-0.6077 4.824826,-0.50139 6.496655,2.48137 l 1.746655,3.11626 2.638204,-2.07521 c 3.345606,-2.63165 8.358806,-2.65726 11.661236,-0.0596 2.735815,2.15199 5.104453,7.82947 4.474985,10.72627 -0.315874,1.45364 -0.516807,1.3586 -1.160338,-0.54884 z m 54.432647,0.0248 c -0.061,-3.47615 2.47508,-8.76485 5.07683,-10.58719 3.19172,-2.23556 8.08632,-2.0453 11.24206,0.437 l 2.62864,2.06769 2.07497,-3.5168 c 1.84784,-3.13187 2.3482,-3.41291 4.57131,-2.56769 5.22549,1.98674 6.36615,1.35051 6.36615,-3.55088 l 0,-4.5 4.53444,0 4.53445,0 -0.6521,-4.91575 c -0.64999,-4.89983 -0.63996,-4.92198 3.09575,-6.83851 l 3.74785,-1.92276 -3.06775,-3.41149 -3.06775,-3.41149 3.55575,-3.6632 3.55574,-3.6632 -3.36819,-1.72633 c -1.8525,-0.94949 -3.6423,-2.15003 -3.97731,-2.667876 -1.16697,-1.803814 1.90987,-12.947552 4.58348,-16.600498 1.48092,-2.023393 3.66753,-5.135826 4.85912,-6.916517 1.19158,-1.780692 2.56184,-3.243192 3.04501,-3.25 0.48316,-0.0068 0.67398,3.520289 0.42403,7.837993 -0.33689,5.819571 -1.03503,8.789772 -2.69877,11.481763 -2.72566,4.410197 -2.12925,5.663121 2.70527,5.683178 2.03004,0.0084 4.33704,0.424125 5.12668,0.923784 1.94125,1.228373 0.17743,3.324253 -5.69266,6.764363 l -4.41641,2.58818 4.58669,2.52234 c 2.52267,1.38729 4.58668,2.91266 4.58668,3.38972 0,0.47705 -2.025,1.73539 -4.5,2.7963 -2.475,1.06091 -4.5,2.36039 -4.5,2.88774 0,0.52734 1.14473,2.31924 2.54384,3.982 l 2.54385,3.02318 -3.79385,0.63145 c -6.49484,1.08101 -6.53066,1.11444 -5.80382,5.41655 l 0.66507,3.93651 -4.2877,0.31128 c -3.63434,0.26386 -4.37598,0.69224 -4.86704,2.81129 -0.474,2.04544 -1.26927,2.55734 -4.37387,2.81537 -2.98525,0.24812 -4.14985,0.94239 -5.46051,3.25526 -1.34882,2.38023 -2.26728,2.90114 -4.82465,2.73639 -1.73727,-0.11192 -3.80815,0.33553 -4.60196,0.99433 -1.08592,0.90123 -2.2304,0.92343 -4.62212,0.0897 -4.05302,-1.41289 -8.60964,0.30247 -10.6176,3.99703 -1.38636,2.55085 -1.4205,2.55857 -1.4596,0.32983 z m 40.35222,-0.20332 c -4.43258,-2.2475 -9.11081,-6.62934 -8.12754,-7.61262 0.33327,-0.33326 1.63517,0.11496 2.89312,0.99606 2.48077,1.7376 5.84216,2.14553 5.84216,0.70899 0,-0.49116 -0.675,-1.15203 -1.5,-1.46862 -0.825,-0.31658 -1.5,-1.74537 -1.5,-3.17508 l 0,-2.59948 2.89282,2.05987 c 1.59105,1.13293 5.62374,3.35139 8.96153,4.92992 l 6.06872,2.87005 -2.31814,2.17777 c -3.39805,3.19231 -8.29794,3.60511 -13.21267,1.11314 z M 21.574106,145.19099 c -3.794114,-2.4088 -6.880291,-5.8447 -5.815143,-6.47412 0.448329,-0.26492 2.390143,-0.78931 4.315143,-1.16531 1.925,-0.376 6.364692,-1.57672 9.865982,-2.66828 3.501291,-1.09156 6.57525,-1.77538 6.831021,-1.51961 1.025957,1.02596 -1.801357,4.43691 -4.658786,5.6205 -4.045716,1.67579 -3.909966,3.3898 0.211783,2.67402 1.7875,-0.31041 5.05,-0.81156 7.25,-1.11365 3.922068,-0.53856 3.879881,-0.48981 -2.165314,2.50223 -8.151524,4.03455 -12.029982,4.55974 -15.834686,2.14422 z m 167.500004,0.3847 c -1.925,-0.73509 -4.9625,-1.88436 -6.75,-2.55393 -3.96249,-1.4843 -4.32286,-3.45141 -0.5,-2.72932 1.5125,0.28569 4.4375,0.84564 6.5,1.24434 4.79536,0.92698 4.79955,-0.47195 0.009,-3.03678 -4.36819,-2.33875 -6.00175,-6.25931 -2.10997,-5.06395 1.29298,0.39714 5.72587,1.61496 9.85087,2.70628 11.1897,2.96036 10.62092,2.56589 7.8998,5.47878 -2.83687,3.03679 -7.08289,5.39639 -9.60014,5.335 -0.98981,-0.0241 -3.37466,-0.64533 -5.29966,-1.38042 z M 79.675431,141.83047 c -4.458366,-3.23681 -6.461714,-3.47115 -10.743915,-1.25673 -1.673799,0.86555 -3.135336,1.42805 -3.247859,1.25 -0.112524,-0.17806 -0.756994,-1.60719 -1.432156,-3.17585 -1.243104,-2.88821 -2.375093,-3.0442 -7.584494,-1.04517 -1.27398,0.48888 -1.592901,-0.10387 -1.592901,-2.96055 0,-3.76914 -1.950404,-5.64217 -5.875242,-5.64217 -2.903064,0 -3.420232,-1.52794 -1.665625,-4.92097 1.865449,-3.60738 1.897805,-4.06615 0.290867,-4.12413 -0.6875,-0.0248 -2.544263,-0.59783 -4.126141,-1.27337 l -2.87614,-1.22826 2.823576,-3.35563 2.823577,-3.35563 -3.219529,-2.87665 -3.219528,-2.87665 3.596483,-1.71504 c 3.069732,-1.46385 3.511655,-2.08549 3.017311,-4.244357 C 46.32517,97.638191 45.800478,94.025 45.477732,91 l -0.586811,-5.5 1.948024,3.03809 c 1.071413,1.670949 5.422154,6.207931 9.668313,10.082182 l 7.72029,7.044088 -1.690952,5.81667 c -1.52902,5.25965 -1.545094,6.12254 -0.167857,9.01063 C 64.259725,124.4571 69.380616,127 75.475235,127 c 4.770866,0 5.667611,-0.86813 3.098871,-3 -2.084136,-1.72968 -1.872416,-3 0.5,-3 1.1,0 2,-0.35739 2,-0.79421 0,-0.43681 2.580368,-1.58877 5.73415,-2.5599 3.153783,-0.97114 7.16885,-2.86 8.922372,-4.19748 l 3.188222,-2.43177 0.678661,3.08992 0.678669,3.08992 3.44258,-3.33668 c 2.85944,-2.77148 3.602,-3.08455 4.38365,-1.84824 0.51759,0.81864 0.94797,2.02438 0.95639,2.67942 0.0343,2.6674 2.13835,2.25452 3.13901,-0.61597 0.58957,-1.69126 1.34401,-3.07501 1.67652,-3.07501 0.33251,0 2.04302,1.39421 3.80114,3.09824 l 3.19657,3.09824 0.67867,-3.08992 0.67866,-3.08992 3.18822,2.43177 c 1.75352,1.33748 5.76859,3.22634 8.92237,4.19748 3.15378,0.97113 5.73415,2.12309 5.73415,2.5599 0,0.43682 0.9,0.79421 2,0.79421 2.37242,0 2.58414,1.27032 0.5,3 -2.56064,2.12514 -1.67642,3 3.03212,3 6.49579,0 11.13519,-2.23448 13.07193,-6.29587 1.50441,-3.15479 1.4995,-3.83612 -0.0665,-9.2231 l -1.69095,-5.81667 7.72029,-7.044088 c 4.24616,-3.874251 8.5969,-8.411233 9.66831,-10.082182 L 176.2573,85.5 175.67048,91 c -0.32274,3.025 -0.84743,6.638191 -1.16598,8.029313 -0.49686,2.169837 -0.0502,2.781557 3.14263,4.304117 l 3.72179,1.7748 -3.35695,2.8025 -3.35694,2.80251 2.83568,3.37001 2.83568,3.37002 -2.87614,1.22826 c -1.58188,0.67554 -3.43864,1.24856 -4.12614,1.27337 -1.56265,0.0564 -1.5629,0.052 0.25,4.39086 0.825,1.9745 1.5,3.82946 1.5,4.12212 0,0.29267 -2.025,0.53212 -4.5,0.53212 l -4.5,0 0,4.60699 c 0,3.80367 -0.27775,4.5004 -1.5929,3.99573 -5.2094,-1.99903 -6.34139,-1.84304 -7.58449,1.04517 -0.67517,1.56866 -1.31964,2.99779 -1.43216,3.17585 -0.11252,0.17805 -1.57406,-0.38445 -3.24786,-1.25 -4.3227,-2.23536 -6.28158,-1.98008 -10.99255,1.43253 l -4.15004,3.00627 0,-9.92448 c 0,-5.45847 -0.27314,-10.63629 -0.60699,-11.50627 C 135.93569,122.19691 132.70141,122 110.48617,122 l -25.37396,0 -0.520149,2.25 c -0.286082,1.2375 -0.632156,6.33621 -0.769052,11.33047 l -0.248903,9.08047 -3.898675,-2.83047 z m -67.302776,-9.72068 c -1.760799,-1.11174 -3.8871672,-3.34737 -4.7252634,-4.96807 -2.020051,-3.90635 -1.290958,-4.15071 12.2585014,-4.10845 l 10.668213,0.0333 -2.360784,1.96673 C 26.769993,126.23568 24.364034,127 22.022339,127 c -2.106609,0 -4.074453,0.39521 -4.372985,0.87825 -0.723114,1.17002 4.273886,2.10309 11.799752,2.20332 l 6.125,0.0816 -3.218741,1.40854 c -1.770307,0.77469 -6.270307,1.66749 -10,1.98399 -5.718949,0.4853 -7.282778,0.2588 -9.98271,-1.44589 z m 179.435265,0.47319 C 184.92279,130.73099 184.91558,130 191.78244,130 c 7.3175,0 12.45297,-0.92999 11.71642,-2.12175 C 203.20033,127.39521 201.23249,127 199.12588,127 c -2.3417,0 -4.74766,-0.76432 -6.19099,-1.96673 l -2.36078,-1.96673 11,-0.018 c 6.05,-0.01 11.54786,0.33017 12.21748,0.75565 1.94513,1.23597 -2.19851,7.08099 -6.20726,8.75595 -4.15859,1.73757 -9.37342,1.74511 -15.77641,0.0228 z M 9.7166562,118.97179 C 8.1450589,118.50083 5.9454516,117.30201 4.8286401,116.30775 0.74225056,112.66977 -1.8731799,102.03878 1.6508913,103.39109 6.6111142,105.29451 20.900835,109 23.280874,109 c 3.316792,0 3.637876,1.47759 0.66663,3.06776 -1.359613,0.72764 -4.515424,0.90909 -8.75,0.50309 -6.0425293,-0.57934 -6.4546876,-0.50178 -4.699665,0.88434 1.058054,0.83565 3.533054,1.78751 5.5,2.11524 4.255053,0.70898 13.076267,3.41407 13.076267,4.00994 0,0.77507 -16.467902,0.25734 -19.3574498,-0.60858 z m 185.3105738,-0.5712 c 1.89921,-0.86465 6.04392,-2.02845 9.21045,-2.58622 3.16653,-0.55778 6.31823,-1.68998 7.00377,-2.516 1.09612,-1.32075 0.45288,-1.41689 -5.33385,-0.79718 -4.3124,0.46182 -7.31322,0.31244 -8.70689,-0.43343 C 194.22947,110.47759 194.55055,109 197.86734,109 c 2.41661,0 16.69444,-3.71496 21.78393,-5.66798 1.52075,-0.58357 1.66231,-0.1541 1.16683,3.54002 -1.28665,9.59266 -5.59426,12.47897 -19.156,12.83546 -9.87645,0.25961 -10.01558,0.2322 -6.63487,-1.30691 z M 90.074924,113.78518 c 0.0051,-1.76777 3.301055,-15.353613 4.207492,-17.343026 l 1.195296,-2.623388 2.771296,3.340617 2.771302,3.340617 0.0269,-3.770324 0.0269,-3.770324 3.94637,2.01329 c 2.17051,1.107309 4.40682,2.803955 4.96959,3.770324 0.58168,0.998827 1.03634,1.211283 1.05363,0.492336 0.0331,-1.375947 5.75818,-5.225517 7.78041,-5.231564 0.73886,-0.0022 1.261,1.325222 1.2769,3.246262 l 0.0269,3.25 2.7713,-3.340617 2.77129,-3.340617 1.1953,2.623388 c 1.48705,3.263716 4.34966,16.749836 3.69445,17.405036 -0.26529,0.26529 -2.26517,-1.3918 -4.44418,-3.68242 C 123.93705,107.87414 121.96579,106 121.73549,106 c -0.23031,0 -0.99854,1.39977 -1.70719,3.11059 l -1.28845,3.1106 -1.73783,-3.3606 c -2.02904,-3.92374 -2.5683,-3.95761 -4.96005,-0.31159 l -1.78044,2.71411 -1.61939,-3.13155 C 107.75148,106.4092 106.82006,105 106.57232,105 c -0.24774,0 -1.28509,1.62691 -2.30522,3.61535 l -1.85479,3.61536 -1.29042,-3.11536 c -1.596604,-3.85453 -2.113615,-3.87016 -4.86622,-0.14706 -1.808017,2.44548 -6.183726,5.85563 -6.180746,4.81689 z M 17.214591,104.53413 C 4.8714034,99.950384 -0.29795917,93.593015 0.3315192,83.771046 0.53345824,80.620121 1.0101928,77.73058 1.3909294,77.349843 c 0.3807365,-0.380736 2.3777071,0.728231 4.4377124,2.464371 3.3766257,2.845768 14.9891162,10.933587 19.8406042,13.818502 2.416948,1.437227 1.589545,2.300777 -2.902988,3.029815 -2.927267,0.47503 -4.572716,-0.05917 -9.310597,-3.022737 -3.165219,-1.979856 -5.9065234,-3.448159 -6.0917878,-3.262895 -1.0875522,1.087553 1.5786828,3.698876 7.5199298,7.365055 7.272553,4.487696 12.554589,9.295196 10.114617,9.205946 -0.783373,-0.0287 -4.286096,-1.11485 -7.783829,-2.41377 z m 180.422019,-0.6658 c 2.23438,-1.86832 6.60669,-4.938872 9.71624,-6.823459 4.97226,-3.013506 7.48295,-5.616512 6.43149,-6.667972 -0.18526,-0.185264 -2.92657,1.283039 -6.09179,3.262895 -4.73788,2.963563 -6.38332,3.497767 -9.31059,3.022737 -4.49254,-0.729038 -5.31994,-1.592588 -2.90299,-3.029815 4.85149,-2.884915 16.46398,-10.972734 19.8406,-13.818502 2.06001,-1.73614 4.03762,-2.864472 4.39468,-2.507403 1.29688,1.296873 1.56249,10.549194 0.40364,14.060522 -2.12972,6.453116 -11.60269,12.678507 -23.04378,15.143767 l -3.5,0.75416 4.0625,-3.39693 z M 89.75442,93.5 c -0.365842,-3.3 -0.964645,-7.083569 -1.330673,-8.407931 -0.602094,-2.178502 -0.436074,-2.337551 1.742428,-1.669267 6.193636,1.899981 7.261011,1.936537 6.571666,0.225075 -0.365054,-0.906332 -0.927494,-2.298418 -1.249867,-3.093524 -0.490884,-1.210726 -0.044,-1.270307 2.75,-0.366645 1.834876,0.593451 3.994976,1.39534 4.800216,1.781975 1.38777,0.666335 5.27874,10.111204 4.4922,10.904285 -0.20399,0.205683 -1.99082,-0.581817 -3.97074,-1.75 -4.506594,-2.658952 -4.485544,-2.661236 -4.485544,0.486816 l 0,2.610784 -2.064254,-2.360784 C 95.874512,90.562353 94.737032,89.95 94.482118,90.5 c -0.254913,0.55 -1.273265,2.8 -2.263004,5 l -1.799525,4 -0.665169,-6 z m 38.79079,0.664671 -1.92756,-5.335328 -2.27177,2.641092 -2.27177,2.641092 0,-2.555763 c 0,-3.084696 0.009,-3.083751 -4.44284,-0.456988 -3.50197,2.06621 -3.55716,2.068105 -3.55716,0.122124 0,-2.853133 2.8514,-9.254923 4.2816,-9.612798 0.67012,-0.167683 2.6809,-0.784014 4.4684,-1.369625 3.56663,-1.168483 3.74045,-1.023401 2.20688,1.842101 -1.45236,2.713754 1.28006,3.649417 4.49869,1.540489 1.34208,-0.87936 2.66,-1.243089 2.92872,-0.808287 0.26872,0.434802 -0.0681,4.3673 -0.74852,8.738885 L 130.47278,99.5 128.54521,94.164671 Z M 20.374921,85.25 C 10.626434,75.845544 7.6889749,71.099484 7.625107,64.650097 7.5740384,59.493183 10.746244,51.324913 12.672144,51.65423 c 0.496079,0.08483 4.086001,4.8204 7.977604,10.523497 6.302163,9.235741 7.027439,10.782166 6.634684,14.146397 -0.433021,3.709133 -0.477289,3.744715 -2.459023,1.976504 -1.109936,-0.990346 -3.798073,-4.198099 -5.973638,-7.128341 -2.175565,-2.930242 -4.194587,-5.088698 -4.486715,-4.79657 -1.40308,1.40308 1.302725,6.113639 7.208058,12.548571 3.575546,3.896205 6.500992,7.720339 6.500992,8.498073 0,0.777735 0.273145,2.125868 0.606989,2.995852 1.190494,3.102378 -1.410804,1.483815 -8.306174,-5.168213 z m 172.092199,5.168213 c 0.33385,-0.869984 0.60699,-2.231334 0.60699,-3.025225 0,-0.79389 2.71154,-4.358136 6.02564,-7.920548 5.41423,-5.819896 7.97436,-9.845009 7.97436,-12.53754 0,-2.022702 -1.62375,-0.735442 -4.18393,3.316888 -1.47617,2.336517 -4.01055,5.519011 -5.63196,7.072209 l -2.94802,2.823997 -0.4346,-3.722702 c -0.38171,-3.26959 0.4255,-5.038172 6.63195,-14.530412 3.88661,-5.94424 7.51656,-10.690315 8.06656,-10.546834 2.15384,0.561881 4.99942,8.210325 4.949,13.302051 -0.0636,6.419937 -2.96562,11.135357 -12.67794,20.599903 -6.7734,6.600592 -9.59582,8.341678 -8.37805,5.168213 z M 59.074106,85.953918 c 0,-0.575345 3.842244,-2.88972 8.53832,-5.143055 7.682701,-3.686419 8.810056,-3.97276 11.25,-2.857434 l 2.71168,1.23954 -5,1.902701 c -2.75,1.046485 -5.580427,1.903068 -6.289838,1.903515 C 69.574857,82.999633 67.230284,83.9 65.074106,85 c -4.391174,2.24021 -6,2.495991 -6,0.953918 z M 156.07411,85 c -1.925,-1.053893 -4.175,-1.935397 -5,-1.958899 -0.825,-0.0235 -3.75,-0.898946 -6.5,-1.945431 l -5,-1.902701 2.75312,-1.258419 c 2.50109,-1.143225 3.5309,-0.873006 11.25,2.951954 4.67328,2.315704 8.49688,4.638575 8.49688,5.161934 0,1.44542 -2.12215,1.074596 -6,-1.048438 z M 90.207043,79.790621 C 88.569073,78.205549 87.69636,77.88502 87.373709,78.75 c -0.874422,2.344194 -3.20605,1.254018 -8.617402,-4.029152 -5.875047,-5.735881 -7.760714,-9.422775 -5.539213,-10.830381 0.746357,-0.472913 4.057012,-0.881456 7.357012,-0.907873 6.383146,-0.0511 17.128547,-1.286653 21.862604,-2.513861 l 2.8626,-0.742072 -1.72093,2.626482 c -1.63083,2.488955 -1.62938,2.661618 0.0277,3.297496 1.66128,0.637493 1.66043,0.735514 -0.0171,1.962143 -1.06347,0.777632 -1.51534,1.94361 -1.13617,2.931714 0.43179,1.125221 -0.0163,1.80949 -1.42655,2.178268 -2.046993,0.5353 -2.046256,0.548167 0.16648,2.903516 3.62615,3.859853 1.67971,4.136595 -6.299281,0.895627 -1.330634,-0.540487 -1.747155,-0.03268 -2,2.438339 l -0.319353,3.120996 -2.367063,-2.290621 z M 81.074106,67.5 l 2.5,-1.429129 -3.25,-0.03544 c -2.237971,-0.0244 -3.25,0.431655 -3.25,1.464565 0,1.841092 0.779347,1.841092 4,0 z m 47.000004,11.567325 c 0,-2.728582 -0.29478,-3.161829 -1.75,-2.572031 -8.14696,3.301947 -10.00744,3.00432 -6.2463,-0.999237 C 122.01984,73.428862 122.13506,73 120.74842,73 c -1.10387,0 -1.67431,-0.823363 -1.67431,-2.416667 0,-1.329166 -0.5625,-2.605987 -1.25,-2.837378 -0.98659,-0.332056 -0.99259,-0.732755 -0.0285,-1.901484 0.97552,-1.182561 0.89277,-1.950138 -0.41092,-3.811419 -1.6171,-2.308726 -1.60507,-2.323554 1.27847,-1.576448 4.77983,1.238419 15.50355,2.474698 21.91093,2.52599 3.3,0.02642 6.61066,0.43496 7.35701,0.907873 2.15215,1.363664 0.49712,4.657375 -5.3492,10.645544 -5.26104,5.388684 -7.91394,6.660893 -8.7873,4.213989 -0.30562,-0.856259 -1.27685,-0.486359 -3.08333,1.174314 l -2.63716,2.424314 0,-3.281303 z m 16,-11.567325 c 0,-1.03291 -1.01203,-1.488966 -3.25,-1.464565 l -3.25,0.03544 2.5,1.429129 c 3.22065,1.841092 4,1.841092 4,0 z m -86.049851,8.406859 c -1.948917,-3.641583 -0.310104,-6.860096 4.59868,-9.031485 2.460821,-1.088538 4.913212,-1.707849 5.449757,-1.376246 0.536545,0.331603 2.401302,2.675194 4.143904,5.20798 l 3.168368,4.605064 -2.966703,-0.59334 c -3.508418,-0.701684 -10.659131,0.726083 -11.159858,2.228264 -0.563242,1.689728 -2.024684,1.219668 -3.234148,-1.040237 z M 68.074106,68 c 0,-0.55 -0.45,-1 -1,-1 -0.55,0 -1,0.45 -1,1 0,0.55 0.45,1 1,1 0.55,0 1,-0.45 1,-1 z m 90.558874,8.468197 C 157.55111,75.649912 154.56316,75 151.88298,75 c -2.64488,0 -4.80887,-0.382483 -4.80887,-0.849962 0,-0.467478 1.37016,-2.741406 3.04479,-5.053171 2.48915,-3.436171 3.44722,-4.079144 5.25,-3.523354 7.24374,2.233217 10.07273,6.002739 7.75506,10.333346 -1.3149,2.456905 -1.88981,2.528764 -4.49098,0.561338 z M 155.07411,68 c 0,-0.55 -0.45,-1 -1,-1 -0.55,0 -1,0.45 -1,1 0,0.55 0.45,1 1,1 0.55,0 1,-0.45 1,-1 z m 19.62401,-0.609285 c -0.90945,-2.865426 4.85502,-18.802099 6.959,-19.239108 2.9965,-0.622392 3.3271,2.037583 1.02931,8.281804 -1.22784,3.336624 -2.041,6.952265 -1.80703,8.034757 0.36237,1.676601 0.19601,1.777802 -1.12298,0.683136 -1.31194,-1.088814 -1.76844,-0.865014 -2.9896,1.465666 -1.32472,2.528314 -1.49197,2.590869 -2.0687,0.773745 z M 44.054541,65.963442 c -0.952826,-1.780371 -1.361236,-1.896447 -2.737405,-0.778009 -1.389633,1.129382 -1.526056,1.07053 -0.968425,-0.417766 0.356987,-0.952784 -0.423827,-4.582749 -1.735141,-8.066589 -2.443417,-6.491561 -2.166472,-9.18126 0.880297,-8.549471 1.50263,0.311591 5.705659,9.843979 7.266894,16.481176 0.686954,2.920411 -1.325761,3.910071 -2.70622,1.330659 z m 22.519565,-5.908799 c -2.684834,-1.098881 -5.09898,-3.900961 -6.97105,-8.091241 -0.851029,-1.904871 -2.555691,-4.736015 -3.788138,-6.291432 -2.204358,-2.782023 -2.209233,-2.851163 -0.299682,-4.25 4.048217,-2.965512 5.163989,-1.780015 7.457032,7.923033 0.629739,2.664752 2.313683,6.377252 3.742098,8.25 1.428415,1.872748 2.431208,3.376473 2.228429,3.341611 -0.202779,-0.03486 -1.268689,-0.431749 -2.368689,-0.881971 z m 5.193853,0.305877 C 70.180592,58.773153 72.756709,58 79.633123,58 c 7.618568,0 9.903692,1.257458 4.315983,2.375 -4.06171,0.812342 -11.363004,0.803663 -12.181147,-0.01448 z M 89.074106,60.125 c 0,-0.61875 1.125,-1.125 2.5,-1.125 3.010813,0 6.165206,-2.954478 8.101069,-7.587649 C 100.7425,48.85788 101.71125,48 103.52851,48 c 1.33516,0 2.65922,0.374827 2.94236,0.83295 0.93797,1.517668 -4.21691,7.853824 -7.755864,9.533164 -4.81653,2.285593 -9.6409,3.165751 -9.6409,1.758886 z m 35.683804,-0.573812 c -4.44335,-1.584699 -7.34226,-3.990047 -9.2463,-7.672043 C 113.95508,48.869133 114.45152,48 117.72736,48 c 1.69476,0 2.70412,0.919533 3.74568,3.412351 C 123.4089,56.045522 126.5633,59 129.57411,59 c 1.375,0 2.5,0.45 2.5,1 0,1.356042 -2.72411,1.188931 -7.3162,-0.448812 z m 9.01005,0.809332 C 132.1806,58.773153 134.75671,58 141.63313,58 c 7.61857,0 9.90369,1.257458 4.31598,2.375 -4.06171,0.812342 -11.363,0.803663 -12.18115,-0.01448 z m 20.53458,-2.549226 c 1.50063,-1.991708 3.24367,-5.801539 3.87341,-8.466291 2.28523,-9.670002 3.41237,-10.883143 7.40148,-7.966237 1.84492,1.34904 1.84365,1.438677 -0.0589,4.157547 -1.06942,1.528329 -3.06942,4.830914 -4.44442,7.339077 -1.42441,2.598286 -4.00583,5.420104 -6,6.558744 l -3.5,1.998448 2.72843,-3.621288 z M 70.274106,55.8 c -1.981851,-1.981851 -1.46122,-8.53878 0.8625,-10.8625 2.81165,-2.81165 4.256058,-2.035132 5.212719,2.802371 1.166649,5.899342 3.178671,7.216869 5.162508,3.380552 0.85925,-1.661607 1.562273,-3.916892 1.562273,-5.011746 0,-3.132004 1.922664,-3.528958 4.666488,-0.963446 2.101288,1.964734 2.432858,2.999777 2.001798,6.248889 -0.284149,2.141766 -1.113256,4.272375 -1.84246,4.734687 C 85.82896,57.441794 71.65142,57.177314 70.274106,55.8 Z m 62.371434,-0.371429 c -2.27949,-2.279487 -1.927,-6.903664 0.76478,-10.033051 2.85312,-3.316948 4.20658,-2.656192 5.02349,2.452444 1.21134,7.575332 4.79356,7.377871 6.39974,-0.352771 0.95852,-4.613362 2.40694,-5.328809 5.17806,-2.557693 2.32372,2.32372 2.84435,8.880649 0.8625,10.8625 -1.87562,1.875624 -16.27492,1.582221 -18.22857,-0.371429 z M 78.755801,51.348362 c -0.8444,-0.8444 -0.891895,-5.637015 -0.07691,-7.760831 0.945962,-2.465139 2.39683,-0.806031 2.379902,2.721486 -0.01671,3.482508 -1.222141,6.120196 -2.302992,5.039345 z m 61.984979,-1.015029 c -0.98874,-0.988741 -0.80813,-7.12787 0.22855,-7.768572 1.1496,-0.710495 2.10478,1.79321 2.10478,5.517026 0,2.795082 -0.91086,3.674017 -2.33333,2.251546 z M 41.447403,44.489175 c 1.580314,-0.824177 4.408472,-2.846405 6.284797,-4.493839 3.205952,-2.814863 7.635169,-3.947877 8.699704,-2.225423 0.261708,0.423452 -2.035428,2.448452 -5.104746,4.5 -3.864807,2.583257 -6.683181,3.728193 -9.166815,3.723926 l -3.586237,-0.0062 2.873297,-1.498504 z M 100.57411,45 c 0.34141,-0.552411 4.84372,-1 10.05902,-1 5.62732,0 9.44098,0.403947 9.44098,1 0,0.600391 -4.01967,1 -10.05902,1 -6.45136,0 -9.83736,-0.358648 -9.44098,-1 z m 69.24695,-2.730087 c -3.06932,-2.051548 -5.36646,-4.076548 -5.10475,-4.5 1.06454,-1.722454 5.49375,-0.58944 8.69971,2.225423 1.87632,1.647434 4.70448,3.669662 6.28479,4.493839 l 2.8733,1.498504 -3.58624,0.0062 c -2.48363,0.0043 -5.302,-1.140669 -9.16681,-3.723926 z m -70.746954,-1.32893 c 0,-0.582459 0.45,-0.780902 1.000004,-0.440983 0.55,0.339919 1,0.816476 1,1.059017 0,0.242541 -0.45,0.440983 -1,0.440983 -0.550004,0 -1.000004,-0.476558 -1.000004,-1.059017 z M 104.07411,41 c 0,-0.55 0.45,-1 1,-1 0.55,0 1,0.45 1,1 0,0.55 -0.45,1 -1,1 -0.55,0 -1,-0.45 -1,-1 z m 11,-0.05902 c 0,-0.582459 0.45,-0.780902 1,-0.440983 0.55,0.339919 1,0.816476 1,1.059017 0,0.242544 -0.45,0.440986 -1,0.440986 -0.55,0 -1,-0.476558 -1,-1.059017 z m 5.5,0.05902 c 0.33992,-0.55 0.81648,-1 1.05902,-1 0.24254,0 0.44098,0.45 0.44098,1 0,0.55 -0.47656,1 -1.05902,1 -0.58246,0 -0.7809,-0.45 -0.44098,-1 z M 78.574106,39 C 78.174952,38.354154 78.298371,37.375735 78.848371,36.825735 79.515037,36.159069 80.090282,36.217157 80.574106,37 80.97326,37.645846 80.849841,38.624265 80.299841,39.174265 79.633175,39.840931 79.05793,39.782843 78.574106,39 Z m 62.000004,0 c -0.39915,-0.645846 -0.27574,-1.624265 0.27426,-2.174265 0.66667,-0.666666 1.24192,-0.608578 1.72574,0.174265 0.39915,0.645846 0.27574,1.624265 -0.27426,2.174265 C 141.63318,39.840931 141.05793,39.782843 140.57411,39 Z M 95.612847,33.818499 c -2.036362,-6.857174 -2.004398,-7.108501 1.362469,-10.712744 4.272244,-4.573446 5.768794,-4.059252 7.696034,2.644245 0.90921,3.1625 2.28334,6.9875 3.05361,8.5 2.76625,5.431738 5.51373,2.76334 8.75191,-8.5 1.9102,-6.644226 3.33281,-7.168273 7.67416,-2.826923 3.37806,3.378062 3.44959,3.940979 1.38434,10.895422 L 123.99663,39 l -13.42252,0 -13.422523,0 -1.53874,-5.181501 z m 13.588043,-1.581602 c -0.58217,-1.087801 -1.50156,-3.948613 -2.04307,-6.357359 -1.61627,-7.189348 2.92046,-11.855193 6.38536,-6.567091 1.31897,2.013011 1.3385,2.993535 0.15079,7.572256 -1.67761,6.467361 -3.0325,8.081315 -4.49308,5.352194 z M 77.092844,31.522578 c -1.053196,-1.269024 -0.95181,-1.542309 0.608817,-1.641061 3.535831,-0.223736 6.321445,0.563242 5.289112,1.494255 -1.547271,1.395412 -4.794595,1.476242 -5.897929,0.146806 z m 62.731266,0.705873 c -0.9625,-0.206305 -1.75,-0.759108 -1.75,-1.228451 0,-1.072818 2.94202,-1.736956 5.25,-1.185144 3.81312,0.911676 0.41751,3.253282 -3.5,2.413595 z M 109.71359,14.306147 C 108.51843,13.110991 109.06788,11 110.57411,11 c 0.825,0 1.5,0.648442 1.5,1.440983 0,1.670644 -1.42728,2.798406 -2.36052,1.865164 z M 108.78436,6 c -0.7173,-2.7429623 0.25425,-6 1.78975,-6 1.5355,0 2.50705,3.2570377 1.78975,6 -0.67511,2.5816191 -2.90439,2.5816191 -3.5795,0 z"
     style="fill:#f39f18;fill-opacity:1" />
</svg>
