<?xml version="1.0" encoding="UTF-8" standalone="no"?>
<svg
   xmlns:dc="http://purl.org/dc/elements/1.1/"
   xmlns:cc="http://creativecommons.org/ns#"
   xmlns:rdf="http://www.w3.org/1999/02/22-rdf-syntax-ns#"
   xmlns:svg="http://www.w3.org/2000/svg"
   xmlns="http://www.w3.org/2000/svg"
   viewBox="0 0 185.10953 212.35629"
   height="212.35629"
   width="185.10953"
   version="1.1"
   id="svg2">
  <metadata
     id="metadata8">
    <rdf:RDF>
      <cc:Work
         rdf:about="">
        <dc:format>image/svg+xml</dc:format>
        <dc:type
           rdf:resource="http://purl.org/dc/dcmitype/StillImage" />
        <dc:title></dc:title>
      </cc:Work>
    </rdf:RDF>
  </metadata>
  <defs
     id="defs6" />
  <g
     transform="translate(-26.25,-12.54268)"
     id="g4138">
    <path
       id="path4144"
       d="m 118.75977,12.54268 c 0,0 22.11523,11.781065 46.86523,26.12798 l 45,26.0853 0.36726,8.87202 0.36726,8.87202 -46.30476,0 -46.30476,0 z"
       style="fill:#949494" />
    <path
       id="path4142"
       d="M 71.5625,198.51672 26.25,172.2359 l 0,-8.61795 0,-8.61795 92.5,0 92.5,0 0,8.61879 0,8.61878 -45.75101,26.38122 c -25.16305,14.50966 -46.39743,26.33566 -47.1875,26.27998 -0.79007,-0.0557 -21.827115,-11.9276 -46.74899,-26.38205 z"
       style="fill:#b30c12" />
    <path
       id="path4140"
       d="m 26.25,118.75 0,-36.25 92.5,0 92.5,0 0,36.25 0,36.25 -92.5,0 -92.5,0 0,-36.25 z"
       style="fill:#003062" />
    <path
       id="path4146"
       d="m 26.66844,82.269598 92.33316,-69.690149 0,69.941738 z"
       style="fill:#ffffff;fill-rule:evenodd;stroke:none;stroke-width:1px;stroke-linecap:butt;stroke-linejoin:miter;stroke-opacity:1" />
  </g>
</svg>
