<?xml version="1.0" encoding="UTF-8" standalone="no"?>
<svg
   xmlns:dc="http://purl.org/dc/elements/1.1/"
   xmlns:cc="http://creativecommons.org/ns#"
   xmlns:rdf="http://www.w3.org/1999/02/22-rdf-syntax-ns#"
   xmlns:svg="http://www.w3.org/2000/svg"
   xmlns="http://www.w3.org/2000/svg"
   viewBox="0 0 276.86539 302.89062"
   height="302.89062"
   width="276.86539"
   version="1.1"
   id="svg2">
  <metadata
     id="metadata8">
    <rdf:RDF>
      <cc:Work
         rdf:about="">
        <dc:format>image/svg+xml</dc:format>
        <dc:type
           rdf:resource="http://purl.org/dc/dcmitype/StillImage" />
        <dc:title></dc:title>
      </cc:Work>
    </rdf:RDF>
  </metadata>
  <defs
     id="defs6" />
  <path
     id="path3338"
     d="m 136.43899,298.2484 c -2.33112,-5.63611 -7.51755,-11.57435 -11.57788,-13.2562 -2.79287,-1.15685 -3.14826,-1.04549 -5.21227,1.63315 -7.46059,9.68226 -15.65085,13.82691 -27.268898,13.7993 -6.680941,-0.0159 -8.844155,-0.45655 -13.119739,-2.67267 -18.682885,-9.6837 -19.778978,-35.95304 -1.901046,-45.56114 4.467644,-2.40103 15.102992,-2.23168 19.414762,0.30916 5.625351,3.3149 9.325511,8.72887 9.875151,14.44905 0.59347,6.17643 -0.92123,10.0993 -5.42715,14.05555 -4.662959,4.09413 -11.202581,4.25937 -14.269398,0.36054 -5.430128,-6.90329 1.310655,-16.45113 9.434027,-13.36263 3.689721,1.40283 3.989951,0.84617 1.908883,-3.53936 -4.653118,-9.80572 -17.560678,-9.84624 -24.853701,-0.078 -1.64433,2.2024 -2.061789,4.24781 -2.061789,10.10207 0,6.54295 0.325962,7.80332 3,11.5999 4.369469,6.20372 10.127806,8.91523 18.907284,8.90314 31.053314,-0.0428 38.993504,-41.11541 11.642484,-60.22367 -5.626691,-3.93097 -6.034232,-4.84413 -1.00011,-2.24088 l 2.95034,1.52568 0,-5.91727 c 0,-5.58868 0.14932,-5.95475 2.68901,-6.59217 6.73089,-1.68938 11.31099,-7.94265 11.31099,-15.44308 l 0,-4.09887 6.61354,0 6.61355,0 -0.5963,-4.25 c -0.32796,-2.3375 -1.96026,-17.525 -3.62733,-33.75 -3.09152,-30.08866 -4.63499,-43.36203 -5.60873,-48.2335 l -0.54639,-2.73349 -13.67417,7.01628 c -11.262521,5.77885 -15.040998,7.21848 -21.424168,8.16278 -4.2625,0.63058 -7.75,1.56584 -7.75,2.07835 0,0.88628 23.400608,46.17569 26.053028,50.42288 1.73065,2.77122 0.7663,4.68064 -4.16987,8.25638 -6.066387,4.39447 -12.821715,6.11485 -23.943001,6.09757 -11.011837,-0.0171 -21.032022,-2.59078 -25.840932,-6.63721 -4.187951,-3.52393 -4.582334,-5.62932 -1.817636,-9.70333 1.294816,-1.90802 7.600099,-13.80903 14.011741,-26.44668 l 11.657531,-22.97757 -2.47543,-2.32554 c -2.838704,-2.66683 -3.199554,-6.49808 -0.918727,-9.75441 1.887502,-2.69479 6.404638,-2.94917 10.042514,-0.56554 3.797901,2.48848 10.546021,0.51594 24.32284,-7.1098 14.07448,-7.7905 17.75502,-8.85975 30.57794,-8.88336 12.63642,-0.0233 17.97578,1.55003 31.5,9.28171 12.51421,7.15427 19.62046,9.18841 23.41462,6.70238 3.32067,-2.17579 7.87269,-2.09289 9.93039,0.18084 2.27635,2.51534 2.10001,7.45855 -0.34501,9.67126 -1.1,0.99549 -2,2.46285 -2,3.26081 0,1.74316 21.37569,44.04012 24.8264,49.12503 2.1975,3.23819 2.29381,3.8093 1.02391,6.07178 -1.94085,3.45788 -7.2131,6.80127 -13.69772,8.6864 -8.13834,2.36588 -26.86115,1.52316 -33.65259,-1.51471 -5.29607,-2.36897 -10.5,-6.69088 -10.5,-8.72033 0,-0.66927 1.61654,-4.07258 3.59232,-7.56291 5.93386,-10.48256 23.40768,-44.45351 23.40768,-45.507 0,-0.53927 -3.4875,-1.5221 -7.75,-2.18406 -7.63257,-1.18533 -11.94212,-2.93806 -27.25,-11.0828 -7.4217,-3.94881 -7.50728,-3.9674 -8.19738,-1.78134 -0.38356,1.21502 -2.5325,19.30913 -4.77542,40.20913 -2.24293,20.9 -4.3427,39.9125 -4.66617,42.25 l -0.58812,4.25 6.61355,0 6.61354,0 0,4.03984 c 0,7.37795 4.75629,13.85695 11.39584,15.52337 2.43851,0.61203 2.60416,1.03 2.60416,6.57088 l 0,5.91727 2.95034,-1.52568 c 5.03412,-2.60325 4.62658,-1.69009 -1.00011,2.24088 -10.82667,7.56384 -16.49426,18.36878 -16.38311,31.23344 0.0781,9.03935 2.75625,15.96091 8.24468,21.30805 11.43233,11.13802 30.39943,10.58163 38.63297,-1.13327 4.15526,-5.91222 4.80636,-15.17638 1.48229,-21.09077 -3.89275,-6.92621 -13.29112,-10.01559 -19.96691,-6.5634 -2.65535,1.37313 -7.72229,9.05058 -6.6686,10.10427 0.23709,0.23709 1.67792,-0.043 3.20184,-0.62237 8.3022,-3.15649 15.59401,7.80895 9.19216,13.82318 -6.9862,6.56319 -19.72701,-1.55291 -19.66359,-12.52603 0.0861,-14.89884 16.76169,-23.76764 30.93467,-16.4524 8.20565,4.23526 13.2354,15.87147 11.05873,25.58418 -3.21192,14.33223 -12.927,21.95572 -28.01536,21.98384 -11.18175,0.0208 -20.15656,-4.83945 -27.30657,-14.78783 -2.83472,-3.94417 -11.48791,2.46169 -15.62615,11.56786 l -2.58819,5.69531 -1.92004,-4.64222 z m 5.14966,-20.4984 c 2.47678,-2.70871 4.75098,-7.17138 5.73244,-11.24879 0.65556,-2.72343 0.83926,-2.83821 2.00059,-1.25 0.70331,0.96183 1.50368,1.74879 1.7786,1.74879 0.27492,0 0.76072,-2.52757 1.07956,-5.61682 0.72984,-7.07142 4.48268,-14.81281 10.33804,-21.32537 l 4.5474,-5.05781 -28.68534,0 -28.68534,0 4.74552,5.25 c 5.81401,6.43209 9.67295,14.52504 10.25179,21.5 0.47159,5.68256 1.29294,6.52587 2.92192,3 1.01803,-2.2035 1.05368,-2.188 1.72533,0.75 1.23764,5.41387 3.867,10.61144 6.36028,12.57266 3.08849,2.4294 3.38779,2.41301 5.88921,-0.32266 z M 90.635916,158.49705 C 84.454868,146.12043 78.991278,136.12955 78.494605,136.29511 77.997931,136.46067 72.442743,146.587 66.149742,158.79806 L 54.707921,181 l 23.583132,0 23.583127,0 -11.238264,-22.50295 z m 120.028884,0.32091 c -6.2574,-12.20012 -11.81032,-22.32645 -12.33983,-22.50295 -0.5295,-0.1765 -6.01996,9.80542 -12.201,22.18204 L 174.8857,181 l 23.57809,0 23.57809,0 -11.37708,-22.18204 z m -98.28486,92.63493 C 105.80828,246.03088 91.599983,240.14905 73.879942,235.51499 47.986148,228.74336 44.480689,226.77799 26.752269,209.09236 5.9541183,188.34442 1.2247803,180.32724 0.16880279,164.02806 -0.59646423,152.21605 1.221593,142.54693 6.0046955,132.99059 12.424883,120.16344 22.43336,110.76886 40.225021,100.86926 50.440885,95.184968 56.137187,89.105142 58.468933,81.397015 c 2.280852,-7.539887 3.077083,-8.399851 4.453394,-4.809854 2.290476,5.974521 -0.219829,13.036707 -8.092475,22.766381 -3.883808,4.799938 -4.868959,6.842978 -5.417783,11.235618 -0.915112,7.32431 -5.737972,16.6138 -10.641923,20.4978 -2.194741,1.73827 -6.555386,3.96697 -9.690321,4.95267 l -5.699883,1.79218 4,1.67711 c 5.314238,2.22814 9.5,6.306 9.5,9.25509 0,2.30106 -1.202276,3.72831 -9.348106,11.09731 -4.578733,4.14208 -6.442986,7.64128 -7.703335,14.45913 -3.216481,17.39955 11.401057,40.30599 32.177857,50.42438 4.605471,2.24289 13.527623,5.48947 19.827004,7.21462 19.372945,5.30551 35.924508,12.97409 41.970888,19.44573 3.03428,3.24768 2.47679,3.26636 -1.42431,0.0477 z M 12.775081,183.91091 c -2.422603,-7.78384 -2.618928,-26.7119 -0.366746,-35.35861 2.165187,-8.31272 7.548537,-18.03687 15.40898,-27.83385 9.663598,-12.04436 9.479176,-12.50493 -0.800127,-1.99819 -7.452056,7.61693 -9.856795,10.90422 -13.82896,18.90426 l -4.8082859,9.68401 -0.354393,12.40261 c -0.1949162,6.82144 0.1241865,14.30323 0.709117,16.6262 C 9.79485,180.54771 13.66027,190 14.321876,190 c 0.191589,0 -0.504468,-2.74009 -1.546795,-6.08909 z m 149.958759,67.76513 c 5.05246,-6.08784 21.78036,-13.87019 42.6461,-19.84031 18.63476,-5.3318 25.98877,-9.27433 36.02098,-19.31111 16.18974,-16.19708 20.50748,-34.62717 11.45607,-48.89976 C 251.24384,161.08119 249.57638,159 249.15152,159 c -0.42486,0 -2.68477,-1.74801 -5.02202,-3.88448 -2.76641,-2.52874 -4.24956,-4.73203 -4.24956,-6.31291 0,-2.99357 4.16073,-7.05891 9.5,-9.28218 l 4,-1.6656 -6.15334,-2.03555 c -3.38434,-1.11955 -7.75153,-3.35291 -9.70486,-4.96301 -4.35213,-3.58739 -9.28942,-13.56399 -10.16151,-20.53294 -0.53502,-4.27546 -1.5959,-6.36457 -6.09379,-12.000004 -6.13082,-7.68136 -8.70355,-14.488397 -7.74396,-20.489331 0.34109,-2.133077 0.97768,-4.099281 1.41465,-4.369343 0.43697,-0.270062 1.79437,2.677114 3.01645,6.54928 3.09046,9.792176 7.28111,14.169232 21.60294,22.563858 25.21081,14.77712 37.26051,32.87518 37.30864,56.03572 0.0364,17.51382 -4.21623,26.73533 -20.62038,44.7138 -18.82716,20.63404 -25.81164,24.91389 -51.4811,31.54588 -17.10152,4.41837 -28.38882,8.81957 -37.37278,14.57261 -3.29398,2.10935 -5.38965,3.11296 -4.65706,2.23024 z m 103.07188,-69.09525 c 5.65527,-15.40648 4.83015,-30.44674 -2.4885,-45.36053 -3.75525,-7.65237 -6.14267,-10.89668 -13.61376,-18.5 -9.81959,-9.99339 -9.82395,-9.31149 -0.0178,2.77743 7.10161,8.75477 12.50213,18.7475 14.7071,27.21297 2.23209,8.56956 1.99059,27.49361 -0.45098,35.33838 -2.37691,7.63701 -1.11287,6.64129 1.86391,-1.46825 z M 35.7192,209.25739 C 32.705593,206.09083 28.92142,201.25 27.309928,198.5 c -2.655441,-4.53149 -2.929123,-5.84332 -2.920778,-14 0.008,-7.81202 0.360104,-9.65999 2.667561,-14 1.462094,-2.75 4.83295,-7.09886 7.490792,-9.66413 C 39.107435,156.43475 48.832389,150 50.923948,150 c 1.389654,0 1.090129,6.87775 -0.492818,11.3162 -1.771201,4.96629 -4.156121,7.56102 -8.940667,9.72722 l -3.88948,1.76096 3.13948,1.62349 c 4.084768,2.11232 4.102191,5.28266 0.0502,9.13504 -7.115474,6.76495 -7.804791,13.65796 -2.402324,24.02269 1.92962,3.70202 3.351292,6.88804 3.159273,7.08006 -0.19202,0.19202 -2.814807,-2.2417 -5.828415,-5.40827 z M 30.774636,194.41932 C 28.692762,183.21637 31.435817,172.75201 38.748549,164 c 5.8307,-6.97829 5.85245,-8.0976 0.03886,-2 -7.257335,7.61187 -10.309386,14.56969 -10.308287,23.5 7.86e-4,6.39034 1.925825,16.30833 2.963892,15.27026 0.237393,-0.23739 -0.06338,-3.09532 -0.66838,-6.35094 z M 234.9132,214.89215 c -0.0183,-0.33431 1.54174,-3.62951 3.46674,-7.32266 2.75509,-5.28569 3.5,-7.87904 3.5,-12.18499 0,-5.10379 -0.30141,-5.79241 -4.5,-10.28105 -5.35432,-5.7242 -5.71499,-8.42379 -1.42203,-10.64377 l 3.07797,-1.59168 -4.3199,-2.184 c -2.37594,-1.2012 -5.30649,-3.66921 -6.51232,-5.48446 -2.06817,-3.11342 -4.20837,-13.64822 -3.01512,-14.84147 1.13328,-1.13329 13.3634,6.29826 17.8282,10.83318 6.53067,6.63324 9.11774,12.49237 9.66121,21.88046 0.38702,6.68557 0.11223,8.44459 -2.06058,13.19063 -2.10542,4.59886 -15.59622,20.60295 -15.70417,18.62981 z m 12.9313,-28.67539 c 0.0421,-11.04006 -1.8752,-15.76343 -9.88523,-24.35219 -6.06038,-6.49826 -6.73051,-5.89236 -0.91202,0.82461 6.5388,7.54852 9.27049,14.39246 9.30428,23.31082 0.0156,4.125 -0.29901,9.075 -0.69919,11 -0.71254,3.42753 -0.69775,3.44824 0.71456,1 0.96423,-1.6715 1.45391,-5.57646 1.4776,-11.78324 z M 57.362958,108.97252 c -0.654173,-1.05848 0.423551,-3.03983 6.617906,-12.166803 5.596772,-8.246468 7.252418,-13.62325 6.675933,-21.680377 -0.903585,-12.628792 -7.336414,-20.154863 -17.174738,-20.093537 -2.806164,0.01749 -5.797768,0.579992 -6.648008,1.25 -2.370552,1.868048 -4.954109,5.968992 -4.954109,7.86378 0,1.307019 0.703542,0.997028 3.040064,-1.339493 2.540664,-2.540664 3.559472,-2.936183 6.201926,-2.407692 7.298279,1.459656 10.121126,8.742788 5.479908,14.138526 -2.618571,3.044271 -8.008895,3.717807 -12.124821,1.51503 -5.706129,-3.053828 -7.099033,-12.729539 -2.718208,-18.881841 7.112919,-9.989174 24.604443,-7.079862 30.533578,5.078557 6.855384,14.057805 3.895656,31.50245 -7.425405,43.76537 -3.628415,3.93028 -6.261774,4.96849 -7.504026,2.95848 z m 154.453052,-3.16563 c -2.10808,-2.30621 -5.3186,-7.120059 -7.13447,-10.697436 -5.92149,-11.66565 -4.88792,-27.759794 2.34331,-36.488603 8.07362,-9.745667 22.16795,-10.051823 28.60509,-0.621357 6.58789,9.651324 -2.14008,22.789148 -12.3153,18.53767 -5.78055,-2.415271 -7.17295,-8.404804 -3.06429,-13.1814 3.11496,-3.621362 8.47373,-3.790265 12.10225,-0.38145 4.16651,3.91423 3.23963,-0.462023 -0.99467,-4.696319 -3.32927,-3.329277 -3.81782,-3.497474 -8.92786,-3.07371 -7.381,0.61209 -11.74451,4.02657 -14.47623,11.327755 -3.83459,10.248853 -2.14707,20.703515 4.91794,30.46796 5.32328,7.35723 7.21291,10.8597 6.49001,12.02937 -1.21756,1.97004 -3.81222,0.86197 -7.54578,-3.22248 z M 130.80302,94.076923 c -3.20992,-3.209919 -3.80508,-6.52449 -1.34129,-7.469934 2.05365,-0.788062 15.78277,-0.788062 17.83642,0 2.46379,0.945444 1.86863,4.260015 -1.34129,7.469934 C 143.56356,96.470227 142.19033,97 138.37994,97 c -3.81039,0 -5.18362,-0.529773 -7.57692,-2.923077 z M 129.8044,79.580406 c 5.15912,-5.491624 10.72356,-5.692194 16.33325,-0.588732 l 3.24229,2.949699 -10.92431,0.02931 L 127.53131,82 129.8044,79.580406 Z m -28.54087,-0.889213 c 5.91703,-3.74195 11.63293,-9.046629 14.35383,-13.321161 10.93898,-17.185099 6.75931,-37.458312 -9.72942,-47.191987 -3.7922,-2.238625 -5.66164,-2.650106 -11.999996,-2.64131 -6.110793,0.0085 -8.33717,0.471272 -11.963597,2.486842 -6.44783,3.583708 -10.314526,9.562704 -10.834655,16.753413 -0.524826,7.255653 1.351163,12.023582 6.179949,15.706677 3.721946,2.838867 10.343964,3.75659 15.334319,2.125131 2.389458,-0.781167 5.591903,-4.749692 6.690747,-8.291289 0.651415,-2.099537 0.472784,-2.161397 -4.699889,-1.627531 -4.989425,0.514954 -5.5334,0.356189 -7.545961,-2.202367 -6.013039,-7.644341 0.829581,-16.62339 10.289017,-13.501495 7.690946,2.538242 11.494376,12.613308 8.108526,21.479022 -6.138535,16.07354 -29.505858,16.47889 -37.772236,0.655231 -2.30266,-4.407794 -2.792571,-6.604091 -2.784838,-12.484561 0.008,-6.099613 0.447776,-7.90024 3.028392,-12.400103 C 75.856586,10.39257 92.8556,6.0727929 107.87975,14.080582 c 4.15428,2.214207 7.55547,4.989501 9.91227,8.088181 1.97336,2.594536 4.11544,4.742966 4.76018,4.774288 2.82257,0.137122 9.95871,-6.814488 12.97322,-12.637742 l 3.15975,-6.1038174 1.58936,4.1616754 c 2.06764,5.414039 6.50159,10.727445 10.95178,13.124032 l 3.55136,1.912533 2.26855,-2.949866 c 6.77308,-8.807267 14.2333,-13.188904 24.00996,-14.101863 12.53584,-1.170615 22.42352,3.996438 28.30827,14.793195 6.07829,11.15183 2.63075,25.729171 -7.59059,32.095572 -13.85127,8.62732 -31.85,0.01688 -31.85,-15.23677 0,-7.798535 6.52896,-15.98614 12.75574,-15.996262 3.04319,-0.0049 7.8011,2.513481 8.57916,4.541064 1.82631,4.759283 -0.47965,10.817098 -4.71386,12.383432 -1.16657,0.431543 -3.63561,0.366427 -5.48677,-0.144701 -1.85115,-0.511128 -3.58699,-0.708066 -3.85742,-0.43764 -0.97125,0.971256 2.90435,7.571592 5.40988,9.213278 5.80007,3.80035 15.94464,1.45009 20.57911,-4.7677 2.49331,-3.345133 3.37624,-12.182834 1.71884,-17.20481 C 199.81723,14.159842 178.59341,10.360322 165.12966,22.465387 158.33231,28.576789 155.5068,35.171421 155.47455,45 c -0.0426,12.976317 5.7541,24.08166 16.14901,30.938491 6.88903,4.544237 5.86768,5.273642 -1.33081,0.950403 -9.30369,-5.587573 -16.59223,-16.198996 -17.92819,-26.101737 -0.89121,-6.606042 -1.33928,-7.364992 -3.0092,-5.096998 -1.45449,1.975415 -1.68483,1.667772 -2.89121,-3.861522 -0.65812,-3.016397 -6.56597,-11.204567 -8.08421,-11.204567 -1.51824,0 -7.42609,8.18817 -8.08421,11.204567 -1.2104,5.547717 -1.43716,5.836396 -2.95969,3.767866 -1.6212,-2.202572 -1.932,-1.631513 -2.91773,5.361016 -0.81258,5.764207 -3.67303,12.162087 -7.72485,17.277932 -3.14463,3.970416 -14.02529,11.823535 -16.21856,11.705742 -0.602224,-0.03234 -0.24734,-0.594844 0.78863,-1.25 z m 20.30391,-58.337026 c -1.37384,-1.373843 -0.66124,-3.495758 1.0625,-3.163796 0.9625,0.18536 1.75,0.968356 1.75,1.739991 0,1.578853 -1.76429,2.472012 -2.8125,1.423805 z m 30.84512,-0.301381 C 151.53332,18.630147 152.65455,17 154.51228,17 c 0.87615,0 1.37805,0.702561 1.19098,1.667134 -0.38952,2.008464 -2.38616,2.849215 -3.2907,1.385652 z m -35.37812,-7.490439 c 0.19002,-0.917394 0.7955,-1.64422 1.3455,-1.615168 1.48429,0.0784 1.2116,2.315619 -0.3455,2.834655 -0.84112,0.280374 -1.21599,-0.17677 -1,-1.219487 z M 157.37994,13 c -0.81551,-1.319515 0.38021,-3.1920692 1.5691,-2.457295 C 160.16365,11.293379 160.15576,14 158.93896,14 c -0.51754,0 -1.2191,-0.45 -1.55902,-1 z M 111.51942,8.3061468 C 110.39324,7.1799629 110.83353,6 112.37994,6 c 0.825,0 1.5,0.4234424 1.5,0.940983 0,1.2609777 -1.56159,2.1640945 -2.36052,1.3651638 z m 52,0 C 162.39324,7.1799629 162.83353,6 164.37994,6 c 0.825,0 1.5,0.4234424 1.5,0.940983 0,1.2609777 -1.56159,2.1640945 -2.36052,1.3651638 z M 104.87994,3.5 c 0,-0.825 0.45,-1.5 1,-1.5 0.55,0 1,0.675 1,1.5 0,0.825 -0.45,1.5 -1,1.5 -0.55,0 -1,-0.675 -1,-1.5 z m 65,0 c 0,-0.825 0.45,-1.5 1,-1.5 0.55,0 1,0.675 1,1.5 0,0.825 -0.45,1.5 -1,1.5 -0.55,0 -1,-0.675 -1,-1.5 z M 97.879942,1.559017 c 0,-0.85745935 0.45,-1.559017 1,-1.559017 0.55,0 1,0.42344235 1,0.94098301 0,0.51754069 -0.45,1.21909829 -1,1.55901699 -0.55,0.3399187 -1,-0.083524 -1,-0.940983 z m 79.542708,0.5100813 c -0.31644,-0.5119959 -0.11799,-1.21355358 0.44098,-1.55901699 0.55897,-0.34546342 1.01631,0.0734423 1.01631,0.93090169 0,1.7565261 -0.60006,2.0151586 -1.45729,0.6281153 z M 89.879942,1 c 0,-0.55 0.45,-1 1,-1 0.55,0 1,0.45 1,1 0,0.55 -0.45,1 -1,1 -0.55,0 -1,-0.45 -1,-1 z m 94.999998,0 c 0,-0.55 0.45,-1 1,-1 0.55,0 1,0.45 1,1 0,0.55 -0.45,1 -1,1 -0.55,0 -1,-0.45 -1,-1 z"
     style="fill:#394B5F" />
</svg>
