<?xml version="1.0" encoding="UTF-8" standalone="no"?>
<svg
   xmlns:dc="http://purl.org/dc/elements/1.1/"
   xmlns:cc="http://creativecommons.org/ns#"
   xmlns:rdf="http://www.w3.org/1999/02/22-rdf-syntax-ns#"
   xmlns:svg="http://www.w3.org/2000/svg"
   xmlns="http://www.w3.org/2000/svg"
   viewBox="0 0 583.90936 269.00003"
   height="269.00003"
   width="583.90936"
   version="1.1"
   id="svg2">
  <metadata
     id="metadata8">
    <rdf:RDF>
      <cc:Work
         rdf:about="">
        <dc:format>image/svg+xml</dc:format>
        <dc:type
           rdf:resource="http://purl.org/dc/dcmitype/StillImage" />
        <dc:title></dc:title>
      </cc:Work>
    </rdf:RDF>
  </metadata>
  <defs
     id="defs6" />
  <path
     id="path3340"
     d="M 3.0290247e-4,267.75 C 0.0212029,267.0625 2.6225629,259.75 5.7810829,251.5 11.343353,236.97146 11.619743,236.49055 14.574793,236.19919 l 3.05095,-0.30081 5.82123,15.30081 c 3.20167,8.41545 6.02554,15.86331 6.27526,16.55081 0.31441,0.86562 -0.76023,1.25 -3.49467,1.25 -3.74042,0 -4.01192,-0.21099 -5.14713,-4 l -1.19843,-4 -5.30157,0 -5.3015701,0 -1.19843,4 c -1.09807,3.665 -1.48819,4 -4.65829,4 -2.1215,0 -3.44515,-0.48353 -3.42183999753,-1.25 z M 17.962283,255.67814 c 0,-0.17702 -0.73884,-2.49024 -1.64187,-5.14047 l -1.64186,-4.81861 -1.85732,4.89047 c -1.02153,2.68976 -1.85769,5.00297 -1.85814,5.14047 -4.4e-4,0.1375 1.57419,0.25 3.49919,0.25 1.925,0 3.5,-0.14484 3.5,-0.32186 z m 14,-3.17814 0,-16.5 8.04966,0 c 12.13884,0 16.95034,3.34044 16.95034,11.76796 0,3.30788 -0.60275,4.92569 -2.56695,6.8899 l -2.56695,2.56695 3.56695,5.37221 c 1.96182,2.95472 3.56695,5.60413 3.56695,5.8876 0,0.28346 -1.7614,0.51538 -3.91423,0.51538 -3.6202,0 -4.14532,-0.37559 -6.99075,-5 -2.49082,-4.0481 -3.60184,-5.00012 -5.83578,-5.00062 -2.69073,-6.1e-4 -2.75064,0.12354 -2.41273,5 l 0.34652,5.00062 -4.09652,0 -4.09651,0 0,-16.5 z m 16.8,-1.7 c 0.66,-0.66 1.2,-2.145 1.2,-3.3 0,-3.14439 -1.94305,-4.5 -6.45,-4.5 l -4.05,0 0,4.5 0,4.5 4.05,0 c 2.2275,0 4.59,-0.54 5.25,-1.2 z m 12.2,1.7 0,-16.5 3.98921,0 3.98922,0 4.35215,8.66118 c 3.20932,6.38686 4.59021,8.29063 5.25872,7.25 0.49862,-0.77615 2.55304,-4.56118 4.56539,-8.41118 3.39944,-6.50378 3.91352,-7.022 7.25206,-7.31037 l 3.59325,-0.31036 0,16.56036 0,16.56037 -3.5,0 -3.5,0 -0.0492,-9.25 -0.0492,-9.25 -3.46461,6.75 c -2.50518,4.88086 -4.01075,6.75 -5.43699,6.75 -1.42624,0 -2.93181,-1.86914 -5.43703,-6.75 l -3.4646,-6.75 -0.0492,9.25 -0.04917,9.25 -4,0 -4,0 0,-16.5 z m 36,15.63851 c 0,-0.54022 2.63973,-7.87989 5.866077,-16.31037 5.65815,-14.78484 5.97263,-15.33891 8.87235,-15.63198 2.15358,-0.21766 3.20843,0.2078 3.719,1.5 3.02566,7.65762 11.54257,30.37512 11.54257,30.78796 0,0.28373 -1.57864,0.51588 -3.5081,0.51588 -3.16627,0 -3.66591,-0.39441 -5.12771,-4.04783 l -1.61963,-4.04783 -5.03781,0.29783 c -4.77336,0.2822 -5.0991,0.48155 -6.20543,3.79783 -1.01726,3.04929 -1.63982,3.53997 -4.83447,3.81037 -2.016767,0.1707 -3.666847,-0.13164 -3.666847,-0.67186 z M 114.56271,253.5441 c -0.91849,-3.65952 -2.61083,-7.87559 -2.98355,-7.43279 -0.17995,0.21378 -1.04004,2.52619 -1.91133,5.13869 l -1.58415,4.75 3.54771,0 c 3.26789,0 3.49909,-0.1937 2.93132,-2.4559 z m 19.39957,2.4559 0,-13 -5,0 -5,0 0,-3.5 0,-3.5 13.5,0 13.5,0 0,3.5 0,3.5 -5,0 -5,0 0,13 0,13 -3.5,0 -3.5,0 0,-13 z m 14,12.48412 c 0,-0.41284 8.51691,-23.13034 11.54257,-30.78796 0.51057,-1.2922 1.56542,-1.71766 3.719,-1.5 2.89972,0.29307 3.2142,0.84714 8.87235,15.63198 3.22635,8.43048 5.86608,15.77015 5.86608,16.31037 0,0.54022 -1.65008,0.84256 -3.66685,0.67186 -3.19465,-0.2704 -3.81721,-0.76108 -4.83447,-3.81037 -1.10633,-3.31628 -1.43207,-3.51563 -6.20543,-3.79783 l -5.03781,-0.29783 -1.61963,4.04783 c -1.4618,3.65342 -1.96144,4.04783 -5.12771,4.04783 -1.92946,0 -3.5081,-0.23215 -3.5081,-0.51588 z m 17.15351,-17.39696 c -0.90943,-2.70207 -1.8617,-4.70638 -2.11615,-4.45403 -0.25445,0.25234 -1.22346,2.46312 -2.15335,4.91284 L 159.15557,256 l 3.80686,0 3.80686,0 -1.6535,-4.91284 z m 24.84649,1.41284 0,-16.5 11,0 11,0 0,3.5 0,3.5 -7.5,0 -7.5,0 0,3.5 0,3.5 6,0 c 6,0 6,0 6,3 0,3 0,3 -6,3 l -6,0 0,6.5 0,6.5 -3.5,0 -3.5,0 0,-16.5 z m 25,0 0,-16.5 3.5,0 3.5,0 0,16.5 0,16.5 -3.5,0 -3.5,0 0,-16.5 z m 12,0 0,-16.5 2.75,9.4e-4 c 2.28928,7.9e-4 4.07405,1.67612 10.65321,10 4.34676,5.49948 7.94676,10.00004 8,10.00124 0.0532,10e-4 -0.0456,-4.4988 -0.21962,-10 L 247.82945,236 l 4.06642,0 4.06641,0 0,16.5 0,16.5 -3.25,-0.0429 c -2.9003,-0.0383 -4.05699,-1.07312 -10.75,-9.61714 l -7.5,-9.5742 -0.28621,9.61714 -0.28621,9.61714 -3.46379,0 -3.46379,0 0,-16.5 z m 31.01173,15.25 c 0.006,-0.6875 2.6034,-8 5.77101,-16.25 5.59017,-14.55958 5.84951,-15.00886 8.83253,-15.30174 l 3.07326,-0.30175 5.56304,14.80175 c 3.05967,8.14096 5.87789,15.58924 6.26272,16.55174 0.59547,1.48934 0.11154,1.75 -3.24901,1.75 -3.74042,0 -4.01192,-0.21099 -5.14713,-4 l -1.19843,-4 -5.30157,0 -5.30157,0 -1.19843,4 c -1.09807,3.665 -1.48819,4 -4.65829,4 -2.10748,0 -3.45528,-0.4886 -3.44813,-1.25 z m 17.98827,-12.07186 c 0,-0.17702 -0.73884,-2.49024 -1.64187,-5.14047 l -1.64186,-4.81861 -1.85732,4.89047 c -1.02153,2.68976 -1.85769,5.00297 -1.85814,5.14047 -4.4e-4,0.1375 1.57419,0.25 3.49919,0.25 1.925,0 3.5,-0.14484 3.5,-0.32186 z m 14,-3.17814 0,-16.5 2.83858,0 c 2.36993,0 3.97966,1.43435 9.75,8.68779 3.80128,4.77828 7.36142,9.28934 7.91142,10.02457 0.68265,0.91256 0.89959,-1.8445 0.68359,-8.68779 L 310.82945,236 l 4.06642,0 4.06641,0 0,16.5 0,16.5 -2.96817,0 c -2.54638,0 -4.05396,-1.34996 -10.60916,-9.5 -4.20254,-5.225 -7.70437,-9.50101 -7.78183,-9.50224 -0.0775,-0.001 0.003,4.27376 0.17778,9.5 l 0.31862,9.50224 -4.06862,0 -4.06862,0 0,-16.5 z m 40.38856,14.59523 c -10.1197,-6.17081 -11.15908,-20.59205 -1.98828,-27.58696 6.55578,-5.00035 14.98213,-4.30767 20.57072,1.69097 2.62942,2.82236 2.58077,3.0683 -0.9129,4.61475 -2.63014,1.16421 -3.16,1.08411 -5,-0.75589 -4.39489,-4.39489 -11.92,-1.54711 -13.57905,5.13879 -1.02337,4.12418 1.2205,9.59638 4.66547,11.37785 4.57032,2.3634 10.57492,0.0738 9.98031,-3.8055 -0.0616,-0.40192 1.46011,0.0189 3.38158,0.93521 4.07788,1.9446 4.32851,3.16481 1.24359,6.05462 -4.82978,4.52433 -13.05648,5.57102 -18.36144,2.33616 z M 353.96228,252.5 l 0,-16.5 3.5,0 3.5,0 0,16.5 0,16.5 -3.5,0 -3.5,0 0,-16.5 z m 10.05826,15.25 c 0.032,-0.6875 2.65805,-8 5.83556,-16.25 5.5657,-14.45058 5.88756,-15.01106 8.78748,-15.30185 l 3.01018,-0.30186 6.15426,16.02241 c 3.38484,8.81232 6.15426,16.26065 6.15426,16.55185 0,0.2912 -1.6112,0.52945 -3.58045,0.52945 -3.24864,0 -3.72605,-0.37068 -5.15169,-4 -1.56032,-3.97221 -1.6084,-4 -6.91955,-4 -4.01041,0 -5.34831,0.36346 -5.34831,1.45295 0,0.79912 -0.52223,2.59912 -1.16052,4 -0.90636,1.98925 -1.89185,2.54705 -4.5,2.54705 -2.03599,0 -3.31674,-0.48791 -3.28122,-1.25 z m 17.91552,-13 c -0.0144,-0.6875 -0.81018,-2.99491 -1.76834,-5.12757 l -1.7421,-3.87757 -1.63973,5.12757 -1.63973,5.12757 3.40806,0 c 2.07377,0 3.39779,-0.48939 3.38184,-1.25 z m 14.02622,-2.25 0,-16.5 4,0 4,0 0,13 0,13 8,0 8,0 0,3.5 0,3.5 -12,0 -12,0 0,-16.5 z m 42.20665,14.83133 c -7.50907,-3.70084 -10.73106,-16.32643 -5.95665,-23.3415 3.04203,-4.46967 6.56596,-6.92343 10.96916,-7.63797 4.82826,-0.78352 7.95295,0.0806 11.70377,3.23674 3.70003,3.11337 3.86635,4.65103 0.68714,6.35249 -2.08943,1.11823 -2.65524,1.01374 -4.5,-0.83102 -2.74824,-2.74824 -8.40278,-2.81736 -11.08463,-0.13551 -4.73245,4.73245 -3.6714,13.37645 2.01573,16.42145 3.40699,1.82417 3.68171,1.82933 7.25,0.13606 4.54317,-2.15587 4.91482,-4.53207 0.70883,-4.53207 -2.53333,0 -3,-0.38889 -3,-2.5 0,-2.38889 0.26667,-2.5 6,-2.5 l 6,0 0,8.5 0,8.5 -2.91667,0 c -1.60416,0 -3.08817,-0.51453 -3.2978,-1.1434 -0.28595,-0.85786 -0.91465,-0.85786 -2.51759,0 -3.00554,1.60852 -8.18992,1.38274 -12.06129,-0.52527 z M 463.96228,252.5 l 0,-16.5 7.59887,0 c 8.77759,0 13.17839,1.66006 15.69507,5.92045 2.42918,4.11227 2.14255,8.40736 -0.79394,11.89718 -1.375,1.6341 -2.5,3.23686 -2.5,3.5617 0,0.32484 1.35,2.78465 3,5.46625 1.65,2.68159 3,5.16335 3,5.51502 0,0.35167 -1.6875,0.63047 -3.75,0.61956 -3.42795,-0.0181 -4.00392,-0.44754 -6.70668,-5 -2.42184,-4.07931 -3.46195,-4.98016 -5.75,-4.98016 -2.68532,0 -2.79332,0.19332 -2.79332,5 l 0,5 -3.5,0 -3.5,0 0,-16.5 z m 16.5,-5 0,-4 -4.75,-0.30479 -4.75,-0.30479 0,4.60958 0,4.60958 4.75,-0.30479 4.75,-0.30479 0,-4 z m 18.48983,19.25 c -5.16486,-3.51517 -7.27577,-7.06953 -7.69599,-12.95853 -0.4761,-6.67224 2.4848,-12.25269 8.22654,-15.50464 7.04437,-3.98971 13.32803,-2.64032 19.28185,4.14071 5.24118,5.96937 5.25334,14.41822 0.0303,21.05824 -4.45857,5.66816 -14.00349,7.23835 -19.84269,3.26422 z m 13.76017,-7.38658 c 3.23724,-3.56089 3.13416,-10.57017 -0.20455,-13.90887 -3.22172,-3.22173 -8.41439,-3.31622 -11.2399,-0.20455 -4.66222,5.13442 -3.56199,13.86799 2.053,16.29656 3.84615,1.66352 6.44327,1.05979 9.39145,-2.18314 z m 19.66996,7.7509 c -5.04516,-3.07653 -6.41996,-7.36273 -6.41996,-20.01545 l 0,-11.09887 3.41395,0 3.41394,0 0.33606,11.46694 c 0.37714,12.86921 1.31005,14.86639 6.94426,14.86639 5.62988,0 6.89179,-2.82787 6.89179,-15.44411 l 0,-10.88922 3.5,0 3.5,0 0,11.54966 c 0,13.03718 -1.05169,16.29163 -6.29855,19.49082 -4.1366,2.52224 -11.21034,2.55642 -15.28149,0.0738 z M 559.96228,252.5 l 0,-16.5 7.54966,0 c 8.69308,0 12.66924,1.58884 14.93341,5.96727 C 586.84862,250.48225 580.87218,259 570.4944,259 l -3.53212,0 0,5 0,5 -3.5,0 -3.5,0 0,-16.5 z m 16.34405,-2.67234 c 0.74164,-1.18375 0.70462,-2.42543 -0.12671,-4.25 C 575.20084,243.42947 574.33514,243 570.98372,243 l -4.02144,0 0,4.5575 0,4.5575 4.14816,-0.3075 c 2.53099,-0.18762 4.55661,-0.95946 5.19589,-1.97984 z M 96.962283,180.33786 c 0,-4.41916 -0.4252,-3.68032 27.530097,-47.83786 12.1868,-19.25 26.13279,-41.3 30.99108,-49 4.85828,-7.7 10.72114,-16.925 13.02858,-20.5 2.30743,-3.575 10.59642,-16.625 18.41997,-29 7.82355,-12.375 15.86841,-25.083564 17.87745,-28.241254 l 3.65282,-5.741253 19.75,-0.008747 19.75,-0.008746 0,92 0,92 -26.30626,0 -26.30626,0 4.63391,-34.25 c 2.54864,-18.8375 4.53899,-34.38497 4.42299,-34.54993 -0.116,-0.16496 -2.40094,-0.006 -5.07764,0.35405 l -4.86674,0.65398 -17.45615,33.89595 L 159.54997,184 l -31.29384,0 -31.293847,0 0,-3.66214 z M 199.93191,102.25 c 6.36019,-12.606524 6.44549,-12.885036 7.58087,-24.75 0.63157,-6.6 1.02385,-12.154723 0.87174,-12.34383 -0.21818,-0.271241 -29.77273,43.52038 -32.79552,48.59383 -0.57429,0.96389 1.39022,1.25 8.58279,1.25 l 9.32754,0 6.43258,-12.75 z M 252.96228,92 l 0,-92 53,0 53,0 0,19.985953 0,19.985953 -31.75,0.264047 -31.75,0.264047 -0.27207,18.75 -0.27206,18.75 31.3666,0 31.3666,0 0.62436,15.21021 c 0.46972,11.4429 0.32247,15.40202 -0.59453,15.98468 -0.6704,0.42597 -15.0564,0.78138 -31.9689,0.7898 l -30.75,0.0153 0,37 0,37 -21,0 -21,0 0,-92 z m 109,0 0,-92 62.5,0 62.5,0 0,30.5 0,30.5 -18.5,0 -18.5,0 0,-10.811439 C 449.96228,34.371761 450.93291,35 426.49591,35 l -19.38847,0 -2.07258,2.634859 c -2.03834,2.591333 -2.07258,3.522092 -2.07258,56.345011 0,53.33311 0.0148,53.72353 2.10499,55.61514 1.91685,1.73473 3.82901,1.90499 21.39501,1.90499 17.566,0 19.47816,-0.17026 21.39501,-1.90499 1.52472,-1.37985 2.10499,-3.10274 2.10499,-6.25 l 0,-4.34501 -17,0 -17,0 0,-13 0,-13 35.5,0 35.5,0 0,35.5 0,35.5 -62.5,0 -62.5,0 0,-92 z"
     style="fill:#63778d" />
</svg>
