<?xml version="1.0" encoding="UTF-8" standalone="no"?>
<svg
   xmlns:dc="http://purl.org/dc/elements/1.1/"
   xmlns:cc="http://creativecommons.org/ns#"
   xmlns:rdf="http://www.w3.org/1999/02/22-rdf-syntax-ns#"
   xmlns:svg="http://www.w3.org/2000/svg"
   xmlns="http://www.w3.org/2000/svg"
   id="svg2"
   version="1.1"
   width="190"
   height="190"
   viewBox="0 0 190 190">
  <metadata
     id="metadata8">
    <rdf:RDF>
      <cc:Work
         rdf:about="">
        <dc:format>image/svg+xml</dc:format>
        <dc:type
           rdf:resource="http://purl.org/dc/dcmitype/StillImage" />
        <dc:title></dc:title>
      </cc:Work>
    </rdf:RDF>
  </metadata>
  <defs
     id="defs6" />
  <path
     style="fill:#f39f18;fill-opacity:1"
     d="m 0,95 0,-95 95,0 95,0 0,95 0,95 -95,0 -95,0 0,-95 z m 84.714262,17.74321 c 3.969365,-2.68342 8.739771,-9.19955 7.822029,-10.68449 -1.371905,-2.219789 -8.886284,-1.12397 -13.436772,1.95948 -4.976899,3.37239 -6.943181,3.63113 -11.132252,1.46487 -7.439426,-3.84707 -7.872961,-15.93358 -0.750472,-20.922366 3.334912,-2.335863 6.981962,-1.899699 11.882724,1.421099 4.577417,3.101696 12.067221,4.175457 13.455587,1.929034 1.105645,-1.788971 -5.03628,-9.239626 -9.610811,-11.658696 -5.717627,-3.023554 -14.613388,-3.074835 -20.71843,-0.119434 -13.916043,6.73664 -14.871745,26.408243 -1.768539,36.402543 6.206095,4.73362 17.42028,4.82976 24.256936,0.20796 z M 23,113 c 1.957739,-2.74939 2.626029,-3 8,-3 5.373971,0 6.042261,0.25061 8,3 1.815972,2.5503 2.791687,3 6.509077,3 2.405089,0 4.637901,-0.4288 4.961805,-0.95289 0.323903,-0.52408 -2.867344,-9.74908 -7.091662,-20.499996 L 35.698642,75 l -4.686566,0 -4.686565,0 -7.715409,19.510296 c -4.243475,10.730664 -7.440157,19.955664 -7.103739,20.500004 0.336419,0.54433 2.579471,0.9897 4.98456,0.9897 3.71739,0 4.693105,-0.4497 6.509077,-3 z m 4.715486,-12.75 c -0.221402,-0.4125 0.367689,-3.225 1.30909,-6.25 l 1.711638,-5.5 1.563993,3.555373 c 0.860196,1.955455 1.868331,4.767955 2.240301,6.25 C 35.179783,100.85245 35.022462,101 31.667425,101 c -1.952165,0 -3.730538,-0.3375 -3.951939,-0.75 z m 101.640564,12.73866 c 4.26792,-2.88907 9.13261,-9.38897 8.18024,-10.92994 -1.3719,-2.219789 -8.88628,-1.12397 -13.43677,1.95948 -4.9769,3.37239 -6.94318,3.63113 -11.13225,1.46487 -9.2755,-4.79654 -7.08565,-20.472605 3.08648,-22.094658 2.75034,-0.43857 4.35495,0.06885 7.94625,2.512826 4.67166,3.179187 12.1473,4.28748 13.55511,2.009599 1.1113,-1.798131 -5.04415,-9.241895 -9.70353,-11.734441 -6.04927,-3.236069 -16.79023,-2.832237 -22.20763,0.834949 -7.277087,4.926052 -10.878388,13.594999 -9.251129,22.269036 1.003185,5.347429 6.140349,12.272639 10.894389,14.686289 5.99526,3.04381 16.83734,2.56333 22.06884,-0.97801 z m 20.84888,0.26134 c 1.21473,-2.54212 1.81992,-2.77227 8.00583,-3.04458 6.58619,-0.28993 6.71703,-0.24574 8.29228,2.80046 1.51625,2.9321 1.87418,3.07923 6.79874,2.79458 3.99724,-0.23104 5.12495,-0.64702 4.88108,-1.80046 -0.17442,-0.825 -3.73516,-10.1625 -7.91275,-20.75 L 162.67449,74 l -4.25243,0 -4.25243,0 -8.08481,20.347176 C 141.63817,105.53812 138,114.98812 138,115.34718 c 0,0.35905 2.45045,0.65282 5.44543,0.65282 4.95525,0 5.56373,-0.24755 6.7595,-2.75 z M 155,99.903907 c 0,-0.602851 0.74206,-3.640351 1.64903,-6.75 L 158.29805,87.5 l 1.86894,5.481999 c 1.02791,3.0151 1.64997,6.0526 1.38236,6.75 C 160.95486,101.2812 155,101.4375 155,99.903907 Z"
     id="path3338" />
</svg>
