<?xml version="1.0" encoding="UTF-8" standalone="no"?>
<svg
   xmlns:dc="http://purl.org/dc/elements/1.1/"
   xmlns:cc="http://creativecommons.org/ns#"
   xmlns:rdf="http://www.w3.org/1999/02/22-rdf-syntax-ns#"
   xmlns:svg="http://www.w3.org/2000/svg"
   xmlns="http://www.w3.org/2000/svg"
   id="svg2"
   version="1.1"
   width="76.402344"
   height="75.208984"
   viewBox="0 0 76.402344 75.208984">
  <metadata
     id="metadata8">
    <rdf:RDF>
      <cc:Work
         rdf:about="">
        <dc:format>image/svg+xml</dc:format>
        <dc:type
           rdf:resource="http://purl.org/dc/dcmitype/StillImage" />
        <dc:title></dc:title>
      </cc:Work>
    </rdf:RDF>
  </metadata>
  <defs
     id="defs6" />
  <g
     id="g3338"
     transform="translate(0.06594281,-0.21375135)">
    <path
       style="fill:#f39f18;fill-opacity:1"
       d="M 38.135229,0.21375135 A 38.201744,37.604843 0 0 0 -0.0659428,37.817267 38.201744,37.604843 0 0 0 38.135229,75.422736 38.201744,37.604843 0 0 0 76.336401,37.817267 38.201744,37.604843 0 0 0 38.135229,0.21375135 Z M 60.992651,19.635626 c 0.501794,0 -0.19828,0.874874 -1.556641,1.94336 -1.35836,1.068487 -5.789954,6.805987 -9.847656,12.75 -4.057702,5.944014 -11.088531,14.51914 -15.623047,19.05664 -8.727163,8.732907 -11.951963,10.357174 -10.880859,5.480469 0.827337,-3.766839 -0.971618,-5.87332 -6.949219,-8.136719 -2.75,-1.041278 -4.905389,-2.21425 -4.789062,-2.607421 0.116325,-0.393172 4.166324,-2.03826 8.999999,-3.654297 10.295924,-3.442225 19.787818,-8.822741 28.525391,-16.173829 7.241402,-6.092331 10.832337,-8.658203 12.121094,-8.658203 z"
       id="path3344-8" />
  </g>
</svg>
