<?xml version="1.0" encoding="UTF-8" standalone="no"?>
<svg
   xmlns:dc="http://purl.org/dc/elements/1.1/"
   xmlns:cc="http://creativecommons.org/ns#"
   xmlns:rdf="http://www.w3.org/1999/02/22-rdf-syntax-ns#"
   xmlns:svg="http://www.w3.org/2000/svg"
   xmlns="http://www.w3.org/2000/svg"
   id="svg2"
   version="1.1"
   width="105.6998"
   height="109.94563"
   viewBox="0 0 105.6998 109.94563">
  <metadata
     id="metadata8">
    <rdf:RDF>
      <cc:Work
         rdf:about="">
        <dc:format>image/svg+xml</dc:format>
        <dc:type
           rdf:resource="http://purl.org/dc/dcmitype/StillImage" />
        <dc:title></dc:title>
      </cc:Work>
    </rdf:RDF>
  </metadata>
  <defs
     id="defs6" />
  <path
     style="fill:#f39f18;fill-opacity:1"
     d="M 48.33763,107.85486 C 43.45377,104.57098 29.87544,98.399692 22.10558,95.932526 L 14.873533,93.636133 12.699545,87.077184 C 11.503852,83.469762 8.157307,74.781273 5.262779,67.769431 L 0,55.020627 5.037437,43.769431 c 2.77059,-6.188158 6.198666,-14.938576 7.617945,-19.445373 L 15.235891,16.12988 24.21065,12.995911 C 29.14677,11.272229 37.60716,7.6430054 43.01152,4.9309712 L 52.83763,0 l 9.75,4.88999 c 5.3625,2.6894944 13.35,6.137271 17.75,7.661727 4.4,1.524455 8.50891,3.265562 9.13092,3.869127 0.62201,0.603565 2.36896,4.922391 3.88212,9.597391 1.51316,4.675 4.91073,13.11313 7.55017,18.751399 l 4.79896,10.251399 -4.4015,9.418952 c -2.42083,5.180424 -5.86612,13.92164 -7.65622,19.424925 l -3.25472,10.005973 -8.12853,2.644176 c -4.4707,1.454296 -13.19466,5.087451 -19.38659,8.073681 -6.19192,2.98622 -11.32027,5.39661 -11.39633,5.3564 -0.0761,-0.0402 -1.48828,-0.98083 -3.13828,-2.09028 z m 14.66087,-6.34662 c 5.13652,-2.480508 12.89649,-5.755259 17.24439,-7.277233 l 7.90525,-2.767224 2.65644,-7.972774 c 1.46103,-4.385026 4.73958,-12.60387 7.28565,-18.264098 L 102.71945,54.935588 97.83088,44.10075 C 92.87743,33.122097 88.83763,22.182131 88.83763,19.746614 c 0,-0.76949 -2.92682,-2.277359 -6.91138,-3.560672 C 78.12499,14.961665 70.02073,11.508946 63.91678,8.5132343 L 52.81869,3.0664859 46.4965,6.5415972 C 43.0193,8.4529084 35.09787,11.936024 28.89332,14.281855 L 17.612321,18.547001 13.830146,29.032618 C 11.749951,34.799707 8.463795,42.946951 6.527578,47.137604 l -3.520395,7.619369 6.46669,16.380631 c 3.55668,9.009347 6.837421,17.280631 7.290537,18.380631 0.56666,1.375641 3.476671,2.891649 9.3216,4.856209 4.67376,1.570914 12.26737,4.80153 16.87469,7.179146 4.60731,2.37762 8.89932,4.35483 9.5378,4.3938 0.63848,0.039 5.36348,-1.95865 10.5,-4.43915 z M 43.8371,97.531211 C 39.16239,95.189047 32.079,92.22814 28.09622,90.951417 21.05567,88.69449 20.80874,88.503736 19.193644,84.074169 18.28,81.568406 15.295664,73.990083 12.561788,67.233453 L 7.591103,54.948672 11.11358,47.233453 c 1.937363,-4.24337 4.946541,-11.79839 6.687063,-16.788933 l 3.164587,-9.073715 6.76197,-2.17784 c 3.71909,-1.197811 10.91008,-4.196762 15.97998,-6.664335 l 9.218,-4.486496 8.70622,4.357119 c 4.78843,2.396415 11.63123,5.388852 15.20623,6.649859 3.575,1.261007 6.87837,2.620793 7.34081,3.021748 0.46245,0.400954 2.13943,4.593477 3.72662,9.316719 1.58719,4.723242 4.50684,11.80667 6.48811,15.740952 l 3.60232,7.15324 -3.59076,7.855297 c -1.97491,4.320413 -4.89456,11.735251 -6.48811,16.477416 -1.59355,4.742166 -3.27573,8.951997 -3.73818,9.35518 -0.46244,0.403184 -4.44081,1.982275 -8.84081,3.509092 -4.4,1.526817 -11.37524,4.471384 -15.50053,6.543483 L 52.33657,101.7897 43.8371,97.531211 Z m 10.61749,-7.262976 c 0.38918,-2.0625 0.89707,-3.1875 1.12865,-2.5 0.72572,2.154477 2.25439,1.362329 2.25439,-1.168213 0,-1.330016 0.27314,-3.130016 0.60699,-4 0.86956,-2.266031 3.39301,-1.954998 3.39301,0.418213 0,1.466667 0.66667,2 2.5,2 3.14792,0 3.37109,-2.736666 0.25937,-3.180449 -2.89679,-0.41313 -4.47542,-3.839961 -5.46353,-11.860063 -0.71429,-5.79754 -1.04303,-6.494412 -3.20795,-6.800282 -1.84284,-0.260366 -2.07884,-0.547822 -1,-1.218012 0.77666,-0.482469 1.41211,-2.129112 1.41211,-3.659205 0,-2.123677 0.53242,-2.857605 2.25,-3.10154 4.79231,-0.680616 1.26414,-5.180449 -4.06182,-5.180449 -3.29575,0 -4.83485,2.121635 -5.44113,7.500547 -0.37356,3.314172 -0.1598,4.499453 0.81146,4.499453 0.80704,0 0.46953,0.791035 -0.86995,2.038955 -1.20371,1.121425 -2.18856,3.130699 -2.18856,4.465053 0,3.138468 -2.92845,11.802258 -4.27701,12.653472 -0.57289,0.361614 -1.64493,0.425969 -2.38231,0.143011 -1.32072,-0.50681 -1.96814,2.738714 -0.78278,3.92408 1.14411,1.144104 4.55246,-0.494601 4.0036,-1.924896 -0.39658,-1.033475 0.0794,-1.347853 1.69344,-1.118578 1.73239,0.24608 2.31798,1.079405 2.56441,3.649279 0.22279,2.323366 0.73171,3.172141 1.68308,2.807065 0.89283,-0.342611 1.58692,0.492887 2.0101,2.419624 0.88824,4.044117 2.25616,3.688496 3.10443,-0.807065 z m -4.44452,-8.345487 c -1.09524,-1.753749 -0.87207,-1.904513 2.81908,-1.904513 2.38741,0 4.00848,0.471811 4.00848,1.166667 0,0.641666 -0.30158,0.865088 -0.67018,0.496492 -0.36859,-0.368596 -1.63718,-0.03656 -2.81908,0.737847 -1.91265,1.253215 -2.27968,1.198628 -3.3383,-0.496493 z M 33.23082,71.75668 c 0.56984,-0.903385 0.72536,-1.953227 0.3456,-2.332982 -0.95136,-0.951361 -3.73879,1.509167 -3.73879,3.300315 0,1.810104 2.00106,1.239638 3.39319,-0.967333 z m 42.13388,1.21775 c 0.69368,-1.12239 -1.20416,-3.956195 -2.64952,-3.956195 -1.02462,0 -1.18796,3.356261 -0.21088,4.333333 0.96949,0.969497 2.12205,0.817534 2.8604,-0.377138 z M 29.77676,69.805758 c 1.28522,-2.279194 1.25194,-2.73931 -0.31121,-4.302454 -1.43453,-1.434532 -2.1954,-1.547539 -4.21719,-0.62635 -2.54459,1.159394 -4.14474,3.74061 -3.0176,4.867742 0.35211,0.352113 1.1727,0.107706 1.82354,-0.543128 1.69824,-1.698243 3.26107,-1.463898 1.81968,0.272862 -1.358,1.6363 -0.47182,3.853941 1.30529,3.266415 0.6371,-0.210629 1.80597,-1.531419 2.59749,-2.935087 z m 50.24689,0.771041 c -0.24309,-1.342488 0.152,-1.586056 1.75,-1.078869 1.70719,0.541839 2.06398,0.225671 2.06398,-1.828974 0,-1.36623 0.5625,-2.718285 1.25,-3.004566 0.8866,-0.369188 0.68567,-0.974859 -0.69113,-2.083334 -1.90309,-1.532198 -1.8982,-1.562821 0.25,-1.562821 2.57385,0 2.924,-1.781541 0.53066,-2.699951 -1.42113,-0.54534 -1.34906,-0.752379 0.5,-1.436391 2.54513,-0.941505 2.88442,-2.863658 0.50548,-2.863658 -1.53998,0 -1.53998,-0.127078 0,-1.828741 2.35884,-2.606488 2.05128,-3.487539 -0.95412,-2.733231 l -2.60911,0.654844 2.20894,-2.796436 2.20893,-2.796436 -2.09792,-0.319301 c -1.68249,-0.256074 -1.90725,-0.67558 -1.13501,-2.118517 1.12216,-2.09677 0.43217,-3.152483 -1.56059,-2.387789 -1.09864,0.42159 -1.25929,-0.182548 -0.74956,-2.818901 0.63453,-3.281848 0.60529,-3.317084 -1.33264,-1.605492 -2.7551,2.433326 -2.92715,2.278186 -2.49532,-2.25 0.41199,-4.320092 -0.33883,-5.013419 -2.43657,-2.25 -1.20528,1.587768 -1.33138,1.488969 -1.36024,-1.065741 -0.0175,-1.548658 -0.55247,-3.788621 -1.18884,-4.977696 -1.13082,-2.112952 -1.17456,-2.117128 -1.92972,-0.184259 -0.42497,1.087733 -0.80375,4.677696 -0.84173,7.977696 -0.0575,4.995885 0.34386,6.480139 2.39834,8.869028 1.52202,1.769759 3.05415,2.643872 3.99878,2.281385 1.7092,-0.655885 1.79296,-0.495697 0.92438,1.7678 -0.76907,2.004166 -3.2742,2.054989 -4.03139,0.08179 -0.31658,-0.825 -1.17116,-1.5 -1.89906,-1.5 -0.7279,0 -1.46726,-0.917825 -1.64301,-2.039611 -0.17575,-1.121786 -0.76955,-2.001268 -1.31955,-1.954405 -1.57083,0.133845 -0.68898,9.308753 0.98474,10.245414 0.8008,0.448151 1.94609,2.634868 2.54509,4.85937 0.99508,3.695477 0.86406,4.33956 -1.51807,7.4627 -1.933,2.534287 -3.64251,3.583711 -6.61117,4.05842 -3.34796,0.535359 -3.95459,0.986642 -3.70231,2.75419 0.62871,4.404921 7.71892,2.055216 14.10707,-4.675099 2.39117,-2.519256 2.74702,-3.607833 2.41027,-7.373335 -0.21729,-2.429746 0.051,-4.693393 0.59614,-5.030326 0.56623,-0.349946 0.17594,-1.228816 -0.91027,-2.049806 -1.85485,-1.401948 -1.85243,-1.42861 0.0985,-1.08694 1.62356,0.284336 2.11072,1.383509 2.58828,5.839845 0.32355,3.019271 0.13838,6.614583 -0.41148,7.989583 -0.54987,1.375 -0.9271,2.8375 -0.83828,3.25 0.0888,0.4125 -0.51352,0.75 -1.33852,0.75 -1.91941,0 -1.89528,0.990647 0.0933,3.82973 1.78936,2.554671 4.07321,2.382295 3.59273,-0.271166 z M 45.33763,69.475897 c 0,-1.339135 -0.99706,-2.079592 -3.48561,-2.588555 -2.02763,-0.414695 -4.67602,-2.045184 -6.33155,-3.898034 -3.13801,-3.512046 -3.09246,-4.986507 0.39025,-12.631518 2.05692,-4.515215 2.57905,-10.339555 0.92691,-10.339555 -0.55,0 -1,0.675 -1,1.5 0,0.825 -0.675,1.5 -1.5,1.5 -0.825,0 -1.5,0.626855 -1.5,1.393011 0,1.50245 -2.90224,3.038083 -3.8848,2.055525 -0.3292,-0.329198 0.19468,-1.042448 1.16416,-1.584999 0.96949,-0.542552 1.48296,-1.439089 1.14106,-1.992305 -0.34191,-0.553217 0.28202,-1.242164 1.38651,-1.530994 1.10449,-0.28883 2.26862,-1.496042 2.58696,-2.682692 1.01267,-3.774854 0.65619,-14.508559 -0.50569,-15.226644 -1.69132,-1.045292 -2.85145,1.570979 -2.91293,6.569098 l -0.0553,4.5 -1.4919,-2.75 c -2.13475,-3.934966 -2.76257,-3.410441 -2.17348,1.815892 l 0.51464,4.565891 -2.38459,-2.240205 -2.38459,-2.240206 0,2.674314 c 0,1.710501 -0.5406,2.674314 -1.5,2.674314 -1.774198,0 -1.847347,0.482463 -0.46482,3.065741 0.87427,1.633587 0.70095,1.934259 -1.11501,1.934259 -2.063688,0 -2.084292,0.100577 -0.512129,2.5 1.540949,2.35178 1.529869,2.5 -0.186802,2.5 -2.869808,0 -2.762313,6.839686 0.125805,8.004738 1.624186,0.655187 1.737646,0.884057 0.461976,0.931876 -2.686515,0.100703 -3.152965,2.000601 -0.712798,2.903278 1.887838,0.698356 1.973278,0.91946 0.564245,1.460157 -2.476902,0.950476 -2.004699,2.699951 0.728743,2.699951 2.25784,0 8.24807,-3.89607 6.09887,-3.966731 -1.43779,-0.04727 -0.28212,-11.278933 1.21116,-11.770957 0.87998,-0.289944 0.96616,0.417583 0.32371,2.657645 -1.68889,5.888833 -0.33308,10.214341 4.62984,14.770793 5.72814,5.259002 11.84721,6.688109 11.84721,2.766912 z m -1.08179,-4.064651 c 2.32361,-0.891653 1.93018,-2.310053 -0.94384,-3.402754 -3.35773,-1.276609 -4.11718,-3.622484 -1.94851,-6.018837 1.40431,-1.551744 1.58063,-2.608914 0.85633,-5.134407 -0.97889,-3.413162 -3.38219,-5.08225 -3.38219,-2.348918 0,0.910119 -0.675,2.329762 -1.5,3.154762 -0.91699,0.916985 -1.5,3.367074 -1.5,6.303668 0,4.424214 0.25672,4.930225 3.25,6.405802 3.86352,1.904578 3.24271,1.779569 5.16821,1.040684 z m 21.6018,-0.903361 c 5.14855,-2.662415 6.44072,-7.54462 2.97999,-11.259275 -1.1,-1.180712 -2,-3.039007 -2,-4.129545 0,-3.70474 -1.89743,-3.175207 -3.10868,0.867567 -1.03717,3.461768 -0.97392,4.282849 0.45121,5.857604 2.48148,2.741999 2.01051,4.855276 -1.34253,6.024154 -2.92942,1.0212 -3.67793,2.13858 -2.33333,3.483178 0.99991,0.999914 2.13378,0.821217 5.35334,-0.843683 z"
     id="path3338" />
</svg>
