<?xml version="1.0" encoding="UTF-8" standalone="no"?>
<svg
   xmlns:dc="http://purl.org/dc/elements/1.1/"
   xmlns:cc="http://creativecommons.org/ns#"
   xmlns:rdf="http://www.w3.org/1999/02/22-rdf-syntax-ns#"
   xmlns:svg="http://www.w3.org/2000/svg"
   xmlns="http://www.w3.org/2000/svg"
   id="svg2"
   version="1.1"
   width="89.086113"
   height="118"
   viewBox="0 0 89.086113 118">
  <metadata
     id="metadata8">
    <rdf:RDF>
      <cc:Work
         rdf:about="">
        <dc:format>image/svg+xml</dc:format>
        <dc:type
           rdf:resource="http://purl.org/dc/dcmitype/StillImage" />
        <dc:title></dc:title>
      </cc:Work>
    </rdf:RDF>
  </metadata>
  <defs
     id="defs6" />
  <path
     style="fill:#f39f18;fill-opacity:1"
     d="m 19.392212,115.5 0,-2.5 25,0 25,0 0,2.5 0,2.5 -25,0 -25,0 0,-2.5 z m 0,-15 0,-10.5 25,0 25,0 0,10.5 0,10.5 -25,0 -25,0 0,-10.5 z m 17,-13.340037 c 0,-0.462021 0.9,-4.359004 2,-8.659963 1.1,-4.300959 2,-9.737491 2,-12.081182 0,-3.859049 -0.624295,-4.94154 -6.614189,-11.468616 C 30.140219,50.986155 26.108934,45.438203 24.819611,42.621422 22.272017,37.055697 19.895568,23.842617 18.817568,9.25 L 18.134243,0 43.915632,0 69.69702,0 69.048921,11.34744 c -1.376589,24.102435 -4.528181,34.079257 -13.995644,44.305247 -4.759519,5.140849 -5.661065,6.703822 -5.661065,9.814357 0,3.252993 2.932462,16.587423 4.608209,20.954349 C 54.52496,87.78832 53.385008,88 45.499201,88 40.490357,88 36.392212,87.621983 36.392212,87.159963 Z M 68.518103,52.452476 c -2.498768,-2.102574 -3.125891,-3.39828 -3.125891,-6.458435 0,-3.214838 0.625555,-4.36216 3.904456,-7.161106 3.577373,-3.053729 4.205661,-4.397208 7.5,-16.037377 1.977549,-6.987444 3.595544,-13.3726411 3.595544,-14.1893281 0,-1.109956 -1.073113,-1.4370808 -4.25,-1.2955577 C 72.032761,7.4937389 71.881849,7.3925217 71.578854,4.25 L 71.265495,1 80.396241,1 c 8.262423,0 9.077596,0.1674603 8.571855,1.7609093 C 88.660706,3.7294094 86.364475,11.881934 83.86536,20.877631 78.246774,41.102024 77.079288,44 74.550227,44 c -2.518003,0 -3.464278,2.500935 -1.548016,4.091291 1.668862,1.385032 1.503849,6.053249 -0.234108,6.62296 -0.618261,0.202669 -2.530761,-0.81513 -4.25,-2.261775 z M 15.018996,53.293451 C 14.025601,52.300056 14.290978,48.1806 15.392212,47.5 17.306354,46.316995 16.466819,43.149742 14.151579,42.819551 12.91923,42.643798 11.37667,41.375 10.723668,40 8.8722612,36.101572 -0.5234118,1.6724929 0.02289057,0.78855712 0.29093587,0.3548507 4.308688,0 8.9512287,0 l 8.4409833,0 0,3 c 0,2.8829826 -0.173224,3 -4.440983,3 -2.442541,0 -4.6286724,0.3375 -4.8580701,0.75 -0.2293977,0.4125 1.3279858,6.789879 3.4608531,14.171954 3.523624,12.195632 4.241592,13.757675 7.85807,17.09639 4.143288,3.825062 5.031676,7.148307 2.950486,11.037047 -1.165198,2.177191 -6.389459,5.192173 -7.343572,4.23806 z"
     id="path3338" />
</svg>
