<?xml version="1.0" encoding="UTF-8" standalone="no"?>
<svg
   xmlns:dc="http://purl.org/dc/elements/1.1/"
   xmlns:cc="http://creativecommons.org/ns#"
   xmlns:rdf="http://www.w3.org/1999/02/22-rdf-syntax-ns#"
   xmlns:svg="http://www.w3.org/2000/svg"
   xmlns="http://www.w3.org/2000/svg"
   id="svg2"
   version="1.1"
   width="425.31851"
   height="467.12198"
   viewBox="0 0 425.31851 467.12198">
  <metadata
     id="metadata8">
    <rdf:RDF>
      <cc:Work
         rdf:about="">
        <dc:format>image/svg+xml</dc:format>
        <dc:type
           rdf:resource="http://purl.org/dc/dcmitype/StillImage" />
        <dc:title></dc:title>
      </cc:Work>
    </rdf:RDF>
  </metadata>
  <defs
     id="defs6" />
  <path
     style="fill:#ffffff"
     d="m 297.78033,465.14168 c -17.34336,-4.98364 -29.97131,-17.09977 -36.2096,-34.74202 l -2.7904,-7.89139 0,-37.5 c 0,-41.00376 0.25205,-43.36778 5.86405,-55 3.95137,-8.19016 13.94351,-18.42386 22.2174,-22.75451 11.37882,-5.9558 13.95729,-6.24549 55.59055,-6.24549 37.04746,0 37.89234,0.0446 45.28385,2.39187 9.36569,2.97416 15.67844,6.9713 22.79789,14.43531 6.56447,6.88215 11.37701,15.94129 13.30791,25.05082 1.76123,8.3091 2.03294,71.52242 0.34682,80.68834 -3.65214,19.85346 -19.5605,36.7219 -39.53953,41.92578 -9.03885,2.35432 -78.42452,2.0678 -86.86894,-0.35871 z m 51.51017,-23.38341 c 7.0203,-4.77798 7.4558,-6.13013 7.80604,-24.23635 l 0.31622,-16.3472 16.86324,-0.33323 c 18.6799,-0.36912 19.95562,-0.77228 24.75433,-7.82305 4.5174,-6.63744 2.31499,-15.9405 -5.07055,-21.41822 -2.55002,-1.89131 -4.43804,-2.12391 -19.68517,-2.4252 l -16.86464,-0.33324 -0.31482,-16.84711 c -0.28491,-15.24661 -0.51356,-17.11498 -2.40677,-19.66675 -7.2808,-9.81349 -19.5353,-9.81349 -26.8161,0 -1.89425,2.55317 -2.1218,4.41963 -2.4078,19.75 l -0.31585,16.93035 -14.96627,0 c -16.59484,0 -19.47016,0.70021 -24.40203,5.9425 -2.71609,2.88704 -3,3.82142 -3,9.87316 0,7.89502 1.8063,11.06831 8.06572,14.16981 3.53434,1.75123 6.04151,2.01453 19.18271,2.01453 l 15.11697,0 0.3173,16.43043 c 0.28621,14.82035 0.5223,16.70672 2.40925,19.25 3.54991,4.78464 8.19341,7.31957 13.40805,7.31957 3.23226,0 5.73867,-0.70403 8.01017,-2.25 z M 137.28033,398.98415 C 93.681688,395.71059 48.259,387.84134 12.820925,377.42217 L 0,373.65269 0.684919,360.58048 C 2.735081,321.45152 11.955456,284.54206 27.682506,252.50827 41.204625,224.96561 55.446521,205.82076 77.716048,185.25005 l 7.93573,-7.33035 8.56427,8.45867 c 19.185102,18.94854 41.621142,30.53277 67.487712,34.84544 10.19902,1.70045 31.42009,1.40001 41.78638,-0.5916 24.38399,-4.68475 46.37038,-16.27811 64.04973,-33.77323 l 8.82538,-8.73342 6.70754,5.77588 c 27.29739,23.50586 50.11985,58.70911 63.76527,98.35683 l 2.32312,6.75 -22.98258,0 c -27.3325,0 -34.45387,1.12457 -46.39827,7.32697 -15.12267,7.85279 -26.33523,21.88894 -30.50286,38.1842 -1.75291,6.85382 -1.99714,11.09488 -1.99714,34.68018 0,20.59988 -0.29174,26.97232 -1.25,27.30376 -7.02676,2.43039 -85.5611,4.22188 -108.75,2.48077 z m 29.5,-200.00583 c -8.29418,-1.28112 -21.73128,-5.54117 -29.51543,-9.35746 -21.08449,-10.33697 -39.323582,-29.4626 -48.021282,-50.35541 -6.21904,-14.9388 -7.35138,-21.07694 -7.33429,-39.757181 0.0143,-15.59623 0.23996,-17.74317 2.73302,-26 5.18973,-17.188003 12.3847,-29.936469 23.628732,-41.866727 28.98807,-30.7572284 72.96817,-40.0298874 112.26643,-23.6699804 25.33704,10.5478364 47.0227,34.3805014 55.53811,61.0367074 3.72803,11.67004 4.65773,18.19335 4.56064,32.000001 -0.0777,11.05459 -0.55497,15.24238 -2.63458,23.11888 -4.81722,18.24529 -12.05361,31.02193 -25.50123,45.02523 -13.47043,14.02705 -28.32991,22.70072 -47.10124,27.4936 -10.86814,2.77496 -28.75825,3.85541 -38.61888,2.33234 z"
     id="path3338" />
</svg>
