<?xml version="1.0" encoding="UTF-8" standalone="no"?>
<svg
   xmlns:dc="http://purl.org/dc/elements/1.1/"
   xmlns:cc="http://creativecommons.org/ns#"
   xmlns:rdf="http://www.w3.org/1999/02/22-rdf-syntax-ns#"
   xmlns:svg="http://www.w3.org/2000/svg"
   xmlns="http://www.w3.org/2000/svg"
   id="svg2"
   version="1.1"
   width="73.59243"
   height="109.55836"
   viewBox="0 0 73.59243 109.55836">
  <metadata
     id="metadata8">
    <rdf:RDF>
      <cc:Work
         rdf:about="">
        <dc:format>image/svg+xml</dc:format>
        <dc:type
           rdf:resource="http://purl.org/dc/dcmitype/StillImage" />
        <dc:title></dc:title>
      </cc:Work>
    </rdf:RDF>
  </metadata>
  <defs
     id="defs6" />
  <path
     style="fill:#ffffff"
     d="m 20.30353,109.09188 c -0.375602,-0.3756 -0.682913,-1.51526 -0.682913,-2.53258 0,-1.7601 1.295383,-1.83677 26.75,-1.58333 25.994556,0.25881 26.75,0.32281 26.75,2.26633 0,1.94204 -0.755415,2.00772 -26.067087,2.26625 -14.336898,0.14643 -26.374398,-0.0411 -26.75,-0.41667 z M 0.14306419,106.77862 c -0.712831,-1.15339 1.42210701,-22.203005 2.35405801,-23.21006 0.545912,-0.589906 15.1902128,7.840459 17.3210668,9.971313 0.441113,0.441113 -3.135385,3.512708 -7.947774,6.825777 -11.15026981,7.67634 -10.99800581,7.59308 -11.72735081,6.41297 z M 27.620617,83.640468 c -2.475,-1.583948 -4.415106,-3.251196 -4.311347,-3.704996 0.175078,-0.765716 25.091207,-42.111099 26.016024,-43.170528 0.603237,-0.691041 9.827789,4.76988 9.62459,5.697743 -0.19378,0.884856 -25.287425,42.435139 -26.222017,43.41865 -0.333987,0.35147 -2.63225,-0.656921 -5.10725,-2.240869 z M 8.8622052,72.15832 c -2.332874,-1.391158 -4.241588,-2.950573 -4.241588,-3.465367 0,-0.88086 24.4078168,-41.643635 25.8393348,-43.153511 0.366511,-0.386573 2.789026,0.618307 5.383367,2.233067 l 4.716985,2.935925 -12.571879,20.766934 C 21.073891,62.897181 14.896176,72.792515 14.260169,73.464999 13.355575,74.421474 12.180253,74.136965 8.8622052,72.15832 Z M 48.944421,28.331013 C 41.697513,23.882221 35.476832,19.94662 35.120684,19.585231 c -0.665655,-0.675451 2.121865,-6.84293 3.092805,-6.84293 0.45223,0 18.391748,10.716408 26.174043,15.635409 2.346588,1.483223 2.165703,2.720252 -0.943641,6.453303 -1.178801,1.415259 -2.761832,0.705598 -14.49947,-6.5 z m 6.462217,-12.857877 c -7.542689,-4.526959 -13.730189,-8.5338086 -13.75,-8.9041096 -0.01981,-0.370301 1.128981,-2.0578008 2.552873,-3.7499997 3.693344,-4.389291 6.358227,-3.9059658 17.888521,3.2444107 11.228611,6.9632906 13.184436,9.7034386 10.308773,14.4427806 -0.895512,1.475882 -2.001251,2.799146 -2.457196,2.940587 -0.455946,0.141441 -7.000283,-3.44671 -14.542971,-7.973669 z"
     id="path3338" />
</svg>
