<?xml version="1.0" encoding="UTF-8" standalone="no"?>
<svg
   xmlns:dc="http://purl.org/dc/elements/1.1/"
   xmlns:cc="http://creativecommons.org/ns#"
   xmlns:rdf="http://www.w3.org/1999/02/22-rdf-syntax-ns#"
   xmlns:svg="http://www.w3.org/2000/svg"
   xmlns="http://www.w3.org/2000/svg"
   id="svg2"
   version="1.1"
   width="73.843788"
   height="101"
   viewBox="0 0 73.843788 101">
  <metadata
     id="metadata8">
    <rdf:RDF>
      <cc:Work
         rdf:about="">
        <dc:format>image/svg+xml</dc:format>
        <dc:type
           rdf:resource="http://purl.org/dc/dcmitype/StillImage" />
        <dc:title></dc:title>
      </cc:Work>
    </rdf:RDF>
  </metadata>
  <defs
     id="defs6" />
  <path
     style="fill:#ffffff"
     d="M 49.344569,88.25 C 45.237725,81.2375 40.860249,73.7 39.616845,71.5 l -2.260734,-4 c 0,0 -4.316742,0.331035 -8.371111,0.641949 C 24.93063,68.452864 18.613097,67.204358 14.471404,64.769613 9.2558945,61.703611 5.5589028,57.694791 2.341387,51.61647 -0.96396385,45.372216 -0.74054824,34.235097 2.8269801,27.40998 9.9071392,13.86477 25.653441,8.0888113 39.390055,13.998144 c 2.874274,1.236479 5.225952,2.505606 5.225952,2.820281 0,0.314676 -1.169413,1.792742 -2.598696,3.284592 -2.480363,2.588941 -2.752114,2.648352 -5.967882,1.304718 -7.940637,-3.31781 -18.036572,-0.403278 -23.830431,6.879456 -5.7565594,7.235851 -4.538212,19.790864 2.563338,26.415081 3.270541,3.05071 9.05301,5.301888 13.551552,5.275766 10.413052,-0.06047 20.250075,-10.108875 20.276542,-20.712261 0.0031,-1.228823 1.348818,-3.703823 2.990557,-5.5 4.061931,-4.444036 5.23859,-2.644948 4.731402,7.234223 -0.389391,7.58469 -2.76525,14.135815 -6.143294,16.939342 -0.865198,0.718051 -1.573088,1.955622 -1.573088,2.750158 0,0.794535 4.05,8.535715 9,17.202622 4.95,8.666907 9,16.47503 9,17.351386 0,1.729796 -5.785088,5.756492 -8.270258,5.756492 -0.908271,0 -4.580577,-5.201751 -9.00118,-12.75 z M 23.235107,42.120356 c -5.143514,-5.19775 -5.688109,-6.122895 -4.695778,-7.977082 2.233184,-4.172743 4.646725,-4.459675 8.566145,-1.018379 L 30.687971,36.27037 49.060664,18.135185 C 59.165644,8.1608332 67.846011,0 68.350367,0 c 0.504357,0 1.946705,1.0960575 3.205218,2.4356834 L 73.84379,4.8713667 71.826409,7.6856834 C 68.432,12.421 31.897911,48 30.429887,48 c -0.757068,0 -3.994719,-2.64584 -7.19478,-5.879644 z"
     id="path3338" />
</svg>
