<?xml version="1.0" encoding="UTF-8" standalone="no"?>
<svg
   xmlns:dc="http://purl.org/dc/elements/1.1/"
   xmlns:cc="http://creativecommons.org/ns#"
   xmlns:rdf="http://www.w3.org/1999/02/22-rdf-syntax-ns#"
   xmlns:svg="http://www.w3.org/2000/svg"
   xmlns="http://www.w3.org/2000/svg"
   id="svg2"
   version="1.1"
   width="327.28033"
   height="369.26898"
   viewBox="0 0 327.28033 369.26898">
  <metadata
     id="metadata8">
    <rdf:RDF>
      <cc:Work
         rdf:about="">
        <dc:format>image/svg+xml</dc:format>
        <dc:type
           rdf:resource="http://purl.org/dc/dcmitype/StillImage" />
        <dc:title></dc:title>
      </cc:Work>
    </rdf:RDF>
  </metadata>
  <defs
     id="defs6" />
  <path
     style="fill:#ffffff"
     d="M 21.348258,368.55245 C 11.907112,367.67828 6.0134272,363.49338 2.242865,354.98635 0.58515522,351.24628 0.45314635,341.83621 0.10613681,202.67267 -0.09728608,121.09264 5.9877448e-4,53.292205 0.3236587,52.005032 1.1775978,48.602668 10.803448,38.459137 14.902056,36.642605 c 2.887234,-1.279643 10.007275,-1.653264 40.012222,-2.099624 20.075,-0.298639 37.001777,-0.86951 37.615061,-1.268601 0.613283,-0.399091 1.353832,-2.50579 1.645663,-4.681554 C 95.449599,19.089997 104.34582,7.8902867 114.63143,2.8396195 119.60702,0.39639873 121.60084,0 128.91428,0 c 7.10469,0 9.42714,0.43467346 14.14796,2.6479615 10.20052,4.7823581 17.66243,14.5949845 20.018,26.3242275 l 1.07711,5.363343 37.62847,0.339016 c 36.416,0.328093 37.75735,0.409115 41.62846,2.514498 2.2,1.196515 5.28741,3.395449 6.8609,4.886521 5.58053,5.288202 6.00973,7.633679 6.44263,35.20702 0.21831,13.905422 0.12032,26.384673 -0.21775,27.731663 -0.78965,3.14621 -6.07611,9.17083 -9.68456,11.03683 -3.57358,1.84797 -12.19654,1.86895 -15.70088,0.0382 -3.07432,-1.60611 -7.41919,-6.04448 -9.07815,-9.27354 -0.69652,-1.35572 -1.12219,-8.467979 -1.12219,-18.749999 l 0,-16.565741 -13,0 c -14.53895,0 -13.85326,-0.295487 -19.02937,8.200435 -4.62891,7.597778 -9.02682,9.853098 -21.1764,10.859593 -13.72671,1.137148 -57.33769,1.121517 -72.157007,-0.02586 C 85.264926,89.737732 83.19124,89.270936 79.94454,87.020972 76.229609,84.446523 69.914278,76.639601 69.914278,74.621706 69.914278,72.266621 65.387238,71.5 51.480019,71.5 l -14.565741,0 0,131 0,131 110.585322,0 110.58532,0 -0.67188,7.75 c -1.20824,13.93678 -3.56161,19.27791 -10.52431,23.88561 -3.94884,2.61321 -4.7896,2.74416 -22.28904,3.4715 -21.98945,0.91397 -193.287658,0.86789 -203.251432,-0.0547 z M 135.8432,47.748446 c 4.63825,-2.365105 7.19045,-6.127898 7.79514,-11.492642 0.98518,-8.74054 -4.78069,-15.670481 -13.75572,-16.532868 -5.72785,-0.550374 -11.66694,2.303957 -14.39174,6.916684 -1.91524,3.242243 -2.28059,9.953793 -0.7545,13.86038 1.04296,2.669833 5.70055,7.394846 8.1779,8.296293 3.16621,1.152105 9.64416,0.627088 12.92892,-1.047847 z m 87.61,265.707714 c -19.04648,-2.99375 -35.68872,-11.87106 -50.53892,-26.95851 -19.57285,-19.88555 -27.39979,-42.40004 -24.91566,-71.67085 1.39113,-16.39188 5.24484,-27.52963 13.98613,-40.42185 12.04372,-17.76285 31.13632,-31.7457 50.68055,-37.11689 10.81868,-2.97321 39.64512,-3.21334 48.74898,-0.40608 32.16354,9.91793 56.13293,35.04044 64.20057,67.28911 1.22015,4.87732 1.6957,10.82988 1.664,20.82891 -0.0387,12.22487 -0.38251,15.11431 -2.7112,22.78832 -10.01355,32.99892 -35.81034,57.70585 -66.97188,64.14244 -9.70001,2.00359 -26.36374,2.74808 -34.14257,1.5254 z m 12.9708,-37.06792 c 5.8311,-5.97262 45.49028,-85.85274 45.49028,-91.62492 0,-2.68256 -3.98644,-8.09182 -7.61703,-10.33565 -4.42953,-2.7376 -10.61269,-2.18443 -13.94579,1.24764 -2.63444,2.71267 -9.03903,14.26997 -23.87026,43.07469 -5.87617,11.4125 -11.0373,20.75 -11.46917,20.75 -0.43187,0 -3.83397,-3.61276 -7.56022,-8.02836 -7.48907,-8.87452 -8.97482,-9.97164 -13.50391,-9.97164 -10.69581,0 -16.83127,9.59583 -12.08455,18.90018 2.48966,4.88013 19.52958,27.75912 24.91098,33.44722 4.64967,4.91466 6.53995,5.71474 12.47899,5.28181 3.47325,-0.25318 5.49712,-1.0268 7.17068,-2.74097 z M 67.361923,309.22416 c -0.269272,-0.70171 -0.367649,-10.71421 -0.218616,-22.25 L 67.414278,266 l 22.25,-0.26913 22.250002,-0.26913 0,22.51913 0,22.51913 -22.031387,0 c -16.940595,0 -22.144513,-0.29481 -22.52097,-1.27584 z M 99.914278,288 l 0,-9.5 -10,0 -10,0 0,9.5 0,9.5 10,0 10,0 0,-9.5 z m -33,-64.5 0,-22 22.5,0 22.500002,0 0,22 0,22 -22.500002,0 -22.5,0 0,-22 z m 31.281994,9 c 0.245399,-0.275 0.74851,-4.6625 1.118024,-9.75 l 0.671842,-9.25 -10.035929,0 -10.035931,0 0,10.0995 0,10.0995 8.917906,-0.3495 c 4.904849,-0.19223 9.118688,-0.5745 9.364088,-0.8495 z M 67.361923,179.22416 c -0.269272,-0.70171 -0.367649,-10.71421 -0.218616,-22.25 L 67.414278,136 l 22.25,-0.26913 22.250002,-0.26913 0,22.51913 0,22.51913 -22.031387,0 c -16.940595,0 -22.144513,-0.29481 -22.52097,-1.27584 z M 99.70049,157.75 99.414278,148 l -9.75,-0.28621 -9.75,-0.28621 0,10.03621 0,10.03621 10.036212,0 10.036208,0 -0.286208,-9.75 z"
     id="path3338" />
</svg>
