<?xml version="1.0" encoding="UTF-8" standalone="no"?>
<svg
   xmlns:dc="http://purl.org/dc/elements/1.1/"
   xmlns:cc="http://creativecommons.org/ns#"
   xmlns:rdf="http://www.w3.org/1999/02/22-rdf-syntax-ns#"
   xmlns:svg="http://www.w3.org/2000/svg"
   xmlns="http://www.w3.org/2000/svg"
   id="svg2"
   version="1.1"
   width="281.49826"
   height="284.5463"
   viewBox="0 0 281.49826 284.5463">
  <metadata
     id="metadata8">
    <rdf:RDF>
      <cc:Work
         rdf:about="">
        <dc:format>image/svg+xml</dc:format>
        <dc:type
           rdf:resource="http://purl.org/dc/dcmitype/StillImage" />
        <dc:title></dc:title>
      </cc:Work>
    </rdf:RDF>
  </metadata>
  <defs
     id="defs6" />
  <path
     style="fill:#2c3949;fill-opacity:1"
     d="M 0,146.5463 0,8.5462992 l 39.5,0 39.5,0 0,138.0000008 0,138 -39.5,0 -39.5,0 0,-138 z m 45.327957,105.95667 c 4.8574,-3.82083 4.120742,-13.04062 -1.272566,-15.92703 -8.435772,-4.51468 -17.649685,4.88584 -13.107506,13.37298 2.529377,4.72619 9.944379,6.04317 14.380072,2.55405 z M 65.702393,163.35013 69,160.15397 69,107.42686 69,54.69975 66.513885,51.74517 64.027771,48.790591 46.701426,48.068767 C 24.808009,47.156677 16.904713,47.914154 12.867134,51.311552 l -2.9914172,2.517112 0.3121412,53.823946 c 0.345966,59.65639 -0.06455,56.23742 6.951534,57.89501 1.848334,0.43667 12.789185,0.84002 24.313001,0.89632 l 20.952393,0.10236 3.297607,-3.19617 z M 20,127.0463 l 0,-4.5 19.5,0 19.5,0 0,4.5 0,4.5 -19.5,0 -19.5,0 0,-4.5 z m 0,-20 0,-4.5 19.5,0 19.5,0 0,4.5 0,4.5 -19.5,0 -19.5,0 0,-4.5 z m 0,-19.500001 0,-5 19.5,0 19.5,0 0,5 0,5 -19.5,0 -19.5,0 0,-5 z M 83,146.5463 83,8.5462992 l 39.5,0 39.5,0 0,138.0000008 0,138 -39.5,0 -39.5,0 0,-138 z m 45.50479,105.58612 c 3.15301,-3.15301 4.02243,-6.89907 2.47067,-10.64536 -3.42068,-8.25827 -14.75731,-7.90513 -17.97573,0.55995 -0.89299,2.34875 -0.3037,5.72204 1.50027,8.58797 2.79167,4.43507 10.26778,5.23445 14.00479,1.49744 z m 20.1976,-88.78229 3.29761,-3.19616 0,-52.72711 0,-52.72711 -2.48611,-2.95458 -2.48612,-2.954579 -17.32634,-0.721824 C 107.82094,47.157216 99.903957,47.914789 95.874098,51.305692 l -2.984453,2.511252 0.305177,53.829816 c 0.338256,59.66431 -0.07208,56.24314 6.944568,57.90086 1.84834,0.43667 12.78919,0.84002 24.313,0.89632 l 20.9524,0.10236 3.2976,-3.19617 z M 103,127.0463 l 0,-4.5 19.5,0 19.5,0 0,4.5 0,4.5 -19.5,0 -19.5,0 0,-4.5 z m 0,-20 0,-4.5 19.5,0 19.5,0 0,4.5 0,4.5 -19.5,0 -19.5,0 0,-4.5 z m 0,-19.500001 0,-5 19.5,0 19.5,0 0,5 0,5 -19.5,0 -19.5,0 0,-5 z M 203.50934,282.24191 C 202.52784,279.203 165.95408,11.258888 166.4527,10.760262 167.13771,10.075253 243.28749,-0.49954059 243.80545,0.01841501 244.39183,0.60479538 281.9382,271.94144 281.49437,272.38526 c -0.22163,0.22163 -16.28603,2.57638 -35.69866,5.23277 -19.41264,2.6564 -36.78173,5.05249 -38.59797,5.32465 -2.0686,0.30998 -3.44651,0.0482 -3.6884,-0.70077 z m 37.93091,-34.67289 c 3.28909,-1.25051 6.05935,-6.89604 5.15398,-10.50332 -1.10744,-4.41239 -4.96105,-7.5194 -9.32627,-7.5194 -4.61869,0 -7.56777,1.89537 -9.24342,5.94076 -3.41152,8.23613 4.58635,15.43887 13.41571,12.08196 z M 228.5,160.98633 l 20,-2.56404 3.23576,-3.688 c 2.9188,-3.32673 3.17779,-4.12879 2.64395,-8.18799 -0.3255,-2.475 -3.58159,-26.05096 -7.23576,-52.391033 L 240.5,46.264236 237,43.499652 233.5,40.735067 215,43.106819 c -23.5351,3.017266 -27.09666,3.887158 -30.5125,7.452524 l -2.75019,2.870585 7.13651,50.308182 c 3.92508,27.66951 7.6122,52.02056 8.1936,54.11345 1.81536,6.53476 3.55709,6.70847 31.43258,3.13477 z m -26.00055,-32.83519 c -0.17951,-0.60766 -0.57032,-2.52358 -0.86847,-4.25759 -0.45632,-2.65399 -0.19317,-3.23459 1.66347,-3.67012 4.3476,-1.01987 35.76049,-4.95552 36.18275,-4.53327 0.23717,0.23717 0.71929,2.23272 1.07138,4.43455 l 0.64015,4.00332 -9.84436,1.25434 c -5.41441,0.68989 -14.04606,1.84368 -19.18146,2.56398 -6.73181,0.94422 -9.42815,1.00136 -9.66346,0.20479 z m -2.87266,-20.13502 C 199.28206,107.11775 199,105.11961 199,103.5758 c 0,-3.25462 -1.29384,-2.89723 21.90536,-6.050719 16.91123,-2.298754 17.05019,-2.269364 17.07933,3.612209 l 0.0153,3.09099 -16.25,2.21411 c -8.9375,1.21776 -17.43044,2.43753 -18.87321,2.71061 -1.82835,0.34607 -2.81313,0.002 -3.25,-1.13688 z M 196.4408,86.000104 c -0.37496,-2.500408 -0.51503,-4.699246 -0.31127,-4.886307 0.49588,-0.455241 38.09909,-5.685977 38.38245,-5.33913 0.59802,0.732011 1.15783,9.771632 0.60514,9.771632 -0.35047,0 -8.50769,1.11896 -18.12717,2.486577 -9.61947,1.367617 -18.02488,2.492617 -18.67868,2.5 -0.6538,0.0074 -1.49551,-2.032365 -1.87047,-4.532772 z"
     id="path3338" />
</svg>
