<?xml version="1.0" encoding="UTF-8" standalone="no"?>
<svg
   xmlns:dc="http://purl.org/dc/elements/1.1/"
   xmlns:cc="http://creativecommons.org/ns#"
   xmlns:rdf="http://www.w3.org/1999/02/22-rdf-syntax-ns#"
   xmlns:svg="http://www.w3.org/2000/svg"
   xmlns="http://www.w3.org/2000/svg"
   viewBox="0 0 583.85535 220.06158"
   height="220.06158"
   width="583.85535"
   version="1.1"
   id="svg2">
  <metadata
     id="metadata8">
    <rdf:RDF>
      <cc:Work
         rdf:about="">
        <dc:format>image/svg+xml</dc:format>
        <dc:type
           rdf:resource="http://purl.org/dc/dcmitype/StillImage" />
        <dc:title></dc:title>
      </cc:Work>
    </rdf:RDF>
  </metadata>
  <defs
     id="defs6" />
  <path
     id="path3338"
     d="m 396.72217,218.81158 c 0.28774,-0.6875 21.67992,-50.075 47.53819,-109.75 L 491.27539,0.56158269 503.96665,0.28079135 516.65792,0 516.16054,2.2807914 C 515.78044,4.0238319 455.53345,143.73278 426.23537,210.81158 l -4.04013,9.25 -12.99812,0 c -10.01084,0 -12.87787,-0.28728 -12.47495,-1.25 z M 47.664623,216.0106 c -5.636603,-0.50277 -14.411603,-1.78653 -19.5,-2.85279 -8.551271,-1.79189 -24.3797129,-6.95284 -27.64932279,-9.0152 -1.14707483,-0.72354 -0.53383229,-3.36498 3.42005179,-14.73133 2.6497592,-7.61733 4.9117817,-13.98276 5.0267167,-14.14539 0.114935,-0.16263 5.3944053,1.08816 11.7321573,2.77954 16.633673,4.43908 26.804731,6.01522 38.718766,6 28.312762,-0.0362 43.454698,-11.21849 44.778368,-33.06883 1.00927,-16.6604 -6.312341,-28.13039 -21.684983,-33.97153 -12.441034,-4.72723 -27.149088,-4.33828 -42.634665,1.12745 l -8.514473,3.00524 -10.560074,-5.75637 -10.560075,-5.75637 0.560151,-5.03172 c 0.308082,-2.76745 1.948965,-23.481717 3.646406,-46.031717 1.69744,-22.55 3.293524,-42.0125 3.546852,-43.25 l 0.460597,-2.25 59.480948,0 59.480946,0 0,24.5 0,24.5 -16.5,0 -16.5,0 0,-10.5 0,-10.5 -25.954685,0 -25.954687,0 -0.509367,3.25 c -0.280152,1.7875 -0.985062,10.225 -1.566468,18.75 -0.581406,8.525 -1.30697,17.580501 -1.612364,20.123336 l -0.555261,4.623335 5.326417,-1.537823 c 3.826427,-1.104752 9.973037,-1.539792 21.826417,-1.544812 13.872252,-0.0059 17.764819,0.340139 24.44198,2.172676 24.966148,6.851925 41.239878,23.000325 46.046578,45.691975 1.88176,8.88347 1.89057,22.98265 0.02,31.97131 -1.98166,9.52234 -8.57227,22.25706 -14.95847,28.90354 -9.75994,10.15772 -24.22822,17.60216 -40.877578,21.03295 -9.816352,2.02277 -29.022991,2.70759 -42.420849,1.51253 z m 175.248367,-1.45538 c -34.32923,-7.03807 -53.89378,-30.21968 -60.00273,-71.09594 -1.93297,-12.93393 -2.22101,-41.89083 -0.5411,-54.397697 3.44682,-25.66144 13.93112,-48.621551 27.96283,-61.237268 6.35104,-5.710132 18.41522,-12.00717 28.63759,-14.94772 6.796,-1.954927 10.25458,-2.284408 23.94341,-2.280961 18.8325,0.0047 24.29185,1.155509 38.43251,8.101132 13.87655,6.815893 22.04761,15.275107 29.45308,30.491773 9.61062,19.74776 12.59932,34.923827 12.60851,64.023671 0.007,22.14084 -2.03999,36.30043 -7.42653,51.37131 -9.22764,25.8178 -26.43224,42.68391 -50.06757,49.08251 -8.39204,2.27191 -33.70264,2.7953 -43,0.88919 z m 33.93554,-32.9183 c 16.47546,-8.06069 23.55838,-28.68149 23.55454,-68.57534 -0.003,-27.033007 -2.15035,-40.307238 -8.65625,-53.499997 -10.86257,-22.027297 -39.72129,-24.687822 -54.52345,-5.026592 -10.01398,13.301251 -14.54742,39.781576 -12.69762,74.168159 1.80338,33.52359 10.96813,50.64214 29.62171,55.32944 6.58065,1.6536 16.58192,0.59815 22.70107,-2.39567 z m 257.82712,31.91055 c -18.81238,-4.08714 -31.77456,-18.72728 -35.89372,-40.54019 -2.3154,-12.26108 -1.47975,-35.80668 1.61289,-45.4457 3.26373,-10.17226 6.56449,-16.14003 12.25489,-22.15678 9.67814,-10.233204 24.20128,-15.019934 42.66606,-14.062444 25.71559,1.333481 39.80062,12.700754 46.73738,37.719224 1.41072,5.08799 1.80222,10.19296 1.80222,23.5 0,18.71017 -1.08251,24.69279 -6.54983,36.19831 -6.09288,12.82198 -18.9363,22.73611 -32.77904,25.3029 -7.41169,1.37431 -22.33935,1.11661 -29.85085,-0.51532 z m 25.37151,-23.40449 c 4.26947,-2.60339 7.74769,-7.50606 9.99013,-14.0814 1.55329,-4.55461 1.8757,-8.50805 1.8757,-23 0,-19.03896 -1.16686,-25.03647 -6.1774,-31.75105 -8.27664,-11.09148 -26.15936,-8.62907 -32.31309,4.44944 -7.89284,16.77463 -5.95488,52.44742 3.32131,61.13679 5.83943,5.47002 17.0869,7.03683 23.30335,3.24622 z M 364.82392,133.64073 c -13.97975,-3.18641 -25.81572,-12.57891 -31.41619,-24.93048 -4.78538,-10.553925 -6.29326,-20.608617 -5.77756,-38.525412 0.39398,-13.687808 0.78812,-16.614314 3.18161,-23.623255 3.2452,-9.503019 6.52469,-15.376804 11.7508,-21.046462 12.50364,-13.564848 41.21347,-18.3693496 62.07143,-10.387462 12.30378,4.708386 21.51632,15.260208 26.39509,30.232275 2.29253,7.035363 2.73941,10.41296 3.14263,23.752198 0.36156,11.961033 0.0929,17.385512 -1.16386,23.5 -1.8076,8.794428 -6.99776,20.645118 -11.57029,26.418398 -3.95715,4.99632 -12.15604,10.50419 -19.52459,13.11631 -7.76924,2.75415 -27.98715,3.5685 -37.08907,1.49389 z m 23.90481,-22.69914 c 4.36064,-2.23595 8.732,-7.39168 10.67877,-12.594888 5.25513,-14.045592 4.61414,-40.58362 -1.28416,-53.165999 -5.62871,-12.007287 -23.14487,-13.710462 -32.05852,-3.117193 -3.90408,4.63974 -6.69944,14.93726 -7.32887,26.998073 -1.15803,22.189554 3.64622,37.352347 13.17704,41.588357 3.68424,1.63747 13.8473,1.81374 16.81574,0.29165 z"
     style="fill:#ffffff" />
</svg>
