<?xml version="1.0" encoding="UTF-8" standalone="no"?>
<svg
   xmlns:dc="http://purl.org/dc/elements/1.1/"
   xmlns:cc="http://creativecommons.org/ns#"
   xmlns:rdf="http://www.w3.org/1999/02/22-rdf-syntax-ns#"
   xmlns:svg="http://www.w3.org/2000/svg"
   xmlns="http://www.w3.org/2000/svg"
   id="svg2"
   version="1.1"
   width="494.79904"
   height="317.95328"
   viewBox="0 0 494.79904 317.95328">
  <metadata
     id="metadata8">
    <rdf:RDF>
      <cc:Work
         rdf:about="">
        <dc:format>image/svg+xml</dc:format>
        <dc:type
           rdf:resource="http://purl.org/dc/dcmitype/StillImage" />
        <dc:title></dc:title>
      </cc:Work>
    </rdf:RDF>
  </metadata>
  <defs
     id="defs6" />
  <path
     style="fill:#ffffff"
     d="m 105.12628,315.70329 c 0.29922,-1.2375 3.04355,-15.10221 6.0985,-30.81046 11.80975,-60.72456 12.82015,-64.05181 22.28688,-73.39095 7.43272,-7.33254 15.72573,-12.29358 43.64267,-26.10788 14.2204,-7.03677 26.4829,-13.42175 27.25,-14.18884 0.76709,-0.7671 1.39472,-3.33573 1.39472,-5.70808 l 0,-4.31334 5.62735,-0.70309 5.62736,-0.7031 -0.63375,-5.39221 c -0.54657,-4.65047 -1.24276,-6.00122 -5.06113,-9.81959 -4.49049,-4.49049 -7.55983,-11.68175 -7.55983,-17.71217 0,-3.95093 -0.96891,-5.90029 -2.93267,-5.90029 -3.20513,0 -6.13937,-4.43885 -7.02468,-10.62676 -0.46216,-3.23028 -1.42384,-8.67595 -2.13706,-12.101494 -1.14852,-5.516295 -1.1031,-6.634346 0.39734,-9.780816 0.93176,-1.95391 2.3443,-3.80207 3.13899,-4.107021 1.19229,-0.457525 0.93032,-1.950052 -1.49851,-8.537404 -2.66245,-7.220952 -2.94269,-9.145734 -2.93586,-20.164728 0.01,-15.507197 1.30533,-23.652599 4.96016,-31.181781 3.17878,-6.548489 6.87755,-9.5 11.9052,-9.5 2.31997,0 2.92378,-0.366238 2.48575,-1.50772 -1.69445,-4.4156795 6.47108,-9.7907417 18.31668,-12.0571797 22.10367,-4.2291293 45.7467,1.4547695 56.69252,13.6291527 8.37367,9.31353 11.17659,22.931797 10.46607,50.850439 l -0.40201,15.796648 2.72348,1.563064 c 4.96444,2.849197 4.8215,12.694094 -0.38641,26.61348 -2.14713,5.73871 -6.51673,11.11212 -9.03628,11.11212 -1.01553,0 -1.74417,2.28426 -2.55295,8.00331 -1.28821,9.1092 -2.84867,12.69887 -7.06118,16.24345 -2.81782,2.37105 -2.92808,2.76252 -2.40448,8.53686 0.58907,6.49641 1.29564,7.17174 7.5359,7.20273 2.62862,0.0131 2.75,0.23262 2.75,4.97469 0,3.79547 0.50738,5.43375 2.15956,6.97299 3.72121,3.46683 17.88749,9.78495 29.34044,13.08574 19.70821,5.68001 36.3292,15.03066 41.32285,23.24745 1.08057,1.77803 5.59826,18.08278 10.03931,36.23278 9.07762,37.09914 13.02639,55.83104 13.86037,65.75 l 0.56754,6.75 -139.75344,0 -139.75345,0 0.54405,-2.25 z m 283.74129,-41 c -0.65543,-3.4375 -4.09402,-17.95 -7.64131,-32.25 -3.54728,-14.3 -6.91212,-28.025 -7.47742,-30.5 -2.29813,-10.06175 -12.85693,-20.86975 -27.13924,-27.77973 -4.2292,-2.04615 -7.68133,-4.17027 -7.6714,-4.72027 0.0563,-3.11946 5.91382,-10.26459 10.65726,-13 l 5.20227,-3 -0.24934,-5.86656 -0.24934,-5.86657 -12,-3.74939 c -6.6,-2.06217 -13.70677,-4.4698 -15.79282,-5.3503 l -3.79281,-1.60091 1.62728,-3.14682 c 0.89501,-1.73075 2.28252,-5.00817 3.08336,-7.28314 l 1.45607,-4.13631 -5.32198,5.25 c -2.9271,2.8875 -5.61771,5.25 -5.97915,5.25 -0.36144,0 1.53418,-4.6125 4.21247,-10.25 5.98694,-12.60179 7.36231,-17.90288 9.92552,-38.255937 3.5288,-28.02027 6.40085,-41.405252 10.59842,-49.393244 4.63599,-8.822298 9.44363,-13.223835 19.84857,-18.171946 15.37378,-7.311065 28.29506,-7.287788 43.52742,0.07841 12.19894,5.899267 17.50834,11.539883 22.42228,23.821044 1.94497,4.860956 5.80981,26.213559 8.26662,45.671669 1.9912,15.770524 5.09629,26.914154 10.48679,37.635324 2.23208,4.4394 3.83035,8.29962 3.55171,8.57826 -0.27865,0.27865 -2.9996,-1.85111 -6.04656,-4.7328 l -5.53993,-5.23944 1.64571,4.87933 c 0.90513,2.68363 2.30009,5.89288 3.0999,7.13166 1.38779,2.14947 1.27762,2.3278 -2.41233,3.90465 -2.1266,0.90878 -9.26654,3.32941 -15.86654,5.37918 l -12,3.72687 -0.29591,5.48478 -0.29592,5.48477 5.13059,3.29229 c 3.51147,2.2533 6.38477,5.27815 9.1048,9.58501 2.20194,3.48653 4.95132,6.58175 6.16533,6.94085 1.20511,0.35647 7.59111,3.29837 14.19111,6.53756 10.37213,5.09049 17.22523,7.39731 30.73093,10.34434 3.44523,0.75177 9.0911,6.34495 11.9555,11.84393 1.9335,3.71188 2.35046,6.94871 3.44243,26.72344 0.68336,12.375 1.27142,27.1125 1.3068,32.75 l 0.0643,10.25 -52.36989,0 -52.3699,0 -1.19169,-6.25 z M 0.23995236,268.32656 c -0.95960824,-7.68045 1.10512424,-31.97674 3.59887214,-42.34895 2.6610828,-11.0682 7.8469825,-21.69532 13.3502405,-27.35776 5.232192,-5.38353 14.37939,-10.15787 28.109989,-14.67188 12.112527,-3.98206 28.276022,-10.77954 38.470218,-16.17848 4.14138,-2.19331 7.667127,-4.12406 7.834993,-4.29056 0.167865,-0.1665 1.167684,-4.51241 2.221819,-9.65757 l 1.916609,-9.35485 -2.365502,-3.57451 c -4.463802,-6.74526 -8.732469,-16.19074 -10.535049,-23.31138 -1.472934,-5.81847 -2.198003,-7.18661 -3.948313,-7.45011 -3.791765,-0.57084 -5.225142,-4.39868 -6.266453,-16.734621 -0.899238,-10.652868 -0.829075,-11.784928 0.845534,-13.642401 1.603982,-1.779135 1.826144,-3.927933 1.826144,-17.662879 0,-14.204446 0.210865,-16.095482 2.301224,-20.637323 3.087732,-6.708891 7.066073,-10.704633 17.198776,-17.274002 4.675,-3.030959 10.187496,-6.834559 12.249996,-8.452445 l 3.75,-2.941612 0,3.139585 0,3.139585 6.75,-6.756994 6.75,-6.7569937 0.52198,5.1400807 c 0.49164,4.841359 1.97802,8.545597 1.97802,4.929463 0,-2.554234 1.42787,-2.114421 13.16693,4.055686 25.21444,13.252825 29.84085,20.69825 28.35285,45.629122 l -0.71148,11.920541 2.84585,2.276868 c 2.83621,2.269155 2.84487,2.31171 2.55554,12.561949 -0.31867,11.289761 -1.56241,15.222871 -4.96741,15.708501 -1.48464,0.21175 -2.44178,1.22248 -2.84091,3 -2.69172,11.98741 -6.55932,20.67071 -12.62451,28.34374 l -4.0743,5.15439 1.20107,8.09127 c 0.66059,4.4502 1.42466,8.853 1.69794,9.784 0.27327,0.93101 5.23995,4.06772 11.03707,6.97049 9.53848,4.77615 10.31788,5.36904 8.20079,6.23828 -9.37738,3.8502 -25.61226,12.2221 -32.03019,16.51711 -16.9997,11.37657 -24.96767,22.86881 -28.8298,41.58139 -1.13515,5.5 -3.54854,16.75 -5.36309,25 l -3.29917,15 -50.085477,0.25921 -50.08548575,0.25921 -0.70531489,-5.64515 z"
     id="path3338" />
</svg>
