<?xml version="1.0" encoding="UTF-8" standalone="no"?>
<svg
   xmlns:dc="http://purl.org/dc/elements/1.1/"
   xmlns:cc="http://creativecommons.org/ns#"
   xmlns:rdf="http://www.w3.org/1999/02/22-rdf-syntax-ns#"
   xmlns:svg="http://www.w3.org/2000/svg"
   xmlns="http://www.w3.org/2000/svg"
   id="svg2"
   version="1.1"
   width="125.84892"
   height="124.83393"
   viewBox="0 0 125.84892 124.83393">
  <metadata
     id="metadata8">
    <rdf:RDF>
      <cc:Work
         rdf:about="">
        <dc:format>image/svg+xml</dc:format>
        <dc:type
           rdf:resource="http://purl.org/dc/dcmitype/StillImage" />
        <dc:title></dc:title>
      </cc:Work>
    </rdf:RDF>
  </metadata>
  <defs
     id="defs6" />
  <path
     style="fill:#ffffff"
     d="M 53.026843,124.13644 C 31.784513,120.58055 12.086435,104.81309 4.3425905,85.1668 -8.7687937,51.902954 8.8862875,14.001121 42.816699,2.570792 47.013903,1.156856 52.153224,0 54.237412,0 c 3.78903,0 3.789431,7.77e-4 3.789431,7.34024 l 0,7.34024 -4.6875,0.778055 C 40.363322,17.612364 25.512346,29.26884 19.77342,41.804302 10.991212,60.987174 14.40737,80.241049 29.221582,95.05526 43.608615,109.4423 61.886173,113.35085 81.121852,106.15387 94.747893,101.05571 108.26814,84.29407 110.16565,70.147 l 0.69036,-5.147 7.33542,0 c 7.25781,0 7.33541,0.03828 7.33541,3.618331 0,11.204423 -9.99464,30.513309 -20.64839,39.891109 -13.955217,12.28388 -34.619322,18.51161 -51.851607,15.627 z m 6.875,-53.049635 C 53.622388,67.576302 52.227397,59.790795 57.089343,55.390114 59.692577,53.033854 88.628783,35 89.806283,35 c 0.87449,0 -17.990884,33.41189 -19.63652,34.777646 -2.576433,2.138249 -7.631891,2.782819 -10.26792,1.309159 z M 110.49717,54.6875 c -0.0381,-3.617454 -5.02276,-15.74474 -8.44943,-20.557058 l -2.652927,-3.725698 5.367637,-5.267943 5.36764,-5.267942 3.39232,4.447559 c 5.12403,6.717943 10.53375,19.260996 11.48148,26.621082 l 0.84502,6.5625 -7.66103,0 c -7.10265,0 -7.6632,-0.204991 -7.69071,-2.8125 z M 86.545223,21.139985 c -3.37676,-2.208619 -9.066571,-4.440634 -13.437496,-5.271294 l -7.580884,-1.44069 0,-7.214 C 65.526843,0.135013 65.592779,0 69.049967,0 76.678713,0 93.570283,6.587771 100.53877,12.280745 l 3.11307,2.543254 -4.941187,5.088 c -2.71765,2.798401 -5.2489,5.081384 -5.625,5.073297 -0.37609,-0.0081 -3.31929,-1.738477 -6.54043,-3.845311 z"
     id="path3338" />
</svg>
